<?xml version="1.0" encoding="UTF-8" standalone="no"?>
<svg
xmlns="http://www.w3.org/2000/svg"
viewBox="0 0 94.607 87.5"
class="bus"
>
<path
  d="M75.746 36.02v10.29c-.01 2.82-2.132 5.19-4.924 5.553-7.44.952-14.063 1.513-23.513 1.513-9.46 0-16.086-.56-23.516-1.523-2.792-.353-4.92-2.724-4.928-5.544V17.06c0-5.36 4.308-9.715 9.66-9.715H66.08c5.352 0 9.666 4.354 9.666 9.716v18.96zm0 31.028c0 1.277-1.036 2.313-2.315 2.313h-7.18c-1.636 0-2.756-1.65-2.15-3.17l.475-1.194c.35-.88 1.202-1.457 2.15-1.457h6.706c1.28 0 2.316 1.035 2.316 2.313v1.195zM28.362 69.36H21.18c-1.278 0-2.314-1.035-2.314-2.312v-1.195c0-1.278 1.036-2.314 2.314-2.314h6.706c.95 0 1.8.576 2.15 1.456l.476 1.195c.605 1.52-.515 3.17-2.15 3.17zm62.873-52.946h-.076V14.7c0-3.45-2.813-6.26-6.27-6.26h-4.06C78.803 3.496 73.945 0 68.267 0H26.34c-5.678 0-10.536 3.496-12.565 8.44h-4.06c-3.456 0-6.258 2.81-6.258 6.26v1.714H3.38C1.516 16.414 0 17.93 0 19.796v11.3c0 1.865 1.515 3.38 3.38 3.38h2.85c1.867 0 3.382-1.515 3.382-3.38v-11.3c0-1.867-1.515-3.382-3.382-3.382h-.076V14.7c0-1.962 1.6-3.554 3.562-3.554h3.278c-.143.79-.23 1.6-.23 2.44v58.533c-.032 9.266.033 9.266 0 9.255v2.975c0 1.74 1.376 3.15 3.115 3.15h3.542c1.74 0 3.162-1.41 3.162-3.15v-5.157h49.44v5.157c0 1.74 1.41 3.15 3.15 3.15h3.543c1.74 0 3.124-1.41 3.124-3.15v-2.975c-.03.01.035.01 0-8.193V13.586c0-.84-.084-1.65-.228-2.44h3.278c1.962 0 3.562 1.593 3.562 3.555v1.714h-.076c-1.866 0-3.38 1.515-3.38 3.382v11.3c0 1.865 1.514 3.38 3.38 3.38h2.86c1.865 0 3.37-1.515 3.37-3.38v-11.3c0-1.867-1.505-3.382-3.37-3.382"
/>
</svg>
