<svg xmlns="http://www.w3.org/2000/svg" height="550.267" width="1606.416"><defs><clipPath id="a" clipPathUnits="userSpaceOnUse"><path d="M0 850.39h1574.685V0H0z"/></clipPath></defs><g clip-path="url(#a)" transform="matrix(1.33333 0 0 -1.33333 -201.133 865.568)"><path d="M454.084 486.549c-25.32 0-45.856 20.826-45.856 46.496 0 25.684 20.535 46.504 45.856 46.504 25.322 0 45.857-20.82 45.857-46.504 0-25.67-20.534-46.496-45.856-46.496m0 143.299c-52.721 0-95.46-43.34-95.46-96.803 0-53.461 42.739-96.805 95.46-96.805 52.712 0 95.45 43.344 95.45 96.805 0 53.463-42.738 96.803-95.45 96.803" fill="#d9001d"/><path d="M631.769 483.332c-12.218 0-50.792 39.113-50.792 51.499 0 12.392 38.574 51.512 50.792 51.512 12.212 0 50.786-39.12 50.786-51.512 0-12.386-38.574-51.499-50.786-51.499m0 165.844c-26.908 0-111.929-86.225-111.929-113.496 0-27.311 85.021-113.541 111.929-113.541 26.911 0 111.936 86.23 111.936 113.541 0 27.271-85.025 113.496-111.936 113.496" fill="#ed7d0f"/><path d="M856.77 491.267h-88.709v89.542h88.709zM720.7 443.022h183.412v186.005H720.7z" fill="#fcc517"/><path d="M240.434 300.652c-6.914-4.452-17.527-6.675-30.85-8.144-16.048-1.735-25.91-5.185-25.91-14.563 0-7.162 8.39-12.088 21.472-12.088 19.49 0 35.288 6.654 35.288 22.941zm.988-49.37c-8.396-8.873-21.225-14.312-38.993-14.312-26.905 0-51.579 13.576-51.579 41.21 0 28.633 23.934 36.03 52.07 38.504 21.215 1.97 36.28 4.44 36.28 14.798 0 6.688-8.647 12.113-23.21 12.113-11.585 0-24.92-5.19-27.87-16.045h-32.582c3.205 24.17 26.407 42.198 59.713 42.198 51.581 0 55.533-33.326 55.533-43.446v-66.13c0-6.175 1.976-15.793 3.705-20.726h-29.863c-1.479 3.21-2.466 7.161-3.204 11.835M359.895 239.68c-37.268-3.937-57.011 18.516-57.011 53.316v44.66h-15.302v28.888h15.302v32.325h32.582v-32.325h22.945v-28.887h-22.945V292.75c0-17.774 8.14-24.435 24.429-23.448zM491.184 251.281c-9.137-9.378-24.187-14.805-41.963-14.805-32.078 0-54.778 14.07-58.979 39.988h9.137c4.442-20.492 22.698-31.35 49.61-31.35 15.291 0 28.126 4.944 35.521 12.587 4.443 4.692 6.674 10.853 6.174 17.521-.497 15.551-13.082 23.454-44.172 27.893-21.967 3.204-49.105 6.914-49.599 32.072 0 17.286 16.273 34.561 48.124 34.561 28.126 0 46.638-12.582 52.061-35.536h-9.374c-5.177 17.02-19.733 26.892-42.444 26.892-22.95 0-39.237-11.106-38.99-25.917.25-14.545 13.57-19.25 41.706-23.195 26.41-3.944 50.837-10.853 52.073-36.529.246-8.87-2.723-17.762-8.885-24.182M536.579 239.446h-9.131v127.098h9.131zm0 145.309h-9.131v22.706h9.131zM664.408 251.281c-9.124-9.378-24.183-14.805-41.953-14.805-32.078 0-54.785 14.07-58.974 39.988h9.128c4.443-20.492 22.716-31.35 49.603-31.35 15.304 0 28.136 4.944 35.535 12.587 4.44 4.692 6.66 10.853 6.168 17.521-.494 15.551-13.076 23.454-44.173 27.893-21.96 3.204-49.105 6.914-49.608 32.072 0 17.286 16.295 34.561 48.138 34.561 28.12 0 46.63-12.582 52.07-35.536h-9.384c-5.18 17.02-19.744 26.892-42.445 26.892-22.954 0-39.243-11.106-39-25.917.254-14.545 13.583-19.25 41.713-23.195 26.402-3.944 50.83-10.853 52.073-36.529.25-8.87-2.717-17.762-8.891-24.182M710.31 283.372c0-21.72 10.111-36.53 34.306-35.529v-8.397c-27.393-2.475-43.438 15.552-43.438 43.926V357.4h-17.27v9.144h17.27v27.133h9.131v-27.133h34.307V357.4H710.31zM870.485 312.246c-4.432 27.398-26.886 48.124-53.543 48.124-26.893 0-49.112-20.726-53.305-48.124zm-107.835-9.131c.24-33.072 24.93-57.508 55.767-57.508 29.868 0 43.435 16.539 49.605 33.313h9.63c-8.892-27.373-29.367-42.444-59.235-42.444-36.284 0-64.905 29.134-64.905 66.145 0 37.023 28.38 67.127 63.43 67.127 37.998 0 63.915-34.561 63.428-66.633zM1088.638 239.446h-9.115v81.918c0 22.72-16.556 39.006-39.253 39.006-22.456 0-38.992-16.286-38.992-39.006v-81.918h-9.128v81.918c0 22.72-16.54 39.006-39.234 39.006-22.472 0-39-16.286-39-39.006v-81.918h-9.13v127.098h9.13v-17.28c7.9 12.58 21.726 20.484 39 20.484 20.725 0 37.261-11.114 44.413-28.128 6.667 17.014 22.454 28.128 42.941 28.128 28.131 0 48.368-20.485 48.368-48.384zM1213.747 314.716c-9.865-9.138-28.367-10.854-45.9-12.348-32.58-3.204-45.155-11.84-45.155-29.362 0-20.977 23.686-26.651 36.277-26.651 27.389 0 54.778 12.335 54.778 39.24zm3.464-75.27c-2.23 4.68-3.464 10.613-3.464 18.502v2.47c-10.105-14.31-29.621-23.201-54.778-23.201-22.22 0-46.146 11.113-46.146 35.542 0 28.868 26.883 35.542 54.04 37.999 28.135 2.723 46.884 5.674 46.884 21.226 0 23.44-22.2 28.886-40.955 28.886-23.201 0-38.5-9.637-43.926-26.911h-9.375c5.664 22.7 24.66 35.789 53.3 35.789 31.832 0 50.094-13.83 50.094-37.764V260.17c0-6.408 1.728-15.792 3.716-20.725zM1346.762 251.281c-9.128-9.378-24.18-14.805-41.953-14.805-32.079 0-54.795 14.07-58.99 39.988h9.137c4.44-20.492 22.703-31.35 49.606-31.35 15.292 0 28.12 4.944 35.542 12.587 4.431 4.692 6.658 10.853 6.16 17.521-.48 15.551-13.082 23.454-44.169 27.893-21.956 3.204-49.12 6.914-49.608 32.072 0 17.286 16.292 34.561 48.123 34.561 28.128 0 46.645-12.582 52.072-35.536h-9.368c-5.196 17.02-19.759 26.892-42.453 26.892-22.949 0-39.238-11.106-38.984-25.917.24-14.545 13.567-19.25 41.697-23.195 26.398-3.944 50.84-10.853 52.075-36.529.234-8.87-2.723-17.762-8.887-24.182" fill="#8a8a8c"/></g></svg>