<svg xmlns="http://www.w3.org/2000/svg" width="435.227" height="100.435"><g fill="#10069f" fill-rule="nonzero"><path d="M0 52.71c0 14.793 10.99 26.406 24.955 26.406 5.161 0 9.776-1.283 13.783-3.85l.729-.49v3.301h16.15v-50.55h-16.15v3.178l-.729-.489c-3.947-2.567-8.622-3.85-13.783-3.85C10.93 26.366 0 37.918 0 52.71zm41.531.061c0 8.436-4.797 13.265-13.176 13.265-7.164 0-12.508-5.685-12.508-13.265 0-7.579 5.404-13.325 12.508-13.325 11.901-.06 13.176 9.291 13.176 13.325zM83.73 53.81V27.528H67.58V56.5c0 14.12 8.378 23.227 21.372 23.227 5.04 0 9.411-1.528 13.722-4.89l.79-.61v3.911h16.15v-50.55h-16.15v32.213l-.122.122c-3.097 3.423-6.436 5.257-9.776 5.257-6.253-.061-9.836-4.157-9.836-11.37zM161.814 64.813c-5.465 0-8.501-2.934-8.501-8.252V41.28h17.426V27.466h-17.426V6.683l-16.151 8.374v12.409h-10.018V41.28h10.018v15.77c0 13.692 7.893 22.555 20.098 22.555 4.857 0 8.561-.367 14.997-2.384l-1.76-13.63c-3.705.733-6.315 1.222-8.683 1.222zM204.62 26.366c-15.726 0-26.777 10.88-26.777 26.405 0 15.587 11.294 26.529 27.505 26.529 12.265 0 21.737-6.418 24.288-16.32h-16.03c-1.64 2.383-4.493 3.728-8.075 3.728-6.072 0-10.323-3.056-11.962-8.619l-.182-.61H230c.304-1.835.304-3.79.304-5.686 0-15.036-10.565-25.427-25.684-25.427zm-11.415 21.882l.121-.611c1.397-5.685 5.465-8.985 11.233-8.985 5.89 0 9.654 3.178 10.626 9.046l.121.55zM270.499 25.938c-5.1 0-9.654 1.65-13.844 5.012l-.79.611v-4.034h-16.15v50.55h16.15v-32.03l.122-.121c3.036-3.485 5.526-5.38 9.897-5.38 6.194 0 9.776 4.157 9.776 11.309v26.222h16.212V49.104c0-14.059-8.38-23.166-21.373-23.166zM332.735 64.813c-5.465 0-8.5-2.934-8.5-8.252V41.28h17.425V27.466h-17.426V2.16l-16.15 8.374v16.932h-10.02V41.28h10.02v15.77c0 13.692 7.893 22.555 20.097 22.555 4.857 0 8.561-.367 14.997-2.384l-1.76-13.63c-3.704.733-6.315 1.222-8.683 1.222zM353.199 27.525h16.152v50.55h-16.152zM404.564 26.366c-14.026 0-24.955 11.613-24.955 26.405 0 14.793 10.99 26.406 24.955 26.406 5.161 0 9.776-1.283 13.783-3.85l.729-.49v3.301h16.15v-50.55h-16.15v3.179l-.729-.49c-3.946-2.628-8.622-3.911-13.783-3.911zM421.14 52.77c0 8.436-4.796 13.265-13.176 13.265-7.164 0-12.507-5.685-12.507-13.265 0-7.579 5.403-13.325 12.507-13.325 11.901-.06 13.176 9.291 13.176 13.325zM360.726.02c-4.979.184-9.108 4.34-9.108 9.23 0 2.507.91 4.83 2.672 6.541 1.821 1.834 4.371 2.812 7.164 2.75 5.04-.122 9.29-4.34 9.29-9.168 0-2.567-.971-4.89-2.793-6.602-1.882-1.894-4.493-2.934-7.225-2.75zM239.654 87.09h52.315v13.344h-52.315z"/></g></svg>