<svg xmlns="http://www.w3.org/2000/svg" width="559.16" height="132.32"><path d="M559.159 132.32H0V.006h559.159V132.32" fill="#ec008c"/><path d="M54.381 85.406c-1.292-.096-2.323-.31-3.088-.646-.766-.333-1.351-.765-1.76-1.293-.405-.526-.68-1.172-.825-1.939a14.097 14.097 0 0 1-.215-2.583V37.802l-10.697 1.724v41.573c0 2.01.202 3.816.609 5.42.406 1.604 1.173 2.969 2.298 4.093 1.125 1.125 2.656 2 4.595 2.62 1.939.622 4.462.956 7.574 1.006zm15.544-.323c-1.124-.646-1.687-1.806-1.687-3.482 0-.862.19-1.58.576-2.155.38-.573.907-1.029 1.578-1.365.67-.333 1.448-.56 2.333-.68.885-.119 1.832-.18 2.836-.18.72 0 1.508.048 2.37.143.862.097 1.508.193 1.938.288v8.113c-.573.097-1.339.168-2.298.215a59.75 59.75 0 0 1-3.014.073c-1.965 0-3.508-.324-4.632-.97m.072-30.155c-1.22.12-2.381.262-3.483.43-1.1.168-2.117.359-3.05.575-.934.214-1.712.418-2.333.61l1.364 8.616c1.291-.479 2.824-.851 4.595-1.112a36.597 36.597 0 0 1 5.385-.396c2.727 0 4.642.55 5.744 1.65 1.1 1.102 1.65 2.562 1.65 4.381v1.005c-.67-.19-1.542-.346-2.62-.466a34.03 34.03 0 0 0-3.697-.18c-2.059 0-4.047.204-5.96.61-1.915.407-3.614 1.066-5.097 1.975a10.216 10.216 0 0 0-3.555 3.661c-.887 1.533-1.328 3.4-1.328 5.6 0 2.299.383 4.236 1.148 5.816a9.68 9.68 0 0 0 3.304 3.842c1.436.98 3.145 1.688 5.133 2.119 1.987.43 4.2.644 6.642.644 3.877 0 7.18-.227 9.907-.68 2.73-.455 4.86-.85 6.39-1.186V70.185c0-2.346-.262-4.476-.789-6.391-.528-1.913-1.424-3.542-2.692-4.883-1.269-1.338-2.956-2.369-5.063-3.086-2.106-.719-4.736-1.078-7.898-1.078-1.245 0-2.476.06-3.697.18m32.132 30.3a35.035 35.035 0 0 1-5.602-1.687l-1.795 8.687c.86.385 2.404.861 4.632 1.437 2.226.574 5.012.86 8.364.86 5.123 0 9.083-.956 11.882-2.864 2.8-1.912 4.201-4.73 4.201-8.455 0-1.575-.18-2.96-.539-4.155-.359-1.194-.981-2.28-1.867-3.26-.886-.978-2.094-1.89-3.625-2.735-1.532-.843-3.472-1.701-5.815-2.57-1.151-.432-2.096-.83-2.836-1.194-.744-.36-1.328-.696-1.76-1.009-.43-.31-.72-.635-.862-.97a2.897 2.897 0 0 1-.215-1.148c0-1.867 1.676-2.801 5.024-2.801 1.82 0 3.46.168 4.92.502 1.46.336 2.812.718 4.057 1.15l1.867-8.33c-1.245-.476-2.919-.92-5.026-1.328a34.837 34.837 0 0 0-6.607-.61c-4.593 0-8.208 1.03-10.841 3.089-2.633 2.058-3.95 4.857-3.95 8.4 0 1.82.264 3.374.791 4.666a9.709 9.709 0 0 0 2.227 3.338c.955.934 2.117 1.736 3.48 2.405a48.157 48.157 0 0 0 4.562 1.939c2.152.815 3.756 1.544 4.81 2.192 1.052.644 1.578 1.4 1.578 2.26 0 1.102-.407 1.844-1.22 2.227-.815.382-2.202.574-4.163.574-1.867 0-3.76-.203-5.672-.61m25.702-7.146c0 2.442.226 4.669.682 6.68.455 2.01 1.256 3.722 2.405 5.133 1.15 1.411 2.68 2.512 4.595 3.302 1.915.79 4.332 1.185 7.251 1.185 2.299 0 4.237-.193 5.819-.576a30.17 30.17 0 0 0 4.306-1.363l-1.508-8.328c-1.005.383-2.117.68-3.338.897-1.22.215-2.406.323-3.554.323-2.394 0-3.985-.67-4.774-2.01-.792-1.339-1.186-3.136-1.186-5.384V64.656h12.852v-8.904H138.53V44.623l-10.698 1.724zm50.834 15.438h10.698V72.912c0-1.388-.05-2.69-.143-3.912a16.435 16.435 0 0 0-.645-3.482c.669-.432 1.517-.79 2.549-1.077 1.025-.288 1.83-.43 2.403-.43 2.153 0 3.67.716 4.558 2.153.887 1.436 1.33 3.877 1.33 7.324v20.03h10.697V72.196c0-2.585-.216-4.93-.645-7.036-.434-2.106-1.222-3.925-2.371-5.458-1.148-1.531-2.692-2.714-4.63-3.554-1.94-.837-4.417-1.256-7.433-1.256-1.676 0-3.505.312-5.49.934-1.987.623-3.747 1.483-5.279 2.584-1.099-.956-2.5-1.783-4.197-2.476-1.702-.694-3.915-1.042-6.644-1.042-1.388 0-2.799.06-4.236.179a57.85 57.85 0 0 0-4.202.503 74.935 74.935 0 0 0-7.07 1.472l.001 36.474h10.697V64.368c.67-.095 1.364-.18 2.082-.251.718-.07 1.413-.107 2.082-.107 2.154 0 3.675.717 4.56 2.154.886 1.436 1.328 3.877 1.328 7.324zm48.966-37.767h-10.699V93.52h10.699zm-.896-15.544c-1.268-1.125-2.766-1.687-4.487-1.687-1.724 0-3.221.562-4.49 1.687-1.269 1.125-1.9 2.67-1.9 4.631 0 1.963.631 3.507 1.9 4.63 1.269 1.127 2.766 1.69 4.49 1.69 1.721 0 3.219-.563 4.487-1.69 1.268-1.123 1.901-2.667 1.901-4.63 0-1.962-.633-3.506-1.901-4.631m8.074 53.31h10.699v-29.15c.672-.095 1.437-.18 2.297-.251.864-.07 1.676-.107 2.443-.107 2.49 0 4.187.717 5.099 2.154.905 1.436 1.361 3.877 1.361 7.324v20.03h10.699V72.196c0-2.585-.264-4.93-.79-7.036s-1.412-3.925-2.656-5.458c-1.245-1.531-2.933-2.714-5.062-3.554-2.131-.837-4.798-1.256-8.006-1.256-3.158 0-6.174.228-9.046.682-2.874.455-5.219.946-7.038 1.472zm71.658-37.766h-10.699v29.151c-.672.097-1.435.18-2.299.253-.86.07-1.674.107-2.441.107-2.49 0-4.187-.766-5.099-2.299-.908-1.53-1.361-4.02-1.361-7.466V55.752h-10.701V76.79c0 2.586.264 4.955.792 7.108.526 2.155 1.412 4.009 2.656 5.565 1.245 1.556 2.933 2.764 5.062 3.625 2.131.862 4.798 1.293 8.006 1.293 3.158 0 6.174-.228 9.046-.682 2.874-.454 5.216-.946 7.038-1.472zm6.82 22.33c0 2.441.226 4.668.682 6.678.452 2.01 1.255 3.723 2.403 5.134 1.152 1.411 2.683 2.512 4.597 3.302 1.914.79 4.331 1.185 7.252 1.185 2.298 0 4.235-.193 5.815-.576a30.081 30.081 0 0 0 4.308-1.363l-1.508-8.328c-1.005.383-2.117.68-3.339.897a20.462 20.462 0 0 1-3.552.323c-2.396 0-3.986-.67-4.776-2.01-.789-1.339-1.185-3.136-1.185-5.384V64.656h12.852v-8.904h-12.852V44.623l-10.697 1.724zm28.036 4.596c.792 2.393 2.01 4.463 3.661 6.21 1.652 1.748 3.735 3.123 6.248 4.128 2.513 1.006 5.468 1.508 8.867 1.508 1.341 0 2.68-.071 4.021-.216a50.428 50.428 0 0 0 3.77-.536 30.356 30.356 0 0 0 3.194-.756c.957-.286 1.723-.574 2.296-.86l-1.435-8.69c-1.194.53-2.74.971-4.63 1.329-1.894.361-3.818.539-5.782.539-3.061 0-5.505-.646-7.322-1.939-1.818-1.291-2.85-3.039-3.086-5.24h24.268c.047-.576.094-1.233.143-1.976.048-.74.07-1.423.07-2.045 0-6.366-1.554-11.19-4.666-14.468-3.112-3.278-7.35-4.919-12.708-4.919-2.297 0-4.537.43-6.713 1.293a16.886 16.886 0 0 0-5.779 3.805c-1.677 1.676-3.03 3.77-4.057 6.282-1.032 2.513-1.544 5.446-1.544 8.796 0 2.776.394 5.362 1.184 7.755m9.802-11.848a15.3 15.3 0 0 1 .68-2.692 7.22 7.22 0 0 1 1.331-2.334c.572-.669 1.29-1.207 2.153-1.616.859-.404 1.891-.61 3.086-.61 1.245 0 2.286.216 3.125.647.836.431 1.53.981 2.081 1.652a6.66 6.66 0 0 1 1.222 2.297c.262.86.418 1.748.465 2.656zm39.023 12.1c-1.364-1.126-2.908-1.688-4.632-1.688-1.721 0-3.265.562-4.63 1.687-1.365 1.125-2.047 2.763-2.047 4.918 0 2.154.682 3.794 2.046 4.92 1.366 1.123 2.91 1.686 4.631 1.686 1.724 0 3.268-.563 4.632-1.687 1.365-1.125 2.045-2.765 2.045-4.919 0-2.155-.68-3.793-2.045-4.918m4.953-.43c.743 2.416 1.915 4.511 3.519 6.282 1.601 1.772 3.648 3.172 6.137 4.199 2.491 1.03 5.456 1.544 8.904 1.544 2.251 0 4.308-.19 6.175-.574 1.867-.384 3.421-.837 4.667-1.364l-1.508-8.76c-1.244.528-2.61.91-4.091 1.149-1.485.24-2.873.359-4.164.359-3.641 0-6.19-.933-7.65-2.8-1.46-1.867-2.189-4.5-2.189-7.898 0-3.206.779-5.791 2.334-7.753 1.554-1.964 3.913-2.945 7.072-2.945 1.485 0 2.824.143 4.021.43 1.196.288 2.297.624 3.303 1.007l2.226-8.545a26.848 26.848 0 0 0-4.884-1.544c-1.673-.358-3.517-.539-5.528-.539-3.065 0-5.792.529-8.185 1.58-2.393 1.054-4.43 2.477-6.104 4.273-1.675 1.794-2.956 3.9-3.841 6.317-.886 2.419-1.328 4.99-1.328 7.72 0 2.824.373 5.444 1.114 7.861m67.314-16.047c-.91-2.44-2.18-4.523-3.808-6.246-1.628-1.725-3.579-3.064-5.85-4.022-2.276-.957-4.776-1.436-7.505-1.436-2.679 0-5.159.48-7.43 1.436-2.275.958-4.237 2.297-5.887 4.022-1.651 1.723-2.946 3.805-3.878 6.246-.932 2.442-1.401 5.146-1.401 8.114 0 2.967.456 5.683 1.365 8.15.908 2.464 2.176 4.57 3.804 6.316 1.628 1.748 3.579 3.1 5.855 4.057 2.273.959 4.796 1.436 7.572 1.436 2.827 0 5.376-.477 7.65-1.436 2.273-.957 4.223-2.309 5.85-4.057 1.625-1.746 2.873-3.852 3.732-6.317.863-2.466 1.292-5.182 1.292-8.15 0-2.967-.453-5.671-1.361-8.113m-11.527 15.976c-1.315 1.937-3.193 2.907-5.636 2.907-2.44 0-4.33-.97-5.67-2.907-1.34-1.94-2.011-4.56-2.011-7.862 0-3.302.672-5.899 2.01-7.79 1.34-1.891 3.231-2.837 5.671-2.837 2.443 0 4.321.946 5.636 2.836 1.317 1.892 1.976 4.489 1.976 7.79 0 3.303-.659 5.924-1.976 7.863m39.027 11.092h10.694V72.912c0-1.388-.046-2.69-.14-3.912-.1-1.22-.313-2.38-.649-3.482.67-.432 1.521-.79 2.55-1.077 1.029-.288 1.83-.43 2.406-.43 2.153 0 3.672.716 4.56 2.153.883 1.436 1.325 3.877 1.325 7.324v20.03h10.7V72.196c0-2.585-.216-4.93-.648-7.036-.429-2.106-1.218-3.925-2.366-5.458-1.15-1.531-2.694-2.714-4.634-3.554-1.937-.837-4.413-1.256-7.429-1.256-1.677 0-3.508.312-5.492.934-1.987.623-3.748 1.483-5.279 2.584-1.101-.956-2.5-1.783-4.201-2.476-1.697-.694-3.91-1.042-6.64-1.042-1.388 0-2.803.06-4.237.179-1.438.12-2.836.287-4.2.503a71.57 71.57 0 0 0-3.878.718 76.13 76.13 0 0 0-3.196.754v36.474h10.7V64.368c.67-.095 1.366-.18 2.082-.251.718-.07 1.412-.107 2.084-.107 2.153 0 3.67.717 4.557 2.154.885 1.436 1.33 3.877 1.33 7.324v20.03" fill="#fff"/></svg>