<?xml version="1.0" encoding="UTF-8" standalone="no"?>
<svg
   xmlns:dc="http://purl.org/dc/elements/1.1/"
   xmlns:cc="http://creativecommons.org/ns#"
   xmlns:rdf="http://www.w3.org/1999/02/22-rdf-syntax-ns#"
   xmlns:svg="http://www.w3.org/2000/svg"
   xmlns="http://www.w3.org/2000/svg"
   viewBox="0 0 1933.4933 433.21332"
   height="433.21332"
   width="1933.4933"
   xml:space="preserve"
   id="svg2"
   version="1.1"><metadata
     id="metadata8"><rdf:RDF><cc:Work
         rdf:about=""><dc:format>image/svg+xml</dc:format><dc:type
           rdf:resource="http://purl.org/dc/dcmitype/StillImage" /><dc:title></dc:title></cc:Work></rdf:RDF></metadata><defs
     id="defs6" /><g
     transform="matrix(1.3333333,0,0,-1.3333333,0,433.21333)"
     id="g10"><g
       transform="scale(0.1)"
       id="g12"><path
         id="path14"
         style="fill:#231f20;fill-opacity:1;fill-rule:nonzero;stroke:none"
         d="m 14321.7,405.422 c -82.5,0 -147.7,66.457 -147.7,152.996 0,87.152 65.2,153.91 147.7,153.91 82.3,0 147.5,-66.758 147.5,-153.91 0,-86.539 -65.2,-152.996 -147.5,-152.996 z m 0,332.648 c -99,0 -179.6,-76.742 -179.6,-179.652 0,-101.727 80.6,-179.359 179.6,-179.359 97.8,0 179.5,77.632 179.5,179.359 0,102.91 -81.7,179.652 -179.5,179.652 z m -3.7,-167.64 h -32.5 v 67.8 h 41.5 c 21.6,0 46.5,-3.519 46.5,-32.48 0,-33.988 -27.6,-35.32 -55.5,-35.32 z m 87.7,33.648 c 0,40.121 -23.6,59.981 -73.1,59.981 h -79.8 v -210.34 h 32.7 v 90.609 h 33.3 l 57.6,-90.609 h 34.1 l -60.2,93.062 c 31,3.367 55.4,19.008 55.4,57.297" /><path
         id="path16"
         style="fill:#231f20;fill-opacity:1;fill-rule:nonzero;stroke:none"
         d="m 5098.24,577.84 h -731.89 v 2137.99 c 0,33.62 3.97,69.64 11.72,106.93 l 9.82,47.31 H 4039.6 l 9.79,-47.31 c 7.78,-37.37 11.67,-73.38 11.67,-106.93 V 526.16 c 0,-31.058 -3.89,-64.43 -11.49,-99.281 l -10.6,-47.82 H 5239.33 V 603.34 l -50.35,-14.602 c -24.76,-7.269 -55.38,-10.898 -90.74,-10.898" /><path
         id="path18"
         style="fill:#231f20;fill-opacity:1;fill-rule:nonzero;stroke:none"
         d="M 5820.62,531.488 V 2717.63 c 0,44.13 3.63,78.27 10.74,101.71 l 15.65,50.73 h -353.52 l 10.24,-47.57 c 7.71,-36.09 11.56,-71.38 11.56,-104.87 V 531.488 c 0,-33.5 -3.85,-68.758 -11.56,-104.91 l -10.09,-47.519 h 353.37 l -15.65,50.859 c -7.11,23.203 -10.74,57.461 -10.74,101.57" /><path
         id="path20"
         style="fill:#231f20;fill-opacity:1;fill-rule:nonzero;stroke:none"
         d="m 6340.28,2822.5 c 7.79,-36.09 11.72,-70.79 11.72,-103.18 V 531.488 c 0,-33.5 -3.93,-68.758 -11.72,-104.91 l -10.08,-47.519 h 348.92 l -10.23,47.519 c -7.79,36.113 -11.64,71.371 -11.64,104.91 V 1557.86 h 608.79 c 43.88,0 81.63,-3.7 111.8,-11.19 l 48.79,-11.98 v 223 l -48.05,-10.86 c -38.48,-8.73 -75.18,-13.17 -109.14,-13.17 h -612.19 v 949.88 h 701.46 c 42.85,0 85.26,-3.34 125.75,-10.02 l 45.68,-7.52 v 204.07 H 6330.2 l 10.08,-47.57" /><path
         id="path22"
         style="fill:#231f20;fill-opacity:1;fill-rule:nonzero;stroke:none"
         d="m 8859.44,1744.33 h -721.19 v 939.21 h 747.96 c 32.26,0 64.06,-5.17 94.45,-15.53 l 51.91,-17.7 v 219.76 H 7807.21 l 14.82,-50.44 c 7.35,-24.61 10.9,-59.54 10.9,-103.8 V 531.488 c 0,-33.129 -2.89,-69.25 -8.45,-107.238 l -6.75,-45.191 H 9034.42 V 602.23 l -45.38,-7.109 c -82.66,-12.91 -114.62,-16.551 -124.19,-17.281 h -726.6 v 990.55 h 724.68 c 53.53,0 95.57,-2.67 125,-8.08 l 46.49,-8.6 v 223.39 l -50.34,-14.68 c -36.78,-10.73 -78.67,-16.09 -124.64,-16.09" /><path
         id="path24"
         style="fill:#231f20;fill-opacity:1;fill-rule:nonzero;stroke:none"
         d="m 9735.29,2683.54 h 169.57 c 168.34,0 298.94,-31.45 388.14,-93.63 62.1,-43.12 111.1,-100.61 146.1,-170.82 35.1,-70.77 53,-148.68 53,-231.7 0,-185.57 -75.3,-319 -229.9,-407.51 -95.9,-54.07 -204,-81.48 -321.59,-81.48 H 9735.29 Z M 12366.3,1374.95 h -815.5 l 399.9,1105.38 z M 13015,524.012 12174.4,2784.04 c -5.1,13.76 -9.3,31.5 -12.4,52.68 l -5.1,33.35 h -275.2 l -4.6,-33.9 c -5.3,-38.71 -10.4,-56.91 -14.1,-66.31 L 11053,524.75 c -4.8,-12.309 -12.2,-28.539 -21.4,-47.969 -23.5,17.391 -44,35.071 -60.3,52.68 L 10070.5,1534.8 c 222.7,24.11 397.8,87.45 521.5,188.38 141,115.04 212.5,275.98 212.5,478.36 0,137.37 -39.1,261.72 -116.2,369.21 -69.3,97.44 -163.3,171.55 -278.9,220.11 -122.3,52.53 -263.6,79.21 -420.68,79.21 h -580.61 l 10.23,-47.57 c 7.7,-36.09 11.71,-71.38 11.71,-104.87 V 531.5 c 0,-33.512 -4.01,-68.77 -11.71,-104.922 l -10.16,-47.519 h 348.84 l -10.15,47.519 c -7.64,36.043 -11.58,71.332 -11.58,104.922 v 932.09 L 10600,489.691 c 29.5,-33.601 50.2,-63.113 61.7,-87.863 l 10.6,-22.769 h 310.5 200.1 41.3 l 1.1,38.179 c 1.2,45.973 6.3,68.774 10.1,79.633 l 256.6,702.169 h 946.5 l 257.9,-701.239 c 9.6,-28.77 15.6,-56.531 17.7,-82.641 l 2.9,-36.101 h 383.1 l -38.7,60.582 c -23.5,36.39 -39.1,64.828 -46.4,84.371" /><path
         id="path26"
         style="fill:#231f20;fill-opacity:1;fill-rule:nonzero;stroke:none"
         d="m 14246.4,2870.07 -8.6,-27.68 c -8.8,-28.23 -20.5,-56.37 -34.6,-83.28 l -554.1,-1035.74 -541.8,1027.86 c -29.6,58.33 -37.7,81.17 -40,89.59 l -7.8,29.25 h -383.2 l 48.8,-63.32 c 14,-18.33 30.9,-46.06 50,-82.82 l 654,-1231.98 V 531.5 c 0,-33.59 -3.8,-68.879 -11.6,-104.922 l -10.2,-47.519 h 349 l -10.1,47.519 c -7.8,36.043 -11.7,71.332 -11.7,104.922 v 960.37 l 662.6,1242.12 c 13.6,24.38 29.5,49.12 47.3,73.48 l 46.1,62.6 h -244.1" /><path
         id="path28"
         style="fill:#918f90;fill-opacity:1;fill-rule:nonzero;stroke:none"
         d="M 143.063,0 C 64.1758,0 0,64.1719 0,143.07 v 2962.99 c 0,78.89 64.1758,143.06 143.063,143.06 H 3106.04 c 78.89,0 143.07,-64.17 143.07,-143.06 V 143.07 C 3249.11,64.1719 3184.93,0 3106.04,0 H 143.063" /><path
         id="path30"
         style="fill:#ffffff;fill-opacity:1;fill-rule:nonzero;stroke:none"
         d="m 3194.94,143.07 c 0,-48.9098 -40,-88.9098 -88.9,-88.9098 H 143.063 c -48.8989,0 -88.8989,40 -88.8989,88.9098 v 2962.99 c 0,48.9 40,88.9 88.8989,88.9 H 3106.04 c 48.9,0 88.9,-40 88.9,-88.9 V 143.07" /><path
         id="path32"
         style="fill:#132036;fill-opacity:1;fill-rule:nonzero;stroke:none"
         d="M 920.582,2328.54 H 379.059 v 541.53 h 541.523 v -541.53" /><path
         id="path34"
         style="fill:#22376a;fill-opacity:1;fill-rule:nonzero;stroke:none"
         d="m 1570.41,2328.54 h -541.52 v 541.53 h 541.52 v -541.53" /><path
         id="path36"
         style="fill:#81b5e5;fill-opacity:1;fill-rule:nonzero;stroke:none"
         d="m 2220.24,2328.54 h -541.52 v 541.53 h 541.52 v -541.53" /><path
         id="path38"
         style="fill:#81b5e5;fill-opacity:1;fill-rule:nonzero;stroke:none"
         d="M 920.566,1570.43 V 1028.89 H 379.059 v 541.54 h 541.507" /><path
         id="path40"
         style="fill:#22376a;fill-opacity:1;fill-rule:nonzero;stroke:none"
         d="M 920.566,2220.26 V 1678.71 H 379.059 v 541.55 h 541.507" /><path
         id="path42"
         style="fill:#81b5e5;fill-opacity:1;fill-rule:nonzero;stroke:none"
         d="m 1570.39,2220.26 v -541.55 h -541.5 v 541.55 h 541.5" /><path
         id="path44"
         style="fill:#22376a;fill-opacity:1;fill-rule:nonzero;stroke:none"
         d="m 1678.7,920.602 h 541.52 V 379.059 H 1678.7 v 541.543" /><path
         id="path46"
         style="fill:#132036;fill-opacity:1;fill-rule:nonzero;stroke:none"
         d="m 2328.53,920.602 h 541.52 V 379.059 h -541.52 v 541.543" /><path
         id="path48"
         style="fill:#81b5e5;fill-opacity:1;fill-rule:nonzero;stroke:none"
         d="m 1028.87,920.602 h 541.52 V 379.059 h -541.52 v 541.543" /><path
         id="path50"
         style="fill:#81b5e5;fill-opacity:1;fill-rule:nonzero;stroke:none"
         d="m 2328.54,1678.7 v 541.54 h 541.51 V 1678.7 h -541.51" /><path
         id="path52"
         style="fill:#22376a;fill-opacity:1;fill-rule:nonzero;stroke:none"
         d="m 2328.54,1028.85 v 541.54 h 541.51 v -541.54 h -541.51" /><path
         id="path54"
         style="fill:#81b5e5;fill-opacity:1;fill-rule:nonzero;stroke:none"
         d="m 1678.72,1028.85 v 541.54 h 541.5 v -541.54 h -541.5" /></g></g></svg>