<svg xmlns="http://www.w3.org/2000/svg" height="377.953" width="377.953"><defs><clipPath id="a" clipPathUnits="userSpaceOnUse"><path d="M0 283.465h283.465V0H0z"/></clipPath></defs><path d="M0 377.953h377.953V0H0z" fill="#ff7900"/><g clip-path="url(#a)" transform="matrix(1.33333 0 0 -1.33333 0 377.953)"><path d="M96.648 35.74c0-2.643 1.674-5.123 4.687-5.123 3.26 0 6.44 1.358 9.617 4.153v9.346c-9.702-1.208-14.304-3.698-14.304-8.375m14.556-8.294c-4.016-2.644-8.364-3.924-13.05-3.924-7.361 0-11.712 4.898-11.712 11.464 0 8.83 8.115 13.509 24.845 15.394v2.199c0 2.869-2.174 4.53-6.192 4.53-4.014 0-7.276-1.588-9.617-4.53l-7.027 3.999c3.682 5.133 9.285 7.699 16.816 7.699 10.287 0 16.058-4.451 16.058-11.698 0 0-.015-28.53.01-28.604h-9.21zM129.535 62.398l8.591 1.186.947-4.681c4.85 3.549 8.7 5.438 13.552 5.438 8.113 0 12.298-4.303 12.298-12.832V24.036h-10.376v25.663c0 4.83-1.252 7.018-5.018 7.018-3.096 0-6.19-1.433-9.704-4.38V24.037h-10.29zM241.467 48.941c0 5.285-3.011 8.38-7.95 8.38-4.68 0-7.61-3.02-8.027-8.38zm-7.781-25.658c-11.625 0-18.57 7.47-18.57 20.453 0 13.133 7.027 20.604 18.402 20.604 11.377 0 18.153-7.247 18.153-20.08 0-.678-.084-1.356-.084-2.035h-26.264c.082-7.473 3.179-11.245 9.287-11.245 3.928 0 6.523 1.585 8.949 5.054l7.61-4.223c-3.345-5.586-9.367-8.528-17.483-8.528M34.887 55.715c-7.75 0-9.183-6.99-9.183-12.044 0-5.058 1.433-12.045 9.183-12.045 7.752 0 9.188 6.987 9.188 12.045 0 5.054-1.436 12.044-9.188 12.044m0-32.863c-10.262 0-19.518 6.544-19.518 20.819 0 14.276 9.256 20.819 19.518 20.819 10.264 0 19.519-6.543 19.519-20.819 0-14.275-9.255-20.819-19.519-20.819M61.526 63.455h9.87v-4.642c1.879 2.5 6.527 5.451 10.875 5.451.418 0 .918 0 1.339-.074v-9.738h-.502c-4.517 0-9.455-.696-11.042-4.206V24.004h-10.54zM208.855 63.598V26.24c0-6.595-.5-17.443-19.302-17.563-7.758-.049-14.944 3.051-16.384 9.824l10.248 1.65c.43-1.938 1.615-3.874 7.427-3.874 5.382 0 7.965 2.58 7.965 8.744v4.59l-.143.142c-1.649-2.94-4.16-5.734-10.189-5.734-9.186 0-16.434 6.377-16.434 19.713 0 13.19 7.462 20.572 15.857 20.587 7.865.011 10.794-3.575 11.46-5.463l-.12.021.851 4.721zm-18.513-31.12c7.88.06 8.541 8.071 8.541 13.305 0 6.162-3.016 11.182-8.613 11.182-3.733 0-7.892-2.724-7.892-11.61 0-4.877.344-12.936 7.964-12.877M272.741 65.38h-2.154v10.883h-.066l-4.27-10.884h-1.36l-4.27 10.884h-.063V65.38h-2.15v13.035h3.32l3.892-9.9 3.827 9.9h3.295zm-16.994 11.295h-4.082V65.38h-2.15v11.296h-4.082v1.74h10.314z" fill="#fff"/></g></svg>