<svg xmlns="http://www.w3.org/2000/svg" height="62.871" width="261.024"><defs><clipPath id="a" clipPathUnits="userSpaceOnUse"><path d="M0 207h389V0H0z"/></clipPath></defs><path d="M18.048 20.005H0V1.97h18.048z" fill="#ed2044"/><path d="M18.048 41.407H0v-18.03h18.048z" fill="#100f0d"/><path d="M18.048 62.838H0V44.806h18.048zM39.572 20.038h-18.05V2.003h18.05z" fill="#abaaaf"/><path d="M39.572 41.437h-18.05V23.406h18.05z" fill="#ed2044"/><path d="M39.572 62.871h-18.05V44.834h18.05zM60.5 20.635l-17.82-2.819L45.492 0 63.32 2.827z" fill="#100f0d"/><path d="M60.955 41.35H42.904V23.31h18.05z" fill="#abaaaf"/><path d="M60.955 62.871H42.904V44.834h18.05z" fill="#ed2044"/><g clip-path="url(#a)" transform="matrix(1.33333 0 0 -1.33333 -125.145 161.053)"><path d="M171.16 94.655a8.663 8.663 0 0 0-.85-2.695 5.557 5.557 0 0 0-1.817-2.08c-.793-.555-1.837-.833-3.143-.833-1.303 0-2.349.278-3.143.834a5.906 5.906 0 0 0-1.843 2.079 8.373 8.373 0 0 0-.876 2.695c-.138.96-.209 1.85-.209 2.667 0 1.002.066 1.989.19 2.97.12.978.384 1.865.79 2.667.404.795 1.01 1.43 1.821 1.912.81.48 1.898.72 3.27.72 1.306 0 2.35-.275 3.143-.831a5.553 5.553 0 0 0 1.817-2.083 8.631 8.631 0 0 0 .85-2.691c.14-.966.211-1.852.211-2.664 0-.816-.07-1.707-.21-2.667m6.15 7.72c-.37 1.44-.843 2.69-1.423 3.746-.58 1.05-1.253 1.933-2.007 2.638-.76.703-1.527 1.277-2.299 1.717-1.829 1.04-3.912 1.593-6.232 1.672-2.215 0-4.099-.345-5.652-1.031-1.544-.684-2.82-1.665-3.822-2.944-1.003-1.274-1.737-2.831-2.192-4.662-.458-1.831-.689-3.914-.689-6.25v-23.32h6.284v12.555c.343-.5.71-.924 1.106-1.28.921-.816 1.818-1.407 2.695-1.78a10.572 10.572 0 0 1 3.17-.721c2.181.039 4.118.556 5.806 1.557a10.971 10.971 0 0 1 2.136 1.69c.69.689 1.303 1.545 1.851 2.585.548 1.038.984 2.275 1.321 3.717.334 1.446.498 3.127.498 5.058 0 1.919-.18 3.61-.55 5.053M180.815 103.206c0 1.921.387 3.433 1.163 4.524.776 1.09 1.618 1.913 2.535 2.471 1.09.667 2.32 1.073 3.698 1.222h7.388v-6.717h-4.96c-.707 0-1.278-.129-1.72-.39-.439-.259-.779-.536-1.025-.832a3.14 3.14 0 0 1-.577-1.222V83.27h-6.502zM210.594 105.591c-1.302 0-2.352-.275-3.143-.832a5.704 5.704 0 0 1-1.824-2.082 8.689 8.689 0 0 1-.842-2.69 19.01 19.01 0 0 1-.214-2.666c0-.815.076-1.707.214-2.667a8.704 8.704 0 0 1 .842-2.695 5.719 5.719 0 0 1 1.824-2.079c.79-.556 1.84-.833 3.143-.833 1.3 0 2.35.277 3.14.833a5.617 5.617 0 0 1 1.82 2.08c.429.831.71 1.731.847 2.694.139.96.209 1.852.209 2.667 0 .813-.07 1.698-.21 2.665a8.412 8.412 0 0 1-.845 2.691 5.602 5.602 0 0 1-1.82 2.082c-.791.557-1.84.832-3.141.832m-12.517-8.27c0 1.92.18 3.61.53 5.053.354 1.441.818 2.692 1.4 3.747.583 1.05 1.247 1.933 2.009 2.637.754.704 1.517 1.278 2.295 1.717 1.83 1.042 3.927 1.594 6.283 1.672 2.325-.078 4.394-.63 6.228-1.672.774-.439 1.54-1.013 2.3-1.717.753-.704 1.42-1.587 2.006-2.637.579-1.055 1.05-2.306 1.425-3.747.369-1.443.55-3.134.55-5.053 0-1.93-.181-3.61-.55-5.057-.375-1.443-.846-2.68-1.425-3.718-.585-1.039-1.253-1.896-2.005-2.584a13.53 13.53 0 0 0-2.301-1.69c-1.834-1.002-3.903-1.519-6.228-1.558-2.356.04-4.453.556-6.283 1.558a13.075 13.075 0 0 0-2.295 1.69c-.762.688-1.426 1.545-2.008 2.584-.583 1.038-1.047 2.275-1.4 3.718-.35 1.446-.531 3.127-.531 5.057M238.044 109.426v-6.276H232.5V83.27h-6.281v29.262c0 1.923.379 3.434 1.133 4.523.76 1.097 1.595 1.92 2.507 2.471 1.096.67 2.327 1.076 3.698 1.225h7.39v-6.272h-4.961c-.842 0-1.498-.153-1.96-.446-.45-.298-.803-.633-1.047-.999-.285-.409-.443-.887-.48-1.444v-2.164zM250.664 83.271h-6.441v28.153h6.441zM261.066 83.271h-6.441v37.481h6.441zM282.707 100.932c-.176.587-.39 1.179-.658 1.776a5.84 5.84 0 0 1-1.08 1.607 4.999 4.999 0 0 1-1.639 1.14c-.635.273-1.371.419-2.219.419-.841 0-1.585-.146-2.216-.42a4.94 4.94 0 0 1-1.635-1.14 6.224 6.224 0 0 1-1.108-1.606 9.414 9.414 0 0 1-.64-1.776zm6.654 0c.07-.561.133-1.132.184-1.724a20.15 20.15 0 0 0 .082-1.886V96.32h-18.483a47.57 47.57 0 0 1 .266-1.916 9.019 9.019 0 0 1 .529-1.915c.385-.968.986-1.811 1.797-2.556.811-.738 1.932-1.11 3.375-1.11 1.448 0 2.571.372 3.381 1.11.812.745 1.408 1.588 1.793 2.556h6.863c-.283-1.302-.673-2.427-1.188-3.39-.507-.96-1.069-1.794-1.688-2.496a9.722 9.722 0 0 0-1.974-1.75 14.131 14.131 0 0 0-2.066-1.138 13.31 13.31 0 0 0-5.121-1.001c-2.355.039-4.45.556-6.279 1.557a13.276 13.276 0 0 0-2.296 1.69c-.761.689-1.429 1.545-2.007 2.585-.58 1.038-1.046 2.275-1.402 3.718-.354 1.445-.527 3.126-.527 5.057 0 1.919.173 3.61.527 5.053.356 1.44.822 2.69 1.402 3.746.578 1.05 1.246 1.934 2.007 2.638.756.703 1.521 1.277 2.296 1.717 1.829 1.04 3.924 1.593 6.279 1.672 1.937-.08 3.748-.504 5.442-1.28a12.828 12.828 0 0 0 2.136-1.305 10.508 10.508 0 0 0 2.005-2c.616-.795 1.163-1.74 1.638-2.831.478-1.092.816-2.357 1.029-3.8" fill="#100f0d"/><path d="M250.32 120.418c-.195.184-.51.287-.95.308-.44.016-1.085.026-1.929.026-.842 0-1.488-.01-1.922-.025-.447-.022-.763-.125-.96-.31-.186-.18-.292-.481-.309-.891a41.265 41.265 0 0 1-.028-1.832c0-.81.008-1.421.028-1.831.017-.408.123-.702.308-.884.198-.188.514-.291.961-.306.434-.02 1.08-.03 1.922-.03.844 0 1.488.01 1.928.03.44.015.756.118.95.306.192.182.304.476.317.884.017.41.028 1.02.028 1.83 0 .819-.01 1.43-.028 1.833-.013.41-.125.71-.317.892" fill="#ed2044"/></g></svg>