<svg xmlns="http://www.w3.org/2000/svg" height="310.317" width="770.242"><defs><clipPath id="a" clipPathUnits="userSpaceOnUse"><path d="M0 595.28h841.89V0H0z"/></clipPath></defs><g clip-path="url(#a)" transform="matrix(1.33333 0 0 -1.33333 -176.14 552.012)"><path d="M175.84 356.415c-2.857 3.906-6.763 5.977-11.723 6.208-1.746.08-3.464-.253-5.156-1.003-1.692-.75-2.586-2.136-2.68-4.155-.077-1.653.716-2.911 2.38-3.77 1.661-.86 3.788-1.65 6.38-2.368 2.59-.72 5.36-1.493 8.312-2.32a31.771 31.771 0 0 0 8.255-3.63c2.548-1.591 4.612-3.69 6.194-6.295 1.582-2.604 2.273-6.02 2.076-10.243-.2-4.318-1.308-7.833-3.32-10.547a21.69 21.69 0 0 0-7.548-6.412c-3.02-1.564-6.38-2.603-10.086-3.12a58.904 58.904 0 0 0-10.932-.525c-4.683.218-9.383 1.105-14.096 2.658-4.715 1.552-8.646 4.106-11.792 7.66l13.185 13.33c1.817-2.48 3.867-4.392 6.152-5.74 2.284-1.35 4.986-2.097 8.11-2.243 2.39-.111 4.562.133 6.523.732 1.962.6 2.985 1.815 3.071 3.653.081 1.745-.709 3.094-2.367 4.046-1.659.95-3.782 1.786-6.372 2.506-2.59.718-5.362 1.493-8.313 2.32a34.743 34.743 0 0 0-8.26 3.492c-2.552 1.499-4.622 3.55-6.202 6.156-1.584 2.605-2.273 6.02-2.076 10.246.184 3.947 1.144 7.308 2.885 10.08 1.74 2.772 3.96 5.016 6.664 6.732 2.704 1.713 5.774 2.929 9.214 3.644 3.437.712 6.901.989 10.393.826 4.407-.205 8.832-1.056 13.272-2.55 4.441-1.497 8.147-3.971 11.115-7.421zM211.75 275.266h-6.852V413.18h6.852zM229.228 376.772h19.86v-9.103h.274c.644 1.288 1.565 2.573 2.76 3.863 1.194 1.285 2.62 2.434 4.275 3.447 1.655 1.01 3.54 1.838 5.655 2.483 2.114.64 4.412.965 6.896.965 5.24 0 9.468-.806 12.686-2.413 3.22-1.61 5.726-3.841 7.517-6.688 1.794-2.853 3.012-6.208 3.657-10.07.64-3.86.965-8.045.965-12.55v-36.961h-20.688v32.824c0 1.93-.07 3.93-.207 6-.138 2.069-.55 3.976-1.24 5.724-.692 1.744-1.749 3.17-3.172 4.274-1.429 1.103-3.472 1.656-6.139 1.656-2.668 0-4.827-.484-6.48-1.45-1.656-.964-2.922-2.252-3.795-3.861-.875-1.61-1.448-3.425-1.724-5.448a47.208 47.208 0 0 1-.413-6.343v-33.376h-20.687zM382.624 315.4c0-12.688-3.197-22.318-9.585-28.893-6.393-6.573-16.115-9.861-29.171-9.861-5.977 0-11.86.669-17.654 2-5.791 1.333-11.125 3.93-15.997 7.793l11.448 17.1c3.217-2.666 6.596-4.78 10.138-6.344 3.537-1.562 7.424-2.344 11.654-2.344 6.343 0 11.007 1.54 13.997 4.62 2.986 3.08 4.482 7.01 4.482 11.792v6.482h-.276c-2.393-3.22-5.357-5.496-8.894-6.827-3.542-1.333-6.875-2-10.001-2-4.964 0-9.471.849-13.515 2.552-4.047 1.7-7.518 4.09-10.412 7.17-2.897 3.079-5.127 6.735-6.688 10.965-1.565 4.228-2.346 8.873-2.346 13.929 0 4.414.71 8.735 2.139 12.965 1.424 4.228 3.446 7.95 6.067 11.17 2.619 3.218 5.813 5.815 9.585 7.793 3.77 1.976 8.045 2.965 12.827 2.965 2.942 0 5.63-.324 8.067-.965 2.436-.645 4.62-1.472 6.55-2.482 1.93-1.014 3.588-2.138 4.965-3.38 1.38-1.24 2.484-2.461 3.312-3.655h.275v8.827h19.033zm-52.132 28.272c0-2.206.412-4.3 1.24-6.275.829-1.978 2-3.724 3.517-5.24a18.188 18.188 0 0 1 5.24-3.655c1.976-.92 4.16-1.38 6.55-1.38 2.298 0 4.46.46 6.485 1.38a17.935 17.935 0 0 1 5.31 3.655 16.207 16.207 0 0 1 3.517 5.24 16.13 16.13 0 0 1 1.24 6.275 16.138 16.138 0 0 1-4.757 11.516 17.95 17.95 0 0 1-5.31 3.654c-2.024.919-4.187 1.38-6.484 1.38-2.391 0-4.575-.461-6.551-1.38a18.205 18.205 0 0 1-5.24-3.654 16.193 16.193 0 0 1-3.516-5.24c-.83-1.978-1.241-4.07-1.241-6.276M467.611 309.745h-19.86v9.103h-.274c-.739-1.29-1.678-2.576-2.827-3.863-1.15-1.288-2.553-2.437-4.208-3.448-1.655-1.011-3.54-1.838-5.654-2.482-2.116-.641-4.413-.965-6.897-.965-5.24 0-9.494.806-12.756 2.413-3.265 1.608-5.793 3.839-7.584 6.69-1.794 2.849-2.99 6.206-3.587 10.067-.6 3.86-.895 8.045-.895 12.55v36.962h20.685v-32.824c0-1.931.07-3.931.207-6 .14-2.07.551-3.978 1.242-5.724.69-1.746 1.747-3.171 3.172-4.274 1.425-1.103 3.47-1.656 6.137-1.656 2.666 0 4.827.484 6.484 1.45 1.654.964 2.915 2.25 3.793 3.86.871 1.608 1.446 3.425 1.72 5.449.278 2.02.414 4.137.414 6.343v33.376h20.688zM486.403 414.009h20.687V309.746h-20.687zM567.945 318.158h-.276c-2.3-3.585-5.357-6.161-9.172-7.722-3.816-1.563-7.84-2.345-12.07-2.345-3.124 0-6.134.437-9.03 1.31-2.897.873-5.448 2.182-7.655 3.93-2.206 1.746-3.954 3.908-5.242 6.482-1.288 2.573-1.928 5.56-1.928 8.964 0 3.863.71 7.124 2.135 9.793a19.158 19.158 0 0 0 5.793 6.62c2.436 1.746 5.218 3.103 8.345 4.068a60.98 60.98 0 0 0 9.722 2.138 93.54 93.54 0 0 0 10.067.828c3.356.089 6.46.137 9.31.137 0 3.676-1.31 6.596-3.93 8.757-2.62 2.16-5.724 3.242-9.31 3.242-3.402 0-6.504-.714-9.308-2.137-2.807-1.427-5.311-3.38-7.517-5.862l-11.033 11.309c3.86 3.585 8.364 6.275 13.515 8.067a48.299 48.299 0 0 0 15.997 2.69c6.069 0 11.057-.758 14.966-2.275 3.906-1.517 7.033-3.747 9.378-6.69 2.345-2.943 3.976-6.55 4.897-10.825.916-4.276 1.377-9.22 1.377-14.827v-34.064h-19.031zm-5.103 20.963c-1.566 0-3.517-.07-5.863-.206a29.796 29.796 0 0 1-6.757-1.173c-2.162-.645-3.998-1.61-5.516-2.896-1.516-1.29-2.276-3.08-2.276-5.38 0-2.482 1.055-4.322 3.173-5.516 2.113-1.196 4.319-1.793 6.619-1.793 2.02 0 3.977.276 5.862.827 1.882.552 3.562 1.333 5.032 2.345a11.327 11.327 0 0 1 3.519 3.862c.873 1.563 1.31 3.4 1.31 5.518v4.412zM603.835 376.772h20.688v-10.757h.275c2.206 4.138 4.827 7.24 7.861 9.309 3.034 2.069 6.85 3.103 11.446 3.103 1.194 0 2.391-.048 3.587-.14a17.766 17.766 0 0 0 3.31-.55v-18.895c-1.47.46-2.919.804-4.344 1.036-1.427.228-2.92.345-4.48.345-3.958 0-7.083-.553-9.38-1.656-2.3-1.103-4.07-2.643-5.31-4.62-1.24-1.978-2.047-4.344-2.414-7.104-.369-2.756-.55-5.791-.55-9.101v-27.997h-20.689z" fill="#04192a"/><path d="M139.867 238.914c0 1.109.38 2.046 1.14 2.808.759.758 1.696 1.139 2.807 1.139s2.047-.381 2.808-1.139c.76-.762 1.141-1.699 1.141-2.808 0-1.113-.381-2.048-1.141-2.808-.761-.761-1.697-1.141-2.808-1.141-1.111 0-2.048.38-2.807 1.141-.76.76-1.14 1.695-1.14 2.808m1.315-16.056h5.264v-40.534h-5.264zM181.189 218.12h-11.58v-26.406c0-1.815.496-3.218 1.49-4.213.995-.994 2.369-1.491 4.123-1.491.995 0 2.004.13 3.028.395 1.022.263 2.002.598 2.939 1.008l.439-4.737a31.463 31.463 0 0 0-3.422-.966c-1.287-.292-2.428-.437-3.423-.437-1.872 0-3.48.278-4.825.833-1.345.555-2.428 1.3-3.245 2.236-.82.936-1.42 2.032-1.8 3.29-.38 1.258-.57 2.618-.57 4.082v26.407h-8.773v4.737h8.774v11.669h5.265v-11.67h11.58zM247.34 188.291c-1.99-2.399-4.24-4.168-6.755-5.309-2.517-1.14-5.236-1.709-8.16-1.709-3.1 0-5.966.526-8.599 1.578-2.632 1.052-4.884 2.53-6.755 4.431-1.872 1.9-3.334 4.152-4.386 6.755-1.053 2.602-1.58 5.455-1.58 8.554 0 3.1.527 5.953 1.58 8.554 1.052 2.602 2.514 4.854 4.386 6.757 1.871 1.899 4.123 3.378 6.755 4.429 2.633 1.054 5.498 1.581 8.6 1.581 2.981 0 5.745-.615 8.29-1.842 2.544-1.229 4.811-2.955 6.8-5.178l-4.213-3.158c-1.52 1.695-3.187 3.027-4.999 3.991-1.815.965-3.773 1.449-5.879 1.449-2.456 0-4.68-.439-6.667-1.317-1.99-.876-3.686-2.062-5.089-3.553-1.404-1.491-2.472-3.247-3.203-5.264-.73-2.018-1.097-4.168-1.097-6.449 0-2.281.366-4.429 1.097-6.448.731-2.018 1.8-3.772 3.203-5.265 1.403-1.49 3.098-2.675 5.09-3.553 1.986-.876 4.21-1.315 6.666-1.315 2.222 0 4.254.511 6.098 1.536a15.881 15.881 0 0 1 4.78 4.078zM287.083 199.345c0-1.989.013-3.772.043-5.352.03-1.579.074-3.04.133-4.386.057-1.346.13-2.604.218-3.772.088-1.172.221-2.342.396-3.51h-4.913c-.35 1.987-.528 4.182-.528 6.58h-.176c-1.52-2.63-3.406-4.563-5.657-5.79-2.252-1.229-5.104-1.844-8.555-1.844-1.755 0-3.48.221-5.177.658-1.697.44-3.216 1.141-4.562 2.107-1.345.964-2.442 2.207-3.29 3.73-.849 1.518-1.272 3.362-1.272 5.526 0 3.098.79 5.555 2.37 7.37 1.578 1.812 3.522 3.171 5.833 4.078 2.31.907 4.766 1.493 7.37 1.756 2.603.263 4.898.394 6.887.394h6.142v2.457c0 3.51-1.083 6.024-3.246 7.545-2.165 1.521-4.885 2.281-8.16 2.281-4.68 0-8.803-1.52-12.37-4.562l-3.07 3.598c1.928 1.871 4.327 3.29 7.194 4.254 2.865.965 5.614 1.45 8.246 1.45 4.913 0 8.832-1.157 11.756-3.468 2.924-2.31 4.388-6.04 4.388-11.186zm-10.529 3.334c-2.223 0-4.37-.146-6.448-.439-2.077-.293-3.948-.79-5.616-1.492-1.666-.7-2.997-1.636-3.992-2.806-.994-1.172-1.49-2.632-1.49-4.386 0-1.229.276-2.326.833-3.292a7.29 7.29 0 0 1 2.15-2.369 10.07 10.07 0 0 1 2.938-1.403 11.483 11.483 0 0 1 3.29-.482c2.808 0 5.118.407 6.931 1.228 1.813.82 3.261 1.887 4.343 3.202a11.155 11.155 0 0 1 2.238 4.476 21.08 21.08 0 0 1 .614 5.044v2.72zM301.12 211.453c0 .76-.03 1.68-.088 2.763a116.087 116.087 0 0 0-.131 3.29 97.806 97.806 0 0 1-.132 3.116 39.674 39.674 0 0 0-.086 2.237h5.262c.059-1.522.102-2.985.133-4.388.028-1.403.1-2.311.218-2.72h.264c1.053 2.222 2.807 4.138 5.264 5.747 2.457 1.609 5.322 2.413 8.599 2.413 3.157 0 5.73-.498 7.721-1.491 1.987-.996 3.553-2.297 4.692-3.904 1.14-1.61 1.932-3.467 2.369-5.572a31.73 31.73 0 0 0 .659-6.492v-24.128H330.6v23.865c0 1.637-.148 3.23-.439 4.782-.294 1.548-.806 2.938-1.535 4.168-.733 1.227-1.756 2.206-3.071 2.938-1.317.73-3.028 1.097-5.132 1.097a15.02 15.02 0 0 1-5.485-1.01 11.824 11.824 0 0 1-4.474-3.07c-1.259-1.376-2.252-3.102-2.983-5.177-.733-2.076-1.097-4.517-1.097-7.326v-20.267h-5.264zM371.57 248.653h5.264v-32.901h.176a13.611 13.611 0 0 0 3.071 3.64 18.473 18.473 0 0 0 3.992 2.545 20.014 20.014 0 0 0 4.518 1.49c1.58.321 3.129.484 4.652.484 3.098 0 5.95-.527 8.553-1.58 2.602-1.052 4.855-2.53 6.756-4.43 1.899-1.902 3.377-4.155 4.429-6.756 1.054-2.602 1.58-5.455 1.58-8.554 0-3.1-.526-5.953-1.58-8.554-1.052-2.604-2.53-4.856-4.43-6.756-1.9-1.9-4.153-3.377-6.755-4.43-2.603-1.052-5.455-1.579-8.553-1.579-1.523 0-3.072.161-4.652.482a20.017 20.017 0 0 0-4.517 1.491 18.393 18.393 0 0 0-3.992 2.544 13.611 13.611 0 0 0-3.071 3.641h-.176v-7.106h-5.264zm4.737-46.061c0-2.282.44-4.43 1.317-6.448.877-2.02 2.075-3.774 3.598-5.266 1.52-1.49 3.304-2.674 5.352-3.552 2.046-.877 4.268-1.316 6.669-1.316 2.454 0 4.678.439 6.667 1.316 1.986.878 3.683 2.062 5.087 3.553 1.404 1.492 2.47 3.246 3.202 5.266.732 2.016 1.097 4.165 1.097 6.446 0 2.281-.365 4.431-1.097 6.448-.732 2.019-1.798 3.775-3.202 5.265-1.404 1.493-3.1 2.677-5.088 3.554-1.989.878-4.213 1.316-6.667 1.316-2.4 0-4.623-.438-6.669-1.316-2.047-.877-3.83-2.061-5.35-3.554-1.523-1.49-2.721-3.246-3.598-5.264-.878-2.017-1.317-4.167-1.317-6.448M462.113 189.957c-2.048-3.1-4.576-5.322-7.588-6.667-3.014-1.346-6.332-2.018-9.96-2.018-3.1 0-5.906.527-8.422 1.58-2.514 1.052-4.68 2.53-6.492 4.43-1.813 1.9-3.202 4.151-4.167 6.755-.965 2.602-1.447 5.483-1.447 8.642 0 3.04.495 5.848 1.49 8.423.996 2.573 2.399 4.81 4.212 6.712a19.812 19.812 0 0 0 6.404 4.474c2.458 1.082 5.178 1.623 8.16 1.623 3.099 0 5.834-.54 8.202-1.623 2.37-1.084 4.358-2.516 5.967-4.299a18.263 18.263 0 0 0 3.64-6.097c.82-2.28 1.23-4.594 1.23-6.932v-3.684H429.3c0-1.113.219-2.532.658-4.256.439-1.725 1.243-3.408 2.413-5.044 1.17-1.639 2.733-3.042 4.695-4.212 1.958-1.17 4.488-1.754 7.588-1.754 2.689 0 5.293.643 7.808 1.93 2.514 1.286 4.444 3.04 5.79 5.264zm-4.035 16.056c0 1.812-.366 3.51-1.097 5.09a13.636 13.636 0 0 1-2.983 4.166c-1.26 1.198-2.75 2.15-4.474 2.851a14.399 14.399 0 0 1-5.485 1.054c-2.865 0-5.25-.586-7.15-1.756-1.902-1.17-3.407-2.516-4.518-4.035-1.112-1.52-1.901-2.998-2.37-4.43-.468-1.435-.701-2.413-.701-2.94zM533.353 189.431h-.176a13.666 13.666 0 0 0-3.071-3.64 18.417 18.417 0 0 0-3.992-2.545 20.021 20.021 0 0 0-4.517-1.493 23.469 23.469 0 0 0-4.65-.482c-3.101 0-5.966.527-8.598 1.58-2.633 1.052-4.885 2.53-6.757 4.43-1.871 1.901-3.333 4.153-4.386 6.757-1.052 2.601-1.58 5.452-1.58 8.554 0 3.1.528 5.95 1.58 8.554 1.053 2.601 2.515 4.854 4.386 6.755 1.872 1.9 4.124 3.377 6.757 4.431 2.632 1.052 5.497 1.58 8.598 1.58 1.52 0 3.07-.163 4.65-.484a20.017 20.017 0 0 0 4.517-1.49 18.493 18.493 0 0 0 3.992-2.545 13.697 13.697 0 0 0 3.07-3.64h.177v32.9h5.264v-66.328h-5.264zm.527 13.161c0 2.281-.44 4.431-1.317 6.448a16.522 16.522 0 0 1-3.596 5.264c-1.523 1.491-3.306 2.676-5.352 3.554-2.048.876-4.27 1.315-6.668 1.315-2.458 0-4.68-.439-6.67-1.315-1.987-.878-3.683-2.063-5.087-3.554-1.403-1.492-2.473-3.246-3.202-5.264-.731-2.017-1.097-4.167-1.097-6.448 0-2.28.366-4.43 1.097-6.449.729-2.019 1.799-3.773 3.202-5.264 1.404-1.49 3.1-2.677 5.088-3.553 1.989-.878 4.21-1.317 6.669-1.317 2.398 0 4.62.44 6.668 1.317 2.046.876 3.829 2.062 5.352 3.553a16.5 16.5 0 0 1 3.596 5.264c.878 2.018 1.317 4.168 1.317 6.45M549.233 202.591c0 3.1.527 5.952 1.579 8.554 1.053 2.602 2.515 4.854 4.386 6.757 1.872 1.9 4.125 3.377 6.757 4.43 2.632 1.053 5.497 1.58 8.598 1.58 3.099 0 5.95-.527 8.553-1.58 2.603-1.053 4.855-2.53 6.756-4.43 1.9-1.903 3.378-4.155 4.43-6.757 1.053-2.602 1.58-5.454 1.58-8.554 0-3.1-.527-5.952-1.58-8.554-1.052-2.603-2.53-4.856-4.43-6.755-1.901-1.9-4.153-3.379-6.756-4.43-2.602-1.053-5.454-1.58-8.553-1.58-3.101 0-5.966.527-8.598 1.58-2.632 1.051-4.885 2.53-6.757 4.43-1.871 1.9-3.333 4.152-4.386 6.755-1.052 2.602-1.58 5.454-1.58 8.554m5.265 0c0-2.28.364-4.429 1.097-6.449.729-2.017 1.799-3.77 3.202-5.264 1.404-1.49 3.1-2.675 5.088-3.553 1.988-.876 4.21-1.315 6.669-1.315 2.457 0 4.679.44 6.668 1.315 1.987.878 3.684 2.062 5.088 3.553 1.403 1.493 2.47 3.247 3.202 5.264.73 2.02 1.097 4.168 1.097 6.45 0 2.28-.366 4.43-1.097 6.448-.731 2.017-1.8 3.773-3.202 5.264-1.404 1.491-3.101 2.677-5.088 3.553-1.99.878-4.211 1.317-6.668 1.317-2.458 0-4.681-.439-6.67-1.317-1.987-.876-3.683-2.062-5.087-3.553-1.403-1.49-2.473-3.247-3.202-5.264-.733-2.018-1.097-4.168-1.097-6.449M603.628 211.453c0 .76-.03 1.68-.088 2.763a116.087 116.087 0 0 0-.131 3.29 97.806 97.806 0 0 1-.132 3.116 39.674 39.674 0 0 0-.086 2.237h5.262c.058-1.522.102-2.985.133-4.388.029-1.403.1-2.311.218-2.72h.264c1.053 2.222 2.807 4.138 5.264 5.747 2.457 1.609 5.322 2.413 8.599 2.413 3.157 0 5.73-.498 7.72-1.491 1.988-.996 3.554-2.297 4.693-3.904 1.14-1.61 1.932-3.467 2.369-5.572a31.73 31.73 0 0 0 .659-6.492v-24.128h-5.264v23.865c0 1.637-.148 3.23-.44 4.782-.293 1.548-.805 2.938-1.534 4.168-.733 1.227-1.756 2.206-3.071 2.938-1.317.73-3.027 1.097-5.132 1.097a15.02 15.02 0 0 1-5.485-1.01 11.824 11.824 0 0 1-4.474-3.07c-1.26-1.376-2.252-3.102-2.983-5.177-.733-2.076-1.097-4.517-1.097-7.326v-20.267h-5.264zM688.204 189.957c-2.048-3.1-4.576-5.322-7.588-6.667-3.014-1.346-6.332-2.018-9.959-2.018-3.101 0-5.907.527-8.423 1.58-2.514 1.052-4.68 2.53-6.492 4.43-1.813 1.9-3.202 4.151-4.168 6.755-.964 2.602-1.446 5.483-1.446 8.642 0 3.04.495 5.848 1.491 8.423.995 2.573 2.398 4.81 4.211 6.712 1.812 1.9 3.947 3.39 6.404 4.474 2.456 1.082 5.178 1.623 8.16 1.623 3.099 0 5.835-.54 8.202-1.623 2.371-1.084 4.358-2.516 5.967-4.299a18.23 18.23 0 0 0 3.641-6.097 20.386 20.386 0 0 0 1.227-6.932v-3.684h-34.04c0-1.113.22-2.532.658-4.256.439-1.725 1.243-3.408 2.413-5.044 1.17-1.639 2.734-3.042 4.693-4.212 1.96-1.17 4.49-1.754 7.59-1.754 2.689 0 5.293.643 7.808 1.93 2.514 1.286 4.444 3.04 5.79 5.264zm-4.035 16.056c0 1.812-.366 3.51-1.097 5.09a13.67 13.67 0 0 1-2.983 4.166c-1.26 1.198-2.75 2.15-4.474 2.851a14.399 14.399 0 0 1-5.485 1.054c-2.865 0-5.25-.586-7.149-1.756-1.903-1.17-3.408-2.516-4.519-4.035-1.112-1.52-1.901-2.998-2.369-4.43-.469-1.435-.702-2.413-.702-2.94zM701.365 186.01c0 1.168.409 2.163 1.229 2.983.817.818 1.812 1.228 2.982 1.228 1.17 0 2.163-.41 2.983-1.228.819-.82 1.227-1.815 1.227-2.983 0-1.17-.408-2.164-1.227-2.983-.82-.82-1.813-1.228-2.983-1.228-1.17 0-2.165.409-2.982 1.228-.82.819-1.23 1.813-1.23 2.983" fill="#29badb"/></g></svg>