<?xml version="1.0" encoding="UTF-8" standalone="no"?>
<svg
   xmlns:dc="http://purl.org/dc/elements/1.1/"
   xmlns:cc="http://creativecommons.org/ns#"
   xmlns:rdf="http://www.w3.org/1999/02/22-rdf-syntax-ns#"
   xmlns:svg="http://www.w3.org/2000/svg"
   xmlns="http://www.w3.org/2000/svg"
   viewBox="0 0 265.75 263.02499"
   height="263.02499"
   width="265.75"
   xml:space="preserve"
   version="1.1"
   id="svg2"><metadata
     id="metadata8"><rdf:RDF><cc:Work
         rdf:about=""><dc:format>image/svg+xml</dc:format><dc:type
           rdf:resource="http://purl.org/dc/dcmitype/StillImage" /><dc:title></dc:title></cc:Work></rdf:RDF></metadata><defs
     id="defs6" /><g
     transform="matrix(1.25,0,0,-1.25,0,263.025)"
     id="g10"><g
       transform="scale(0.1,0.1)"
       id="g12"><path
         id="path14"
         style="fill:#485faf;fill-opacity:1;fill-rule:nonzero;stroke:none"
         d="M 2114.24,1052.12 C 2114.24,471.051 1643.19,0 1062.12,0 481.051,0 10,471.051 10,1052.12 c 0,581.07 471.051,1052.12 1052.12,1052.12 581.07,0 1052.12,-471.05 1052.12,-1052.12" /><path
         id="path16"
         style="fill:#78d3e4;fill-opacity:1;fill-rule:nonzero;stroke:none"
         d="m 1605.23,1299.34 c -3.61,11.07 -7.67,22.2 -12.1,33.39 4.43,11.18 8.48,22.32 12.1,33.39 37.63,115.06 26.23,209.47 -32.08,265.85 -17.16,16.6 -37.76,29.23 -61.3,37.91 -8.97,22.74 -22.05,42.66 -39.21,59.25 -17.17,16.6 -37.78,29.23 -61.31,37.91 -8.98,22.75 -22.05,42.67 -39.22,59.27 -58.31,56.37 -155.99,67.37 -275.01,31 -11.46,-3.5 -22.97,-7.42 -34.54,-11.7 -11.57,4.28 -23.09,8.2 -34.54,11.7 -119.036,36.37 -216.707,25.37 -275.024,-31 -17.172,-16.6 -30.226,-36.52 -39.211,-59.26 -23.535,-8.69 -44.14,-21.32 -61.312,-37.92 -17.164,-16.59 -30.231,-36.51 -39.215,-59.25 -23.528,-8.68 -44.133,-21.31 -61.305,-37.92 -58.308,-56.37 -69.703,-150.78 -32.058,-265.85 3.617,-11.06 7.664,-22.2 12.097,-33.39 -4.433,-11.17 -8.48,-22.31 -12.097,-33.38 -37.633,-115.06 -26.243,-209.48 32.058,-265.85 17.172,-16.59 37.777,-29.21 61.313,-37.888 8.976,-22.75 22.043,-42.68 39.214,-59.282 17.172,-16.601 37.778,-29.211 61.305,-37.89 8.985,-22.758 22.051,-42.68 39.211,-59.27 35.758,-34.57 86.281,-52.07 147.457,-52.07 38.629,0 81.496,6.988 127.577,21.058 11.44,3.5 22.96,7.403 34.53,11.692 11.57,-4.289 23.09,-8.192 34.54,-11.699 46.08,-14.082 88.94,-21.063 127.58,-21.063 61.17,0 111.71,17.512 147.44,52.07 17.17,16.59 30.24,36.512 39.22,59.274 23.53,8.68 44.13,21.297 61.3,37.887 17.16,16.601 30.25,36.531 39.22,59.281 23.54,8.68 44.14,21.3 61.3,37.89 58.31,56.37 69.7,150.78 32.07,265.86 m -43.17,321.9 c 59.05,-57.07 63.3,-155.98 22.42,-267.76 -18.97,43.31 -43.75,87.11 -73.55,130.24 17.98,63.69 20.3,120.41 7.35,167.05 16.51,-7.53 31.2,-17.36 43.78,-29.53 m -62.44,-613.82 c -22.09,-7.22 -46.91,-10.83 -74.04,-10.818 -1.06,21.418 -4.37,44.048 -9.95,67.758 30.79,32.72 58.8,66.58 83.68,100.96 15.06,-59.62 15.72,-113.91 0.31,-157.9 m -874.128,0.03 c -15.39,43.99 -14.726,98.26 0.313,157.87 24.879,-34.38 52.902,-68.24 83.687,-100.96 -5.59,-23.74 -8.89,-46.41 -9.945,-67.848 -26.852,0.019 -51.719,3.628 -74.055,10.938 m 0,650.55 c 22.063,7.2 46.813,10.88 73.906,10.88 0.051,0 0.098,0 0.149,0 1.055,-21.43 4.355,-44.07 9.933,-67.79 -30.707,-32.65 -58.687,-66.43 -83.527,-100.76 -15.43,61.09 -15.461,114.71 -0.461,157.67 m 100.528,97.16 c 22.062,7.22 46.812,10.89 73.906,10.89 27.508,0 57.402,-3.75 89.25,-11.27 -35.516,-24.01 -70.453,-51.06 -104.235,-80.75 -24.519,5.4 -47.945,8.58 -70.093,9.61 -0.02,26.21 3.715,50.18 11.172,71.52 m 699.69,-86.28 c 27.1,0 51.85,-3.68 73.92,-10.89 15.39,-43.98 14.73,-98.25 -0.32,-157.85 -24.88,34.39 -52.89,68.24 -83.68,100.96 5.58,23.72 8.89,46.36 9.95,67.78 0.04,0 0.08,0 0.13,0 m -58,-631.15 c -10.55,-10.2 -21.25,-20.09 -32.02,-29.7 -10.72,2.54 -21.66,5.5 -32.81,8.92 -33.09,10.12 -66.78,23.66 -100.56,40.27 25.94,20.82 51.35,43.18 75.96,66.97 24.62,23.79 47.76,48.36 69.29,73.45 23.45,-44.37 40.63,-87.83 51.04,-128.8 -9.99,-10.47 -20.29,-20.84 -30.9,-31.11 m 35.06,13.19 c 3.89,-18.62 6.31,-36.65 7.2,-53.94 -17.71,0.879 -36.33,3.19 -55.75,7 8.28,7.53 16.48,15.2 24.58,23.04 8.16,7.88 16.14,15.86 23.97,23.9 m -135.58,83.99 c -26.07,-25.2 -52.85,-48.53 -79.99,-70.02 -37.49,19.45 -74.97,42.63 -111.71,69.09 35.09,26.36 69.39,55.61 102.26,87.38 32.87,31.77 63.12,64.93 90.38,98.84 27.66,-35.9 51.58,-72.16 71.52,-107.97 -22.23,-26.24 -46.4,-52.12 -72.46,-77.32 m -509.784,-97.18 c -10.586,10.24 -20.879,20.62 -30.898,31.12 10.41,40.96 27.594,84.42 51.035,128.79 21.535,-25.09 44.68,-49.66 69.289,-73.45 24.613,-23.79 50.031,-46.16 75.977,-66.97 -45.899,-22.67 -90.868,-39.27 -133.243,-49.33 -10.851,9.68 -21.582,19.63 -32.16,29.84 m 13.606,-33.84 c -19.282,-3.76 -37.961,-6.12 -55.871,-6.98 0.894,17.31 3.316,35.36 7.218,54.01 7.829,-8.04 15.805,-16.02 23.954,-23.9 8.14,-7.87 16.39,-15.58 24.699,-23.13 m 86.914,131.02 c -25.875,25.02 -50.082,50.88 -72.477,77.29 19.942,35.81 43.867,72.09 71.528,108 27.269,-33.91 57.519,-67.07 90.382,-98.84 32.86,-31.76 67.141,-60.98 102.221,-87.34 -37.14,-26.74 -74.67,-49.89 -111.697,-69.16 -27.32,21.64 -54.082,45.04 -79.957,70.05 m -0.012,395.64 c 25.875,25 52.637,48.4 79.957,70.04 37.488,-19.45 74.989,-42.64 111.749,-69.12 -35.09,-26.36 -69.401,-55.6 -102.272,-87.38 -32.871,-31.78 -63.118,-64.93 -90.391,-98.86 -27.379,35.52 -51.359,71.75 -71.488,108.01 22.219,26.22 46.386,52.1 72.445,77.31 m -80.351,-62.71 c -17.192,32.65 -31.211,65.21 -41.668,97.19 -3.528,10.79 -6.586,21.37 -9.239,31.75 9.942,10.4 20.184,20.72 30.742,30.93 10.536,10.17 21.219,20.09 32.02,29.72 10.723,-2.55 21.672,-5.52 32.824,-8.93 33.086,-10.12 66.778,-23.66 100.547,-40.28 -25.941,-20.81 -51.351,-43.17 -75.969,-66.95 -24.597,-23.8 -47.734,-48.36 -69.257,-73.43 m 489.627,62.7 c 26.07,-25.2 50.24,-51.08 72.46,-77.31 -19.94,-35.8 -43.86,-72.07 -71.52,-107.97 -27.26,33.91 -57.5,67.05 -90.37,98.82 -32.88,31.78 -67.17,61.02 -102.27,87.39 36.76,26.48 74.26,49.67 111.75,69.12 27.33,-21.64 54.08,-45.04 79.95,-70.05 m -64.87,77.69 c 33.77,16.62 67.47,30.16 100.56,40.28 11.15,3.4 22.1,6.38 32.82,8.94 10.81,-9.65 21.5,-19.56 32.01,-29.74 10.62,-10.26 20.91,-20.63 30.89,-31.09 -10.41,-40.97 -27.58,-84.43 -51.03,-128.8 -21.53,25.08 -44.67,49.64 -69.29,73.44 -24.6,23.79 -50.01,46.16 -75.96,66.97 m 55.98,-275.5 c -27.26,-34.21 -57.88,-68 -91.64,-100.64 -33.77,-32.65 -68.73,-62.25 -104.13,-88.61 -35.71,26.6 -70.632,56.27 -104.077,88.61 -33.449,32.32 -64.144,66.08 -91.672,100.61 27.274,34.21 57.891,68.02 91.66,100.67 33.457,32.33 68.399,62.02 104.119,88.63 35.71,-26.61 70.64,-56.3 104.11,-88.64 33.75,-32.63 64.37,-66.42 91.63,-100.63 m -195.75,208.31 c -36.62,26.61 -73.999,50.06 -111.464,69.88 36.492,27.95 73.904,52.7 111.474,73.8 37.56,-21.1 74.97,-45.85 111.45,-73.8 -37.45,-19.82 -74.84,-43.27 -111.46,-69.88 M 847.055,1332.73 c -27.535,-35.4 -51.774,-71.55 -72.282,-107.75 -28.918,35.28 -54.519,71.43 -76.343,107.73 21.621,35.91 47.179,72.09 76.367,107.72 20.496,-36.19 44.734,-72.32 72.258,-107.7 m 215.505,-208.31 c 36.59,-26.61 73.96,-50.04 111.4,-69.85 -36.87,-28.23 -74.31,-52.91 -111.45,-73.808 -37.55,21.088 -74.944,45.828 -111.416,73.778 37.457,19.82 74.836,43.26 111.466,69.88 m 215.49,208.31 c 27.53,35.38 51.76,71.51 72.26,107.7 29.2,-35.62 54.75,-71.8 76.37,-107.7 -21.62,-35.89 -47.17,-72.07 -76.37,-107.71 -20.5,36.19 -44.73,72.32 -72.26,107.71 m 80.32,122.3 c 19.03,35.38 34.46,70.74 45.81,105.43 2.53,7.71 4.8,15.33 6.88,22.85 30.97,-33.57 58.71,-67.97 82.93,-102.49 -12.68,-42.5 -32.33,-87.35 -58.38,-132.86 -22.27,36.15 -48.17,72.06 -77.24,107.07 m 44.39,159.51 c -7.82,8.03 -15.8,16.01 -23.95,23.89 -8.09,7.83 -16.28,15.48 -24.55,23 19.4,3.8 38.01,6.14 55.7,7.03 -0.89,-17.28 -3.31,-35.31 -7.2,-53.92 m -62.58,59.5 c -33.77,29.69 -68.72,56.73 -104.23,80.74 31.83,7.52 61.73,11.27 89.24,11.27 27.1,0 51.85,-3.67 73.91,-10.89 7.55,-21.57 11.25,-45.59 11.27,-71.52 -22.18,-1.01 -45.63,-4.2 -70.19,-9.6 m -18.39,-4.41 c -7.78,-2.02 -15.66,-4.22 -23.65,-6.66 -35.88,-10.97 -72.47,-25.89 -109.08,-44.29 -36.21,28.11 -73.37,53.14 -110.76,74.66 41.61,22.21 83.29,39.88 124.05,52.33 4.61,1.41 9.15,2.7 13.7,3.96 35.95,-23.59 71.42,-50.4 105.74,-80 m -124.16,90.51 c -44.4,-13.57 -89.84,-33.14 -135.07,-57.94 -45.24,24.78 -90.673,44.37 -135.06,57.93 -0.48,0.15 -0.953,0.28 -1.43,0.42 45.356,28.38 91.28,51.57 136.49,68.78 45.2,-17.21 91.14,-40.4 136.48,-68.77 -0.48,-0.15 -0.94,-0.27 -1.41,-0.42 m -274.86,-14.47 c 40.746,-12.45 82.44,-30.12 124.04,-52.33 -37.4,-21.52 -74.552,-46.55 -110.771,-74.66 -36.601,18.4 -73.18,33.31 -109.066,44.28 -7.989,2.44 -15.864,4.65 -23.649,6.66 34.328,29.61 69.789,56.41 105.739,80.01 4.546,-1.26 9.089,-2.55 13.707,-3.96 m -151.915,-84.24 c -8.257,-7.52 -16.453,-15.17 -24.542,-23 -8.11,-7.84 -16.04,-15.77 -23.829,-23.76 -3.929,18.73 -6.324,36.67 -7.234,53.77 17.676,-0.88 36.242,-3.22 55.605,-7.01 m -56.808,-78.13 c 2.086,-7.51 4.371,-15.13 6.891,-22.84 11.351,-34.69 26.773,-70.05 45.816,-105.43 -29.094,-35.01 -54.981,-70.94 -77.246,-107.08 -22.969,40.22 -41.25,80.51 -54.141,119.9 -1.445,4.44 -2.793,8.82 -4.09,13.18 24.196,34.44 51.868,68.77 82.77,102.27 M 620.41,1463.29 c 14.039,-42.91 34.293,-86.84 59.938,-130.56 -25.645,-43.73 -45.899,-87.64 -59.926,-130.55 -0.156,-0.47 -0.293,-0.93 -0.442,-1.39 -29.398,43.9 -53.402,88.37 -71.226,132.13 17.559,42.82 41.476,87.24 71.246,131.67 0.137,-0.43 0.266,-0.87 0.41,-1.3 m 69.106,-145.8 c 22.257,-36.14 48.156,-72.05 77.238,-107.06 -19.043,-35.38 -34.465,-70.74 -45.816,-105.43 -2.52,-7.72 -4.805,-15.34 -6.891,-22.87 -30.688,33.26 -58.477,67.63 -82.934,102.45 12.68,42.53 32.332,87.4 58.403,132.91 m 95.367,-326.021 c 33.855,-29.758 68.887,-56.867 104.488,-80.918 -31.308,-7.391 -61.219,-11.231 -89.004,-11.231 -26.961,0 -51.933,3.621 -74.355,10.95 -7.543,21.57 -11.25,45.609 -11.282,71.531 22.161,1.027 45.622,4.289 70.153,9.668 m 18.394,4.41 c 7.813,2.019 15.688,4.171 23.696,6.621 35.886,10.97 72.465,25.89 109.066,44.28 36.219,-28.1 73.351,-53.132 110.741,-74.639 -47.077,-25.211 -93.487,-44.219 -137.464,-56.493 -36.054,23.661 -71.625,50.543 -106.039,80.231 M 927.5,905.328 c 44.387,13.563 89.82,33.141 135.05,57.934 45.24,-24.793 90.68,-44.371 135.08,-57.942 0.45,-0.148 0.89,-0.25 1.33,-0.39 -45.97,-28.789 -91.9,-51.899 -136.21,-68.891 -45.27,17.242 -91.273,40.449 -136.691,68.871 0.488,0.149 0.961,0.27 1.441,0.418 m 274.85,14.442 c -40.75,12.449 -82.44,30.14 -124.06,52.351 37.4,21.52 74.56,46.549 110.77,74.659 36.61,-18.4 73.2,-33.32 109.08,-44.29 8.01,-2.45 15.89,-4.599 23.69,-6.619 -34.68,-29.902 -70.21,-56.652 -105.85,-80.051 -4.52,1.258 -9.05,2.559 -13.63,3.95 m 137.88,71.691 c 24.53,-5.391 47.99,-8.652 70.15,-9.672 -0.03,-25.93 -3.73,-49.98 -11.29,-71.551 -44.44,-14.519 -99.93,-14.488 -163.14,0.434 35.52,24.027 70.49,51.09 104.28,80.789 m 70.84,90.679 c -2.09,7.53 -4.36,15.13 -6.88,22.84 -11.35,34.7 -26.79,70.07 -45.82,105.45 29.07,35.01 54.97,70.93 77.24,107.07 26.05,-45.5 45.7,-90.36 58.38,-132.87 -24.22,-34.51 -51.95,-68.92 -82.92,-102.49 m 93.65,120.02 c -14.04,42.91 -34.3,86.84 -59.95,130.57 25.65,43.73 45.9,87.65 59.94,130.56 0.14,0.44 0.27,0.87 0.41,1.31 29.82,-44.5 53.76,-88.97 71.32,-131.87 -17.55,-42.89 -41.5,-87.36 -71.31,-131.87 -0.15,0.44 -0.28,0.87 -0.41,1.3 m -43.18,516.26 c 12.7,-12.28 22.84,-26.49 30.56,-42.34 -20.28,5.27 -42.43,7.9 -66.16,7.92 -0.02,22.93 -2.75,44.33 -8.19,63.93 16.52,-7.52 31.21,-17.34 43.79,-29.51 m -359.7,124.43 c 44.56,13.61 85.85,20.38 122.83,20.38 56.92,0 103.63,-16.02 136.35,-47.64 12.69,-12.28 22.83,-26.49 30.56,-42.34 -48.25,12.53 -106.94,10.28 -172.81,-7.1 -44.54,28.76 -89.79,52.67 -134.51,71 5.87,1.99 11.73,3.91 17.58,5.7 m -337.746,-27.26 c 32.715,31.62 79.426,47.63 136.359,47.63 36.973,0 78.274,-6.76 122.847,-20.38 5.83,-1.78 11.69,-3.7 17.56,-5.69 -44.727,-18.33 -89.962,-42.24 -134.505,-71 -65.867,17.38 -124.554,19.63 -172.796,7.12 7.781,15.96 17.945,30.15 30.535,42.32 m -100.531,-97.17 c 12.589,12.17 27.273,21.99 43.792,29.52 -5.445,-19.61 -8.152,-41.01 -8.171,-63.95 -23.735,-0.01 -45.871,-2.64 -66.141,-7.9 7.777,15.96 17.934,30.15 30.52,42.33 M 534.848,1370.69 c -35.782,109.4 -25.766,198.38 28.199,250.55 12.59,12.17 27.269,22 43.789,29.53 -12.957,-46.64 -10.625,-103.36 7.348,-167.05 -29.743,-43.05 -54.481,-86.78 -73.442,-130.01 -2.058,5.67 -4.047,11.34 -5.894,16.98 m 28.199,-326.47 c -59.039,57.08 -63.277,155.98 -22.402,267.76 18.96,-43.3 43.75,-87.11 73.55,-130.25 -17.984,-63.69 -20.308,-120.43 -7.347,-167.06 -16.395,7.47 -31.106,17.28 -43.801,29.55 m 100.527,-97.181 c -12.707,12.281 -22.844,26.52 -30.57,42.383 20.297,-5.274 42.418,-7.973 66.18,-7.992 0.019,-22.93 2.734,-44.328 8.187,-63.93 -16.398,7.461 -31.101,17.27 -43.797,29.539 M 900.895,802.148 c -55.872,0.012 -103.305,15.364 -136.801,47.731 -12.699,12.281 -22.844,26.512 -30.574,42.359 20.359,-5.277 42.566,-7.968 66.406,-7.968 32.629,0 68.32,5.031 106.375,15.062 44.637,-28.812 89.969,-52.781 134.779,-71.121 -50.021,-17.09 -97.568,-26.063 -140.185,-26.063 m 460.135,47.723 c -53.97,-52.18 -146.01,-61.851 -259.19,-27.262 -5.84,1.77 -11.71,3.7 -17.58,5.7 44.73,18.32 89.99,42.25 134.55,71.023 38.06,-10.043 73.75,-15.082 106.4,-15.082 23.83,0 46.03,2.691 66.4,7.98 -7.73,-15.851 -17.88,-30.082 -30.58,-42.359 m 100.51,97.16 c -12.58,-12.172 -27.27,-21.992 -43.78,-29.511 5.44,19.589 8.16,40.98 8.19,63.902 23.75,0.019 45.88,2.719 66.18,7.988 -7.74,-15.859 -17.88,-30.109 -30.59,-42.379 m 56.75,67.659 c 12.95,46.63 10.62,103.36 -7.36,167.04 29.8,43.14 54.58,86.95 73.55,130.26 40.88,-111.79 36.64,-210.7 -22.41,-267.78 -12.59,-12.17 -27.28,-21.99 -43.78,-29.52" /><g
         transform="scale(10,10)"
         id="g18"><text
           id="text20"
           style="font-variant:normal;font-weight:normal;font-size:30px;font-family:FreightSansProLight;-inkscape-font-specification:FreightSansProLight-Regular;writing-mode:lr-tb;fill:#78d3e4;fill-opacity:1;fill-rule:nonzero;stroke:none"
           transform="matrix(1,0,0,-1,65.7402,44.209)"><tspan
             id="tspan22"
             y="0"
             x="0 22.5 35.310001 50.368755 60.268169 66.058167">Madrid</tspan></text>
</g></g></g></svg>