<svg xmlns="http://www.w3.org/2000/svg" width="194.384" height="400"><path d="M81.055 91.22c-2.593.363-10.26 4.067-13.364 5.975-5.41 3.33-5.753 3.436-8.258 2.542-2.337-.834-3.033-.74-6.518.87-2.142.99-6.26 3.887-9.152 6.447-3.76 3.327-5.858 4.338-7.341 4.659-2.425.524-6.374.392-5.576 6.587.867 6.733 2.609 5.318 5.952 5.318 2.453 0 3.449 1.587 3.789 6.07.164 2.174.697 8.31 1.176 13.623.86 9.541.855 9.704-.965 13.74-3.206 7.113-4.58 13.314-3.74 16.965 1.173 5.105-.418 8.632-10.094 22.422-4.811 6.856-7.536 12.145-8.918 17.27-.58 2.152-2.24 6.456-3.694 9.576-3.607 7.739-3.896 10.528-2.07 20.94 1.737 9.903 1.924 10.323 5.647 13.858 1.483 1.409 2.682 2.985 2.682 3.506 0 .52 1.021 1.685 2.259 2.588 3.023 2.206 3.606 5.504 1.647 9.294-.826 1.598-2.083 4.9-2.8 7.34-.718 2.44-1.936 4.854-2.706 5.389-1.882 1.305-1.769 2.128.612 4.305 1.339 1.225 1.7 2.41 1.6 3.035l47.221-2.917c-.043-2.586-6.895-5.428-9.576-4.588-1.806.566-1.764.426 1.223-4.47 1.418-2.324 2.805-5.553 3.083-7.177.278-1.623 1.285-3.85 2.235-4.964 1.869-2.192 3.381-6.71 3.388-10.07.002-1.158-.85-4.58-1.906-7.6-1.399-4-1.782-6.215-1.412-8.164.575-3.023 6.996-9.922 9.059-11.012.745-.394 4.314-4.274 5.858-7.246 1.544-2.973 3.83-5.731 4.4-6.376.571-.646 3.294-6.06 3.294-6.918.113-1.718 3.458-6.304 3.482-10.14.471-2.306 2.62-15.253 7.082-14.07 4.329-2.102 10.144-6.722 11.317-7.788 1.825-.818 9.897-5.03 9.718-9.53-.567-14.194-.974-38.051-2.47-46.632-.433-.437-1.53-.177-2.424-.26-1.481 0-2.965 1.526-4.541 4.636-.842 1.662-.855 2.576-.094 5.082 1.102 3.632.016 11.783-1.553 14.823-1.517 2.94-4.264 6.413-10.494 8.117-3.062.838-5.658 1.506-5.764 1.506-.106 0-1.09-1.416-2.212-3.153-1.12-1.737-2.792-3.99-3.717-5.011-2.274-2.512-4.613-9.65-5.224-15.976-.377-3.907-1.066-6.056-2.729-8.659-3.344-5.232-3.532-8.015-.8-11.105 1.23-1.392 2.966-3.957 3.859-5.694 1.03-2.007 4.875-5.316 4.94-8.352.049-2.74-3.126-8.782-5.41-8.612zm-22.987 10.752a3.582 3.582 0 0 1 3.576 3.576 3.582 3.582 0 0 1-3.576 3.576c-1.97 0-3.553-1.605-3.553-3.576 0-1.97 1.582-3.576 3.553-3.576zm11.105 51.903l-1.435 1.577c-1.433 1.59-5.717 2.26-5.717.894 0-.984.733-1.309 4.164-1.93l2.988-.54zm-33.41 78.655c1.44.11 3.986.958 5.694 1.718 2.778 1.237 4.488 3.322 1.93 2.353-.609-.23-4.085-1.144-4.33-.753-.72 1.15-2.285.813-3.764-.8-1.035-1.128-1.164-1.716-.518-2.353.161-.16.508-.201.988-.165z" fill="#376a94" fill-opacity=".941"/><path d="M120.364 132.97c-.78-7.654-.882-9.312-1.53-11.318-.015-.414.112-.752 1.212-.373 9.517 3.288 22.09 2.59 29.577-.085.963-.344.043 3.98.08 5.843-1.295 9.376-1.989 29.57-1.581 35.38.496 7.079 1.592 8.734 5.782 8.734 3.132 0 4.95 1.846 6.596 6.7 1.649 4.862 1.19 6.287-3.262 10.13-6.299 5.439-6.757 7.678-6.107 29.848 1.137 38.768 3.15 60.492 6.144 66.335 1.606 3.132 6.065 6.583 9.159 7.09 5.773.943 7.386 1.308 8.607 1.947 1.549.811 3.742 10.734 2.606 12.103C151.132 297.617 0 307.348 0 307.348l.004-8.217c0 .024 1.16-1.015 14.116-2.206 4.524-.416 8.431-.86 11.64-1.24 4.899-.365 32.903-2.605 52.732-2.99 3.137-.21 8.917-.744 12.844-1.184 9.51-1.067 13.915-2.81 18.259-7.227 4.591-4.667 6.692-10.668 9.251-26.43 1.376-8.47 3.74-58.698 3.06-64.971l-.009-21.634" fill="#ffbc29" fill-opacity=".941"/><g fill-opacity=".941"><path d="M133.83.001c-4.935.023-9.648.444-13.795 1.178-12.216 2.158-14.434 6.675-14.434 15.006v11.002h28.868v3.667H94.767c-8.39 0-15.736 5.043-18.034 14.636-2.65 10.996-2.768 17.857 0 29.339 2.052 8.546 6.953 14.636 15.343 14.636H102v-13.19c0-9.528 8.244-17.932 18.034-17.932h28.835c8.026 0 14.434-6.61 14.434-14.67V16.185c0-7.824-6.6-13.7-14.434-15.006-4.96-.826-10.105-1.2-15.04-1.178zM118.218 8.85c2.982 0 5.417 2.475 5.417 5.518 0 3.032-2.435 5.484-5.417 5.484-2.992 0-5.417-2.452-5.417-5.484 0-3.043 2.425-5.518 5.417-5.518z" fill="#376a94"/><path d="M166.904 30.854v12.819c0 9.938-8.426 18.303-18.034 18.303h-28.835c-7.898 0-14.434 6.76-14.434 14.67v27.488c0 7.824 6.803 12.425 14.434 14.67 9.138 2.687 17.901 3.172 28.835 0 7.267-2.104 14.434-6.34 14.434-14.67V93.132h-28.835v-3.667h43.269c8.39 0 11.516-5.852 14.434-14.636 3.013-9.043 2.885-17.739 0-29.34-2.074-8.351-6.034-14.635-14.434-14.635h-10.834zm-16.218 69.613c2.993 0 5.417 2.452 5.417 5.484 0 3.043-2.424 5.518-5.417 5.518-2.981 0-5.416-2.475-5.416-5.518 0-3.032 2.435-5.484 5.416-5.484z" fill="#ffbc29"/></g><g fill-opacity=".835"><path d="M93.868 374.543c-8.22 0-13.63 6.874-12.14 15.434.79 4.53 3.633 7.868 8.035 9.438 3.635 1.297 8.657.366 11.261-2.08l.972-.904v3.173H107.181V374.975H101.996V378.162l-1.188-1.135c-1.723-1.65-4.044-2.484-6.94-2.484zm.756 5.388c1.289.006 2.619.375 3.889 1.147 3.984 2.424 3.929 10.037-.095 12.49-1.464.893-5.338 1.132-7.008.433-2.197-.92-4.105-3.9-4.105-6.414 0-4.53 3.452-7.675 7.319-7.656zM130.514 366.765v10.451l-1.242-1.053c-3.82-3.214-10.847-2.467-14.894 1.58-2.56 2.56-3.524 5.126-3.524 9.358 0 3.265.16 4 1.31 6.251 1.382 2.705 4.31 5.341 6.846 6.158 1.868.601 5.462.623 7.224.04.808-.267 2.2-1.047 3.092-1.742l1.62-1.269v3.066h5.618v-32.84h-6.05zm-6.697 12.936c1.35 0 2.703.328 3.713 1 1.767 1.173 3.416 4.249 3.416 6.373 0 2.123-1.649 5.199-3.416 6.373-2.02 1.343-5.415 1.341-7.386 0-2.564-1.745-3.24-3.069-3.24-6.373 0-3.305.676-4.629 3.24-6.374.985-.67 2.323-1 3.673-.999zM184.526 366.765v4.97c0 4.855-.23 5.617-1.283 4.347-.95-1.146-4.705-2.103-7.346-1.863-6.232.565-10.676 5.36-11.153 12.03-.433 6.053 2.857 11.28 8.331 13.247 1.735.624 5.357.654 7.17.054.808-.267 2.201-1.047 3.093-1.742l1.62-1.269v3.066h5.618v-32.84h-6.05zm-6.698 12.936c1.35 0 2.703.328 3.714 1 1.767 1.173 3.416 4.249 3.416 6.373 0 2.123-1.65 5.199-3.416 6.373-2.021 1.343-5.416 1.341-7.386 0-2.564-1.745-3.241-3.069-3.241-6.373 0-3.305.677-4.629 3.24-6.374.986-.67 2.324-1 3.673-.999zM43.232 383.185v-16.42l4.213.005 4.213.005 4.354 12.359 4.355 12.358 4.307-12.255 4.308-12.256 4.192-.123 4.193-.124v32.87h-6.036l-.114-11.897-.115-11.898-4.105 11.79-4.105 11.79h-5.115l-4.14-11.883-4.14-11.883-.115 11.99-.115 11.991h-6.035v-16.42zM140.885 387.29v-12.315h2.808c2.56 0 2.809.08 2.809.903 0 .868.05.86 1.33-.216.863-.727 1.847-1.12 2.808-1.12h1.479v5.521l-1.486.28c-.893.167-1.929.804-2.593 1.593-1.102 1.31-1.106 1.349-1.106 9.492v8.176H140.885V387.29zM155.144 387.29v-12.315h5.617V399.604h-5.617V387.29zM155.144 369.574v-2.809h5.617v5.617h-5.617v-2.808z"/></g><text style="line-height:125%" x="141.978" y="319.538" font-size="30.116" font-weight="400" letter-spacing="0" word-spacing="0" font-family="Sans"><tspan x="141.978" y="319.538" font-size="9.035">TM</tspan></text><g><g fill-opacity=".941"><path d="M33.383 362.418c0-.23 1.06-2.795 2.356-5.703l2.355-5.286-4.697-11.736C30.813 333.24 28.7 327.8 28.7 327.607c0-.193 1.563-.35 3.473-.35h3.472l2.672 8.074c1.47 4.442 2.826 8.245 3.013 8.452.188.207 1.768-3.427 3.512-8.075l3.17-8.452h3.452c1.899 0 3.452.156 3.452.347 0 .19-3.4 8.195-7.557 17.789l-7.558 17.442h-3.21c-1.765 0-3.209-.187-3.209-.416z" fill="#376a94"/><path d="M114.106 326.978a13.844 13.844 0 0 0-9.787 4.564c-2.605 2.899-3.685 6.046-3.437 9.934.39 6.144 4.613 10.995 10.679 12.259 3.228.672 5.65.405 8.733-.966 4.68-2.081 8.12-7.24 8.12-12.171 0-4.891-3.285-10.016-7.842-12.245a13.583 13.583 0 0 0-6.466-1.375zm-.146 5.603c1.841-.075 3.815.32 4.989 1.156 4.682 3.34 4.33 11.163-.63 13.985-4.496 2.559-9.905.223-11.19-4.842-.965-3.798.125-6.977 3.203-9.275.837-.625 2.196-.965 3.628-1.024z" fill="#ffbc29"/><path d="M4.359 318.245v35.695h6.554v-13.445l4.388-.248c5.021-.3 7.529-1.314 9.334-3.745 3.2-4.311 2.959-11.1-.527-14.688-2.642-2.72-4.108-3.115-12.376-3.35l-7.373-.22zm6.554 6.202l1.521.03c5.712.104 7.853 1.429 7.827 4.827-.016 2.063-.58 3.104-2.092 3.906-.515.273-2.358.649-4.096.834l-3.16.336v-9.933zM59.49 343.524l-.126-10.416-1.521-.147-1.522-.147v-5.558h3.277v-8.894h6.086v8.894h3.745v5.618h-3.745v21.066h-6.068l-.126-10.416z" fill="#376a94"/><path d="M73.174 336.15v-17.32h5.618v5.15c0 2.831.133 5.149.296 5.149.162 0 .99-.43 1.84-.955 3.567-2.205 9.362-1.453 12.32 1.598 2.407 2.484 2.865 4.863 2.865 14.88v8.82h-6.086v-8.442c0-11.272-.573-12.624-5.346-12.624-1.663 0-2.443.281-3.563 1.287-1.789 1.605-2.303 4.621-2.317 13.576l-.01 6.202h-5.617v-17.32zM132.627 340.364v-13.108h2.574c2.55 0 2.575.014 2.575 1.404 0 1.704.184 1.727 1.943.247 4.18-3.517 11.54-2.26 14.305 2.444 1.304 2.22 1.307 2.248 1.457 12.173l.15 9.947h-6.152v-8.543c-.001-7.196-.13-8.802-.82-10.182-.98-1.962-3.314-2.763-6.04-2.072-3.486.884-4.265 3.505-4.335 14.595l-.04 6.202h-5.618v-13.107z" fill="#ffbc29"/></g></g></svg>