<?xml version="1.0" standalone="no"?>
<!DOCTYPE svg PUBLIC "-//W3C//DTD SVG 20010904//EN"
 "http://www.w3.org/TR/2001/REC-SVG-20010904/DTD/svg10.dtd">
<svg version="1.0" xmlns="http://www.w3.org/2000/svg"
 width="752.000000pt" height="752.000000pt" viewBox="0 0 752.000000 752.000000"
 preserveAspectRatio="xMidYMid meet">
<metadata>
Created by potrace 1.11, written by Peter Selinger 2001-2013
</metadata>
<g transform="translate(0.000000,752.000000) scale(0.100000,-0.100000)"
fill="#000000" stroke="none">
<path d="M3787 7513 c-3 -2 -31 -6 -63 -7 -88 -5 -227 -20 -244 -26 -3 -1 -8
-2 -13 -1 -4 1 -47 -6 -95 -15 -48 -9 -98 -17 -112 -19 -14 -2 -54 -10 -90
-19 -36 -8 -76 -17 -90 -20 -14 -3 -41 -10 -60 -16 -19 -6 -46 -13 -60 -16
-44 -9 -182 -54 -290 -95 -58 -22 -109 -41 -115 -43 -5 -2 -30 -12 -55 -23
-25 -11 -66 -28 -92 -39 -27 -10 -48 -22 -48 -26 0 -5 -6 -8 -13 -8 -29 0
-414 -218 -482 -272 -5 -5 -46 -35 -91 -67 -44 -32 -89 -65 -100 -74 -10 -9
-39 -32 -64 -53 -184 -150 -330 -296 -504 -504 -97 -116 -255 -344 -321 -465
-21 -38 -41 -72 -45 -75 -15 -13 -179 -365 -205 -440 -1 -3 -5 -14 -9 -25 -29
-76 -41 -110 -66 -185 -27 -82 -67 -226 -75 -266 -2 -10 -4 -19 -5 -19 -2 0
-5 -16 -14 -60 -3 -16 -8 -41 -12 -55 -3 -14 -7 -35 -9 -47 -2 -12 -6 -36 -10
-53 -4 -17 -8 -41 -10 -53 -1 -12 -5 -35 -8 -52 -3 -16 -8 -57 -12 -90 -3 -33
-8 -67 -10 -75 -25 -87 -24 -773 0 -900 3 -14 8 -50 11 -80 3 -30 8 -68 11
-85 3 -16 6 -37 8 -45 7 -53 19 -116 36 -188 11 -45 17 -87 14 -92 -4 -6 -3
-10 2 -10 4 0 16 -35 27 -77 31 -127 109 -359 161 -478 67 -154 108 -238 120
-247 5 -4 6 -8 2 -8 -5 0 0 -15 11 -32 11 -18 31 -53 44 -78 41 -74 63 -112
99 -170 39 -64 223 -324 248 -349 9 -10 34 -39 56 -67 78 -96 237 -260 359
-368 38 -33 74 -66 80 -71 6 -6 31 -26 56 -45 25 -19 50 -39 57 -45 7 -5 18
-15 25 -21 38 -31 274 -188 348 -231 134 -78 370 -194 495 -243 184 -73 493
-169 557 -173 15 -1 28 -6 28 -10 0 -5 6 -7 13 -4 6 2 26 0 42 -5 39 -12 54
-15 101 -22 22 -4 64 -11 94 -16 73 -12 197 -27 325 -37 166 -15 657 -7 753
12 11 2 50 6 85 9 36 3 71 8 79 11 7 2 29 6 48 9 74 11 197 37 314 66 130 33
415 126 431 141 5 5 18 9 28 9 10 0 31 7 45 15 15 8 50 24 77 36 136 59 349
169 407 210 14 11 29 19 32 19 3 0 29 16 56 35 27 19 54 35 60 35 5 0 10 4 10
8 0 4 15 16 33 26 17 11 60 41 94 68 35 26 67 48 72 48 6 0 14 6 18 13 4 7 20
22 36 34 103 80 344 312 452 438 80 93 243 309 258 342 6 13 14 23 19 23 4 0
8 4 8 9 0 5 25 49 55 98 30 50 55 96 55 104 0 12 -115 80 -469 280 -25 14
-122 70 -216 124 -93 54 -186 107 -205 118 -19 10 -64 36 -100 57 -36 21 -81
47 -100 57 -63 36 -312 178 -471 270 -85 49 -162 93 -170 96 -8 4 -36 21 -64
37 -27 16 -53 29 -56 30 -4 0 -18 -21 -32 -47 -47 -90 -82 -145 -142 -218 -63
-79 -206 -215 -225 -215 -6 0 -10 -3 -10 -8 0 -9 -152 -104 -197 -123 -18 -8
-33 -17 -33 -21 0 -5 -6 -8 -14 -8 -7 0 -43 -13 -79 -30 -35 -16 -75 -32 -88
-34 -13 -3 -55 -14 -93 -25 -37 -11 -87 -23 -109 -27 -23 -3 -44 -7 -47 -9 -5
-3 -97 -15 -160 -21 -48 -4 -265 -4 -320 1 -43 3 -90 10 -155 22 -16 3 -39 7
-50 9 -104 18 -370 113 -387 138 -4 6 -8 8 -8 3 0 -4 -18 4 -40 18 -22 14 -42
25 -44 25 -8 0 -95 59 -156 106 -113 85 -330 324 -330 363 0 6 -3 11 -7 11
-22 0 -149 265 -178 370 -71 253 -87 355 -87 579 0 117 7 230 18 282 2 13 7
40 9 59 3 19 8 46 11 60 3 14 7 32 9 40 15 68 49 178 71 227 8 17 14 34 14 37
0 14 59 129 106 208 183 302 441 514 784 641 52 19 109 38 125 41 17 3 48 10
70 15 39 9 66 14 155 29 55 9 417 7 484 -2 101 -14 261 -52 321 -76 11 -4 36
-14 55 -21 81 -29 270 -128 270 -141 0 -4 5 -8 11 -8 22 0 177 -130 247 -207
79 -86 158 -195 197 -273 14 -27 28 -50 31 -50 8 0 257 142 264 150 3 4 25 17
50 29 25 12 83 45 130 73 92 55 129 76 188 109 20 12 42 25 47 29 6 4 30 19
55 32 25 14 155 89 290 168 135 78 266 154 291 169 25 14 158 91 296 171 l251
145 -21 40 c-35 65 -144 232 -204 313 -64 86 -63 85 -100 129 -16 18 -39 47
-53 64 -76 95 -238 258 -376 377 -27 23 -58 51 -69 60 -11 10 -49 40 -85 67
-36 28 -67 52 -70 55 -3 3 -13 10 -22 15 -9 6 -51 34 -93 63 -41 28 -79 52
-84 52 -4 0 -16 9 -26 20 -10 11 -22 20 -28 20 -5 0 -21 8 -35 18 -79 55 -406
217 -467 232 -5 1 -19 9 -30 16 -11 8 -25 14 -32 14 -7 0 -32 9 -56 19 -74 35
-315 110 -447 141 -19 5 -46 11 -60 15 -14 3 -32 8 -40 9 -23 4 -90 16 -140
26 -55 11 -112 20 -165 25 -44 5 -108 13 -170 21 -49 8 -592 14 -598 7z"/>
<path d="M3875 5031 c-3 -2 -21 -5 -40 -7 -20 -1 -48 -5 -63 -9 -15 -4 -38 -9
-51 -12 -82 -15 -330 -116 -351 -142 -3 -3 -16 -12 -30 -19 -94 -48 -230 -173
-345 -317 -39 -50 -112 -171 -127 -212 -7 -18 -15 -33 -18 -33 -4 0 -7 -6 -8
-12 -1 -7 -15 -51 -31 -98 -16 -47 -33 -100 -36 -119 -3 -19 -8 -38 -10 -41
-10 -16 -18 -122 -19 -240 0 -153 6 -215 36 -325 5 -22 12 -47 13 -55 6 -27
42 -120 48 -127 4 -3 7 -14 7 -24 0 -9 3 -19 8 -21 4 -1 18 -25 32 -53 56
-115 164 -256 268 -350 104 -94 267 -195 407 -252 39 -16 208 -60 265 -69 60
-9 312 -10 375 0 242 35 497 156 674 320 88 82 140 143 205 241 98 149 163
311 192 477 18 100 23 309 10 398 -4 30 -9 64 -11 75 -1 11 -8 38 -14 60 -6
22 -11 45 -12 50 -8 49 -87 225 -140 311 -75 123 -207 274 -291 332 -13 9 -31
23 -40 32 -32 29 -181 113 -262 147 -85 36 -227 77 -311 89 -57 8 -323 13
-330 5z"/>
</g>
</svg>
