<?xml version="1.0" encoding="UTF-8" standalone="no"?>
<svg
   xmlns:dc="http://purl.org/dc/elements/1.1/"
   xmlns:cc="http://creativecommons.org/ns#"
   xmlns:rdf="http://www.w3.org/1999/02/22-rdf-syntax-ns#"
   xmlns:svg="http://www.w3.org/2000/svg"
   xmlns="http://www.w3.org/2000/svg"
   id="svg977"
   version="1.1"
   viewBox="0 0 203.15717 45.510506"
   height="45.510506mm"
   width="203.15717mm">
  <defs
     id="defs971" />
  <metadata
     id="metadata974">
    <rdf:RDF>
      <cc:Work
         rdf:about="">
        <dc:format>image/svg+xml</dc:format>
        <dc:type
           rdf:resource="http://purl.org/dc/dcmitype/StillImage" />
        <dc:title></dc:title>
      </cc:Work>
    </rdf:RDF>
  </metadata>
  <g
     transform="translate(-76.54481,-72.538517)"
     id="layer1">
    <g
       transform="matrix(0.99052456,0,0,0.99052456,-79.231966,53.369058)"
       style="font-style:normal;font-weight:normal;font-size:5.66756868px;line-height:125%;font-family:sans-serif;letter-spacing:0px;word-spacing:0px;fill:#000000;fill-opacity:1;stroke:none;stroke-width:1px;stroke-linecap:butt;stroke-linejoin:miter;stroke-opacity:1"
       id="flowRoot4164-6">
      <path
         d="m 177.5108,57.535777 q -1.594,1.939371 -3.87874,3.081741 -2.25817,1.142369 -4.99455,1.142369 -2.36443,0 -4.43664,-0.850135 -2.0722,-0.876702 -3.61307,-2.364439 -1.54088,-1.487737 -2.44414,-3.480241 -0.87671,-2.019072 -0.87671,-4.330377 0,-2.311306 0.87671,-4.30381 0.90326,-2.019072 2.44414,-3.506808 1.54087,-1.514304 3.61307,-2.364439 2.07221,-0.850136 4.43664,-0.850136 2.73638,0 4.99455,1.14237 2.28474,1.142369 3.79904,2.975473 l -2.84264,2.92234 q -0.98297,-1.408036 -2.5504,-2.258171 -1.54088,-0.876703 -3.40055,-0.876703 -1.48773,0 -2.81607,0.584469 -1.30177,0.557901 -2.28474,1.54087 -0.98297,0.956402 -1.56743,2.258172 -0.55791,1.275203 -0.55791,2.736373 0,1.434603 0.55791,2.736373 0.58446,1.275203 1.56743,2.258172 0.98297,0.956402 2.28474,1.54087 1.32834,0.557901 2.81607,0.557901 1.96594,0 3.48025,-0.876702 1.5143,-0.903269 2.52383,-2.364439 z"
         style="font-style:normal;font-variant:normal;font-weight:500;font-stretch:normal;font-size:26.56672859px;font-family:'Keep Calm';-inkscape-font-specification:'Keep Calm Medium';fill:#000000;fill-opacity:1"
         id="path4236" />
      <path
         d="m 201.08877,61.361386 h -4.51634 L 194.60649,57.11071 H 184.2986 l -1.9925,4.250676 h -4.51635 l 10.04223,-21.253383 h 3.21457 z m -8.10285,-7.677784 -3.53337,-7.651218 -3.58651,7.651218 z"
         style="font-style:normal;font-variant:normal;font-weight:500;font-stretch:normal;font-size:26.56672859px;font-family:'Keep Calm';-inkscape-font-specification:'Keep Calm Medium';fill:#000000;fill-opacity:1"
         id="path4238" />
      <path
         d="m 220.87351,61.361386 h -4.03814 l -9.59059,-14.903935 v 14.903935 h -4.03814 V 40.108003 h 4.62261 l 9.00612,13.867833 V 40.108003 h 4.03814 z"
         style="font-style:normal;font-variant:normal;font-weight:500;font-stretch:normal;font-size:26.56672859px;font-family:'Keep Calm';-inkscape-font-specification:'Keep Calm Medium';fill:#000000;fill-opacity:1"
         id="path4240" />
      <path
         d="M 246.28335,61.361386 H 241.767 l -1.96594,-4.250676 h -10.30789 l -1.9925,4.250676 h -4.51634 l 10.04222,-21.253383 h 3.21457 z m -8.10286,-7.677784 -3.53337,-7.651218 -3.58651,7.651218 z"
         style="font-style:normal;font-variant:normal;font-weight:500;font-stretch:normal;font-size:26.56672859px;font-family:'Keep Calm';-inkscape-font-specification:'Keep Calm Medium';fill:#000000;fill-opacity:1"
         id="path4242" />
      <path
         d="m 264.39439,61.361386 h -4.54291 l -1.51431,-4.835144 q -0.2391,-0.797002 -0.61103,-1.46117 -0.34537,-0.664169 -0.85014,-1.14237 -0.50476,-0.478201 -1.22207,-0.743868 -0.69073,-0.265668 -1.64713,-0.265668 h -1.54087 v 8.44822 h -4.06471 V 40.13457 L 256.7963,40.108 q 1.35491,0 2.52384,0.478201 1.16894,0.451635 2.01907,1.275203 0.85014,0.823569 1.32834,1.939372 0.4782,1.115802 0.4782,2.417572 0,0.929835 -0.29223,1.806537 -0.29224,0.876702 -0.82357,1.620571 -0.53134,0.743868 -1.2752,1.328336 -0.71731,0.557902 -1.59401,0.850136 1.00954,0.371934 1.64714,1.089235 0.6376,0.690735 1.00954,1.673704 0.18596,0.451635 0.34536,0.903269 0.1594,0.451635 0.3188,0.956402 0.18597,0.478202 0.37194,1.06267 0.21253,0.557901 0.45163,1.248636 0.29224,0.876702 0.53134,1.514303 0.26566,0.611035 0.5579,1.089236 z m -5.39305,-14.850801 q 0,-0.743869 -0.29223,-1.354903 -0.26567,-0.611035 -0.74387,-1.062669 -0.4782,-0.451635 -1.14237,-0.690735 -0.6376,-0.265668 -1.38147,-0.265668 h -2.97547 v 6.615116 h 2.97547 q 0.74387,0 1.38147,-0.212534 0.66417,-0.239101 1.14237,-0.664168 0.4782,-0.425068 0.74387,-1.009536 0.29223,-0.611035 0.29223,-1.354903 z"
         style="font-style:normal;font-variant:normal;font-weight:500;font-stretch:normal;font-size:26.56672859px;font-family:'Keep Calm';-inkscape-font-specification:'Keep Calm Medium';fill:#000000;fill-opacity:1"
         id="path4244" />
      <path
         d="m 271.04312,61.361386 h -4.11784 V 40.13457 h 4.11784 z"
         style="font-style:normal;font-variant:normal;font-weight:500;font-stretch:normal;font-size:26.56672859px;font-family:'Keep Calm';-inkscape-font-specification:'Keep Calm Medium';fill:#000000;fill-opacity:1"
         id="path4246" />
      <path
         d="m 296.45917,61.361386 h -4.51634 L 289.97689,57.11071 H 279.669 l -1.9925,4.250676 h -4.51635 l 10.04223,-21.253383 h 3.21457 z m -8.10285,-7.677784 -3.53337,-7.651218 -3.58651,7.651218 z"
         style="font-style:normal;font-variant:normal;font-weight:500;font-stretch:normal;font-size:26.56672859px;font-family:'Keep Calm';-inkscape-font-specification:'Keep Calm Medium';fill:#000000;fill-opacity:1"
         id="path4248" />
      <path
         d="m 312.76368,55.782373 q 0,1.195503 -0.53134,2.284739 -0.50477,1.062669 -1.4346,1.886238 -0.92984,0.823568 -2.20504,1.328336 -1.2752,0.478201 -2.81607,0.478201 -1.38147,0 -2.49727,-0.1594 -1.08924,-0.159401 -2.07221,-0.504768 -0.9564,-0.345368 -1.85967,-0.876702 -0.8767,-0.557901 -1.8331,-1.328337 l 2.92234,-2.948906 q 1.2752,1.062669 2.49727,1.514303 1.22207,0.425068 2.65667,0.425068 0.58447,0 1.08924,-0.159401 0.53133,-0.185967 0.90327,-0.478201 0.3985,-0.292234 0.61103,-0.690735 0.2391,-0.398501 0.2391,-0.876702 0,-0.504768 -0.18597,-0.903269 -0.18596,-0.3985 -0.66416,-0.770435 -0.47821,-0.371934 -1.32834,-0.743868 -0.85014,-0.398501 -2.17847,-0.876702 -1.16894,-0.425068 -2.25817,-0.956402 -1.06267,-0.557902 -1.88624,-1.328337 -0.797,-0.770435 -1.30177,-1.806537 -0.4782,-1.036103 -0.4782,-2.444139 0,-1.354903 0.53133,-2.497273 0.5579,-1.142369 1.48774,-1.939371 0.9564,-0.823569 2.20504,-1.275203 1.2752,-0.451634 2.73637,-0.451634 2.44414,0 4.11784,0.637601 1.67371,0.637602 2.97548,1.859671 l -2.86921,2.895774 q -0.797,-0.770436 -1.77997,-1.168937 -0.98297,-0.425067 -2.31131,-0.425067 -0.61103,0 -1.14237,0.185967 -0.50476,0.185967 -0.8767,0.504768 -0.37193,0.292234 -0.61103,0.717301 -0.21254,0.398501 -0.21254,0.850136 0,0.504768 0.21254,0.929835 0.21253,0.398501 0.7173,0.797002 0.50477,0.371934 1.32834,0.770435 0.85013,0.371934 2.09877,0.823569 1.594,0.557901 2.73637,1.222069 1.14237,0.664169 1.85967,1.46117 0.7173,0.797002 1.06267,1.806538 0.34537,0.982969 0.34537,2.231605 z"
         style="font-style:normal;font-variant:normal;font-weight:500;font-stretch:normal;font-size:26.56672859px;font-family:'Keep Calm';-inkscape-font-specification:'Keep Calm Medium';fill:#000000;fill-opacity:1"
         id="path4250" />
    </g>
    <path
       id="path1163-3-0-7-0"
       d="m 234.53086,72.87791 v 44.83172 h 44.83173 V 72.87791 Z"
       style="display:inline;fill:none;stroke:#efb300;stroke-width:0.67878628;stroke-miterlimit:4;stroke-dasharray:none;stroke-opacity:1" />
    <path
       id="path1163-3-0-7-0-3"
       d="m 268.51054,93.145663 c 2.67858,0 4.6042,0.932251 5.99186,3.373112 l -3.28068,2.106242 c -0.72225,-1.295142 -1.50138,-1.8053 -2.71118,-1.8053 -1.23394,0 -2.01609,0.78271 -2.01609,1.8053 0,1.263832 0.78284,1.775553 2.59034,2.558323 l 1.05329,0.45113 c 3.57935,1.53495 5.60029,3.09976 5.60029,6.61799 0,3.7929 -2.97941,5.87081 -6.98086,5.87081 -3.91242,0 -6.44004,-1.86445 -7.67686,-4.30813 l 3.42349,-1.98883 c 0.90299,1.47447 2.07796,2.55815 4.15585,2.55815 1.74563,0 2.86057,-0.87236 2.86057,-2.07784 0,-1.44457 -1.14567,-1.95617 -3.06703,-2.79659 l -1.053,-0.45188 c -3.04,-1.29515 -5.05967,-2.91774 -5.05967,-6.347724 0,-3.159582 2.40736,-5.564763 6.16968,-5.564763 z m -13.91986,0.240533 h 4.21273 v 14.381784 c 0,4.3622 -2.55757,6.34753 -6.29069,6.34753 -3.37311,0 -5.32635,-1.74564 -6.31972,-3.8481 l 3.42914,-2.07613 c 0.66183,1.17416 1.26399,2.16685 2.71138,2.16685 1.38414,0 2.25716,-0.54149 2.25716,-2.64716 z"
       style="display:inline;fill:#efb300;fill-opacity:1;stroke:none;stroke-width:0.67878628;stroke-miterlimit:4;stroke-dasharray:none;stroke-opacity:1" />
  </g>
</svg>
