<svg xmlns="http://www.w3.org/2000/svg" height="263.025" width="265.75"><path d="M264.28 131.51c0 72.634-58.881 131.515-131.515 131.515-72.634 0-131.515-58.881-131.515-131.515C1.25 58.876 60.131-.005 132.765-.005c72.634 0 131.515 58.881 131.515 131.515" fill="#485faf"/><path d="M200.654 100.607a71.999 71.999 0 0 0-1.513-4.173 72.595 72.595 0 0 0 1.513-4.174c4.704-14.383 3.279-26.184-4.01-33.231-2.145-2.075-4.72-3.654-7.663-4.739-1.121-2.843-2.756-5.333-4.901-7.406-2.146-2.075-4.723-3.654-7.664-4.739-1.122-2.844-2.756-5.334-4.902-7.409-7.289-7.046-19.499-8.421-34.376-3.875a78.782 78.782 0 0 0-4.318 1.463 79.143 79.143 0 0 0-4.317-1.463c-14.88-4.546-27.089-3.171-34.378 3.875-2.147 2.075-3.779 4.565-4.902 7.408-2.942 1.086-5.517 2.665-7.664 4.74-2.145 2.073-3.779 4.563-4.902 7.406-2.94 1.085-5.516 2.664-7.663 4.74-7.288 7.046-8.713 18.848-4.007 33.231a72.705 72.705 0 0 0 1.512 4.174 71.658 71.658 0 0 0-1.512 4.173c-4.704 14.382-3.28 26.184 4.007 33.23 2.147 2.075 4.722 3.652 7.664 4.737 1.122 2.844 2.756 5.335 4.902 7.41 2.147 2.075 4.722 3.651 7.663 4.736 1.123 2.845 2.757 5.335 4.902 7.409 4.47 4.321 10.785 6.509 18.432 6.509 4.828 0 10.187-.874 15.947-2.633a78.49 78.49 0 0 0 4.316-1.461 78.927 78.927 0 0 0 4.318 1.462c5.76 1.76 11.117 2.633 15.947 2.633 7.646 0 13.964-2.189 18.43-6.508 2.146-2.074 3.78-4.564 4.903-7.41 2.94-1.085 5.516-2.662 7.662-4.736 2.145-2.075 3.781-4.566 4.902-7.41 2.943-1.085 5.518-2.662 7.663-4.736 7.289-7.046 8.713-18.847 4.009-33.232m-5.396-40.238c7.38 7.134 7.912 19.498 2.802 33.47-2.371-5.414-5.469-10.889-9.194-16.28 2.248-7.961 2.538-15.051.919-20.881 2.064.941 3.9 2.17 5.473 3.691m-7.806 76.728c-2.76.902-5.863 1.353-9.255 1.352-.132-2.677-.546-5.506-1.243-8.47 3.848-4.09 7.35-8.322 10.46-12.62 1.882 7.453 1.965 14.239.039 19.738m-109.267-.004c-1.923-5.499-1.84-12.283.04-19.734a127.91 127.91 0 0 0 10.46 12.62c-.698 2.968-1.11 5.801-1.243 8.481-3.356-.002-6.465-.454-9.257-1.367m0-81.319c2.758-.9 5.852-1.36 9.239-1.36h.018c.132 2.679.545 5.509 1.242 8.474-3.838 4.081-7.336 8.304-10.44 12.595-1.93-7.636-1.934-14.339-.059-19.709M90.752 43.63c2.758-.902 5.852-1.361 9.239-1.361 3.438 0 7.175.469 11.156 1.409a130.582 130.582 0 0 0-13.03 10.093c-3.064-.675-5.993-1.072-8.761-1.201-.003-3.276.464-6.272 1.396-8.94m87.462 10.785c3.387 0 6.481.46 9.24 1.361 1.923 5.498 1.841 12.282-.04 19.732a127.684 127.684 0 0 0-10.46-12.62c.697-2.965 1.111-5.795 1.243-8.473h.017m-7.25 78.894a136.522 136.522 0 0 1-4.003 3.712 65.419 65.419 0 0 1-4.101-1.115c-4.136-1.265-8.348-2.957-12.57-5.033a137.574 137.574 0 0 0 18.156-17.553c2.932 5.546 5.079 10.979 6.38 16.1a137.934 137.934 0 0 1-3.862 3.889m4.382-1.649c.486 2.328.789 4.581.9 6.742a48.834 48.834 0 0 1-6.969-.874 135.41 135.41 0 0 0 6.07-5.868m-16.948-10.499a134.743 134.743 0 0 1-9.999 8.753c-4.686-2.431-9.371-5.329-13.964-8.636a135.82 135.82 0 0 0 12.783-10.923A133.955 133.955 0 0 0 158.516 98c3.458 4.487 6.448 9.02 8.94 13.496-2.778 3.28-5.8 6.515-9.057 9.665M94.676 133.31a136.859 136.859 0 0 1-3.862-3.89c1.3-5.12 3.449-10.553 6.379-16.099a135.872 135.872 0 0 0 8.661 9.181 137.186 137.186 0 0 0 9.497 8.372c-5.737 2.833-11.358 4.908-16.655 6.166a139.676 139.676 0 0 1-4.02-3.73m1.7 4.23c-2.41.47-4.745.765-6.983.872.111-2.163.414-4.42.902-6.751a140.623 140.623 0 0 0 2.994 2.988c1.018.983 2.049 1.947 3.087 2.89m10.865-16.377a134.13 134.13 0 0 1-9.06-9.661c2.493-4.476 5.483-9.011 8.941-13.5a134.241 134.241 0 0 0 11.298 12.355 135.89 135.89 0 0 0 12.777 10.918c-4.642 3.342-9.333 6.236-13.962 8.645a135.1 135.1 0 0 1-9.994-8.757m-.002-49.455c3.235-3.125 6.58-6.05 9.995-8.755 4.686 2.432 9.374 5.33 13.969 8.64a135.665 135.665 0 0 0-12.785 10.923A134.048 134.048 0 0 0 107.12 94.87c-3.423-4.44-6.42-8.968-8.936-13.501a133.972 133.972 0 0 1 9.055-9.664m-10.044 7.839c-2.149-4.081-3.901-8.151-5.208-12.149a62.792 62.792 0 0 1-1.155-3.968 138.82 138.82 0 0 1 3.843-3.867 138.058 138.058 0 0 1 4.002-3.715c1.34.319 2.71.69 4.103 1.117 4.136 1.265 8.347 2.957 12.569 5.035a137.753 137.753 0 0 0-9.497 8.368 136.667 136.667 0 0 0-8.657 9.179m61.204-7.837c3.258 3.15 6.28 6.385 9.057 9.663-2.492 4.475-5.482 9.009-8.94 13.497a133.914 133.914 0 0 0-11.296-12.353 135.848 135.848 0 0 0-12.784-10.924c4.595-3.31 9.283-6.208 13.969-8.64 3.416 2.705 6.76 5.63 9.994 8.757m-8.109-9.712c4.221-2.077 8.434-3.77 12.57-5.035a69.127 69.127 0 0 1 4.102-1.117 134.273 134.273 0 0 1 4.002 3.717 134.525 134.525 0 0 1 3.861 3.887c-1.301 5.12-3.448 10.553-6.379 16.1a135.949 135.949 0 0 0-8.661-9.18 136.664 136.664 0 0 0-9.495-8.372m6.997 34.438a131.755 131.755 0 0 1-11.455 12.58 133.334 133.334 0 0 1-13.016 11.076 133.45 133.45 0 0 1-13.01-11.076 131.727 131.727 0 0 1-11.458-12.576 132.055 132.055 0 0 1 11.457-12.584 133.912 133.912 0 0 1 13.015-11.079 134.083 134.083 0 0 1 13.014 11.08 131.742 131.742 0 0 1 11.453 12.579M132.82 70.395c-4.578-3.326-9.25-6.257-13.933-8.735 4.561-3.494 9.238-6.587 13.934-9.225 4.695 2.638 9.371 5.731 13.931 9.225-4.681 2.478-9.355 5.409-13.932 8.735m-26.937 26.039c-3.442 4.425-6.472 8.944-9.035 13.469-3.615-4.41-6.815-8.93-9.543-13.467 2.702-4.488 5.897-9.011 9.546-13.465 2.562 4.524 5.591 9.04 9.032 13.463m26.938 26.039c4.574 3.326 9.245 6.255 13.925 8.73-4.609 3.53-9.289 6.615-13.931 9.227-4.694-2.636-9.368-5.729-13.927-9.222 4.682-2.478 9.354-5.408 13.933-8.735m26.936-26.04c3.441-4.422 6.47-8.938 9.033-13.462 3.65 4.453 6.844 8.975 9.546 13.463-2.703 4.486-5.896 9.009-9.546 13.464-2.563-4.524-5.591-9.04-9.033-13.464m10.04-15.288c2.379-4.422 4.308-8.842 5.726-13.178.317-.964.6-1.917.86-2.857 3.872 4.197 7.34 8.497 10.367 12.812-1.585 5.312-4.041 10.918-7.298 16.607-2.784-4.519-6.021-9.007-9.655-13.384m5.549-19.938a135.007 135.007 0 0 0-6.063-5.861 49.158 49.158 0 0 1 6.963-.88c-.111 2.16-.414 4.414-.9 6.74m-7.822-7.437a130.474 130.474 0 0 0-13.03-10.092c3.98-.94 7.717-1.41 11.156-1.41 3.387 0 6.481.46 9.239 1.362.943 2.696 1.406 5.699 1.408 8.94-2.772.126-5.703.525-8.773 1.2m-2.3.551c-.972.253-1.957.528-2.956.833-4.485 1.371-9.058 3.236-13.635 5.536-4.526-3.514-9.17-6.642-13.845-9.332 5.202-2.777 10.412-4.985 15.507-6.542a66.494 66.494 0 0 1 1.712-.495c4.494 2.949 8.928 6.3 13.218 10m-15.52-11.313c-5.55 1.696-11.23 4.142-16.884 7.242-5.655-3.097-11.334-5.546-16.883-7.241-.06-.019-.119-.035-.178-.053 5.67-3.547 11.41-6.446 17.061-8.597 5.65 2.151 11.393 5.05 17.06 8.596-.06.019-.117.034-.176.053m-34.358 1.808c5.093 1.557 10.305 3.765 15.505 6.542-4.675 2.69-9.319 5.818-13.846 9.332-4.575-2.3-9.148-4.164-13.633-5.535a70.14 70.14 0 0 0-2.957-.832 127.05 127.05 0 0 1 13.218-10.002c.568.158 1.136.319 1.713.495m-18.99 10.53a138.212 138.212 0 0 0-6.045 5.845 44.233 44.233 0 0 1-.905-6.721c2.21.11 4.53.403 6.95.876m-7.1 9.767c.26.938.546 1.89.861 2.855 1.42 4.336 3.347 8.756 5.727 13.178-3.636 4.377-6.872 8.868-9.655 13.385-2.872-5.027-5.157-10.063-6.768-14.987-.18-.555-.35-1.103-.511-1.648 3.024-4.305 6.483-8.596 10.346-12.783m-11.705 15c1.755 5.365 4.287 10.856 7.492 16.32-3.205 5.467-5.737 10.956-7.49 16.32-.02.058-.037.116-.056.173-3.674-5.487-6.675-11.046-8.903-16.516 2.195-5.352 5.185-10.905 8.906-16.459.017.054.033.109.051.163m8.638 18.225c2.783 4.517 6.02 9.006 9.655 13.382-2.38 4.423-4.308 8.843-5.727 13.179-.315.965-.6 1.918-.861 2.859-3.836-4.158-7.31-8.454-10.367-12.806 1.585-5.317 4.042-10.925 7.3-16.614M98.11 139.09c4.232 3.72 8.611 7.109 13.061 10.115-3.913.924-7.652 1.404-11.125 1.404-3.37 0-6.492-.453-9.295-1.369-.942-2.696-1.406-5.7-1.41-8.941 2.77-.128 5.703-.536 8.77-1.209m2.299-.55a69.558 69.558 0 0 0 2.962-.828c4.485-1.372 9.058-3.237 13.633-5.535 4.527 3.512 9.169 6.641 13.842 9.33-5.884 3.15-11.685 5.527-17.183 7.061a127.226 127.226 0 0 1-13.254-10.029m15.528 11.319c5.548-1.695 11.227-4.143 16.88-7.242 5.656 3.1 11.336 5.547 16.886 7.243.056.019.111.031.166.049-5.746 3.598-11.488 6.487-17.026 8.611-5.659-2.155-11.41-5.056-17.087-8.609.061-.018.12-.033.18-.052m34.357-1.805c-5.094-1.556-10.305-3.768-15.508-6.544 4.675-2.69 9.32-5.819 13.846-9.332 4.577 2.3 9.15 4.165 13.635 5.536 1.002.306 1.987.575 2.962.827a127.37 127.37 0 0 1-13.232 10.007 75.564 75.564 0 0 1-1.703-.494m17.235-8.962c3.066.674 5.999 1.082 8.769 1.21-.004 3.24-.467 6.247-1.412 8.943-5.555 1.815-12.491 1.811-20.392-.054a130.908 130.908 0 0 0 13.035-10.099m8.855-11.334a65.894 65.894 0 0 0-.86-2.855c-1.419-4.338-3.349-8.76-5.728-13.182 3.634-4.376 6.872-8.866 9.655-13.383 3.257 5.687 5.713 11.295 7.298 16.608-3.028 4.314-6.494 8.615-10.365 12.812m11.706-15.003c-1.755-5.364-4.287-10.855-7.494-16.321 3.207-5.466 5.738-10.956 7.493-16.32l.051-.164c3.728 5.563 6.72 11.121 8.915 16.484-2.194 5.361-5.187 10.92-8.914 16.484l-.051-.163m-5.397-64.532a18.685 18.685 0 0 1 3.82 5.292c-2.535-.659-5.304-.987-8.27-.99-.003-2.866-.344-5.541-1.024-7.991 2.065.94 3.901 2.167 5.474 3.689M137.73 32.669c5.57-1.701 10.731-2.548 15.354-2.548 7.115 0 12.953 2.003 17.043 5.955a18.733 18.733 0 0 1 3.82 5.293c-6.03-1.566-13.367-1.285-21.6.887-5.568-3.595-11.225-6.583-16.815-8.875a77.312 77.312 0 0 1 2.198-.712m-42.218 3.407c4.09-3.952 9.928-5.953 17.045-5.953 4.621 0 9.784.845 15.355 2.547.73.223 1.462.463 2.195.711-5.59 2.292-11.245 5.28-16.813 8.875-8.233-2.172-15.569-2.453-21.6-.89a18.692 18.692 0 0 1 3.818-5.29M82.945 48.223c1.574-1.522 3.41-2.75 5.474-3.69-.68 2.45-1.019 5.126-1.021 7.993-2.967.002-5.734.33-8.268.988a18.71 18.71 0 0 1 3.815-5.291M66.856 91.689c-4.473-13.675-3.22-24.798 3.525-31.319 1.574-1.521 3.408-2.75 5.473-3.691-1.62 5.83-1.328 12.92.919 20.881-3.718 5.381-6.81 10.848-9.18 16.251a71.038 71.038 0 0 1-.737-2.122m3.525 40.809c-7.38-7.135-7.91-19.498-2.8-33.47 2.37 5.412 5.468 10.888 9.193 16.28-2.248 7.962-2.538 15.055-.918 20.883-2.05-.933-3.888-2.16-5.475-3.693m12.566 12.147a18.69 18.69 0 0 1-3.822-5.298c2.538.66 5.303.997 8.273 1 .002 2.866.342 5.54 1.023 7.99-2.05-.932-3.887-2.158-5.474-3.692m29.665 18.112c-6.984-.002-12.913-1.921-17.1-5.967a18.735 18.735 0 0 1-3.822-5.295c2.545.66 5.32.996 8.3.996 4.08 0 8.54-.629 13.298-1.882 5.58 3.601 11.246 6.597 16.847 8.89-6.253 2.136-12.196 3.258-17.523 3.258m57.517-5.966c-6.746 6.523-18.251 7.732-32.399 3.408a67.922 67.922 0 0 1-2.197-.713c5.59-2.29 11.248-5.28 16.818-8.877 4.758 1.255 9.219 1.885 13.3 1.885 2.979 0 5.754-.337 8.3-.998a18.721 18.721 0 0 1-3.822 5.295m12.564-12.145c-1.573 1.522-3.41 2.75-5.473 3.689.68-2.449 1.02-5.122 1.024-7.988 2.969-.002 5.735-.34 8.272-.998a18.71 18.71 0 0 1-3.823 5.297m7.093-8.457c1.619-5.829 1.328-12.92-.92-20.88 3.725-5.393 6.823-10.869 9.194-16.283 5.11 13.974 4.58 26.338-2.801 33.473-1.574 1.521-3.41 2.749-5.473 3.69" fill="#78d3e4"/><text style="-inkscape-font-specification:FreightSansProLight-Regular" transform="matrix(1.25 0 0 1.25 82.175 207.764)" font-weight="400" font-size="30" font-family="FreightSansProLight" fill="#78d3e4"><tspan y="0" x="0 22.5 35.310001 50.368755 60.268169 66.058167">Madrid</tspan></text></svg>