<svg xmlns="http://www.w3.org/2000/svg" width="415.037" height="350.777"><g fill="none"><g transform="translate(78.937 -.523)" fill="#3880ff"><circle cx="212.327" cy="49.159" r="26.672"/><path d="M245.1 75.831l-1.046-2.44-1.743 2.091c-4.358 4.882-9.937 8.717-16.038 10.983l-1.743.697.697 1.743c5.404 12.726 8.019 26.323 8.019 40.095 0 57.701-46.893 104.769-104.769 104.769C70.601 233.769 23.882 186.7 23.882 129c0-57.701 46.894-104.769 104.77-104.769 15.689 0 30.68 3.487 44.8 10.11l1.57.698.697-1.743c2.615-6.101 6.624-11.331 11.854-15.515l2.092-1.743-2.44-1.22C168.92 5.404 149.221.523 128.476.523 57.876.523.349 58.05.349 128.651c0 70.602 57.527 128.129 128.128 128.129 70.601 0 128.128-57.527 128.128-128.129 0-18.13-3.835-35.91-11.505-52.82z"/></g><path d="M178.437 310.477c2.4-1.5 5.1-2.2 8-2.2 1.1 0 2.2.1 3.4.3 1.2.2 2.3.7 3.5 1.3 1.1.7 2.2 1.5 3.1 2.6.9 1.1 1.8 2.5 2.5 4.2 1.4-2.8 3.3-4.9 5.7-6.3 2.4-1.5 5.2-2.2 8.5-2.2 5.1 0 9 1.5 11.5 4.6 2.6 3.1 3.8 7.1 3.8 12.1v24.8h-5.9v-22.4c0-4.3-.8-7.7-2.4-10.3-1.6-2.6-4.3-3.9-8.1-3.9-2.1 0-3.9.4-5.4 1.3-1.5.9-2.6 2-3.5 3.4-.9 1.4-1.5 3-1.9 4.8-.4 1.8-.6 3.6-.6 5.5v21.5h-5.9v-23.6c0-2-.1-3.7-.4-5.4-.3-1.6-.8-3-1.5-4.1-.7-1.1-1.7-2-3-2.6-1.3-.6-2.9-.9-4.8-.9-1.4 0-2.8.3-4.2.9-1.4.6-2.7 1.6-3.8 2.9-1.1 1.3-2 2.9-2.7 4.9-.7 2-1 4.3-1 7v20.7h-5.9v-31.5c0-1.1 0-2.5-.1-4.2-.1-1.7-.1-3.3-.3-4.7h5.6c.1 1.1.2 2.3.3 3.6.1 1.3.1 2.4.1 3.3h.2c1-2 2.8-3.9 5.2-5.4zm86.3 13.1c0-3.5-.9-6.1-2.8-7.8-1.8-1.7-4.5-2.6-8-2.6-2.4 0-4.7.4-6.7 1.3-2.1.9-3.8 2-5.3 3.5l-3.3-3.9c1.7-1.7 3.9-3 6.6-4.1 2.7-1.1 5.8-1.6 9.3-1.6 2.2 0 4.2.3 6.1.9 1.9.6 3.6 1.5 5 2.7 1.4 1.2 2.6 2.7 3.4 4.6.8 1.8 1.2 4 1.2 6.5v17.7c0 1.6.1 3.2.2 4.8.1 1.7.3 3.1.5 4.2h-5.3c-.2-1-.3-2-.4-3.2-.1-1.2-.2-2.3-.2-3.4h-.1c-1.8 2.7-3.9 4.6-6.3 5.8-2.3 1.2-5.1 1.8-8.4 1.8-1.6 0-3.2-.2-4.8-.6-1.6-.4-3.1-1.1-4.5-2.1s-2.5-2.3-3.4-3.8c-.9-1.6-1.3-3.5-1.3-5.7 0-3.1.8-5.6 2.4-7.4 1.6-1.8 3.7-3.2 6.3-4.1 2.6-.9 5.7-1.5 9.1-1.7 3.4-.3 7-.4 10.7-.4zm-1.7 6c-2.4 0-4.8.1-7.3.3-2.4.2-4.7.6-6.6 1.2-2 .6-3.6 1.5-4.9 2.6-1.3 1.2-1.9 2.7-1.9 4.6 0 1.4.3 2.6.8 3.6s1.3 1.8 2.2 2.4c.9.6 1.9 1 3.1 1.3 1.1.3 2.3.4 3.4.4 2.1 0 3.9-.4 5.5-1.1 1.6-.7 3-1.7 4.1-2.9 1.1-1.2 1.9-2.7 2.5-4.3.6-1.6.9-3.3.9-5.1v-3zm51.2 13.3c-1.7 2.6-4 4.5-6.7 5.9-2.8 1.3-5.6 2-8.5 2-3.2 0-6-.5-8.6-1.6-2.6-1.1-4.7-2.6-6.6-4.5-1.8-1.9-3.2-4.1-4.2-6.7-1-2.6-1.5-5.4-1.5-8.4s.5-5.8 1.5-8.4c1-2.6 2.4-4.8 4.2-6.7 1.8-1.9 4-3.4 6.6-4.5 2.6-1.1 5.4-1.6 8.6-1.6 2.9 0 5.8.7 8.5 2 2.8 1.4 5 3.4 6.7 6h.2v-28.9h5.9v62.3h-5.9v-6.8h-.2zm-29.9-13.3c0 2.2.3 4.4 1 6.3.7 2 1.7 3.7 3 5.2s2.9 2.6 4.8 3.5c1.9.8 4.1 1.3 6.5 1.3 2.2 0 4.3-.4 6.2-1.3 1.9-.8 3.5-2 4.9-3.4 1.4-1.4 2.5-3.2 3.2-5.1.8-2 1.2-4.1 1.2-6.4 0-2.3-.4-4.4-1.2-6.4-.8-2-1.9-3.7-3.2-5.2-1.4-1.5-3-2.6-4.9-3.5-1.9-.8-4-1.3-6.2-1.3-2.4 0-4.6.4-6.5 1.3-1.9.9-3.5 2-4.8 3.5-1.3 1.5-2.3 3.2-3 5.2-.7 1.9-1 4-1 6.3zm47.3-15.6c-.1-1.7-.1-3.3-.3-4.7h5.6c.1 1.1.2 2.3.3 3.6.1 1.3.1 2.4.1 3.3h.2c1.2-2.4 2.9-4.3 5.2-5.7 2.3-1.5 4.9-2.2 7.8-2.2.7 0 1.4 0 2 .1.6.1 1.2.2 1.9.3l-.8 5.6c-.3-.1-.9-.2-1.7-.3-.8-.1-1.6-.2-2.4-.2-1.6 0-3.1.3-4.5.9-1.4.6-2.7 1.5-3.8 2.7-1.1 1.2-1.9 2.8-2.6 4.7-.7 1.9-1 4.2-1 6.9v20.7h-5.9v-31.5c0-1-.1-2.5-.1-4.2zm34-17.2c0 1.2-.4 2.2-1.3 3-.9.8-1.8 1.2-2.8 1.2-1 0-2-.4-2.8-1.2-.9-.8-1.3-1.8-1.3-3s.4-2.2 1.3-3c.9-.8 1.8-1.2 2.8-1.2 1 0 2 .4 2.8 1.2.9.8 1.3 1.8 1.3 3zm-1.2 53h-5.9v-40.4h5.9zm44.5-6.9c-1.7 2.6-4 4.5-6.7 5.9-2.8 1.3-5.6 2-8.5 2-3.2 0-6-.5-8.6-1.6-2.6-1.1-4.7-2.6-6.6-4.5-1.8-1.9-3.2-4.1-4.2-6.7-1-2.6-1.5-5.4-1.5-8.4s.5-5.8 1.5-8.4c1-2.6 2.4-4.8 4.2-6.7 1.8-1.9 4-3.4 6.6-4.5 2.6-1.1 5.4-1.6 8.6-1.6 2.9 0 5.8.7 8.5 2 2.8 1.4 5 3.4 6.7 6h.2v-28.9h5.9v62.3h-5.9v-6.8h-.2zm-29.9-13.3c0 2.2.3 4.4 1 6.3.7 2 1.7 3.7 3 5.2s2.9 2.6 4.8 3.5c1.9.8 4.1 1.3 6.5 1.3 2.2 0 4.3-.4 6.2-1.3 1.9-.8 3.5-2 4.9-3.4 1.4-1.4 2.5-3.2 3.2-5.1.8-2 1.2-4.1 1.2-6.4 0-2.3-.4-4.4-1.2-6.4-.8-2-1.9-3.7-3.2-5.2-1.4-1.5-3-2.6-4.9-3.5-1.9-.8-4-1.3-6.2-1.3-2.4 0-4.6.4-6.5 1.3-1.9.9-3.5 2-4.8 3.5-1.3 1.5-2.3 3.2-3 5.2-.7 1.9-1 4-1 6.3z" fill="#4e8ef7"/><path d="M0 308.742h9.819v40.471H0zm105.979 0h9.819v40.471h-9.819zm-22.678-.949c-6.905 0-12.226 4.174-13.43 5.312l-.633-4.363h-8.172v40.47h9.82V324.74c0-4.806 6.524-8.726 11.338-8.726 4.688 0 8.362 4.553 8.362 9.99v23.208h9.819v-22.259c-.064-10.623-4.688-19.16-17.104-19.16zm58.216 34.084c-7.412 0-12.29-5.754-12.29-12.9 0-7.146 4.878-12.9 12.29-12.9 6.271 0 10.135 6.07 10.135 6.07l7.095-4.742c-2.027-3.162-4.434-5.059-7.665-7.02-2.407-1.454-5.638-2.655-9.249-2.655-12.289 0-21.664 9.232-21.727 21.184.063 11.951 9.438 21.184 21.727 21.184 3.611 0 6.842-1.202 9.249-2.656 3.23-1.96 5.638-3.858 7.665-7.02l-7.095-4.742c0 .063-3.8 6.197-10.135 6.197zM35.411 307.793c-12.352 0-21.221 9.675-21.221 20.994 0 11.51 8.615 21.374 21.411 21.374 11.593 0 21.031-8.853 21.031-21.12 0-14.039-11.022-21.248-21.22-21.248zm.127 8.347c6.081 0 11.846 4.933 11.846 12.9 0 7.778-5.765 12.837-11.91 12.837-6.714 0-12.035-5.438-12.035-12.9 0-7.399 5.257-12.837 12.099-12.837z" fill="#3880ff"/><path d="M241.937 165.477c-2.1 0-1.5-3.6-2.8-4.8-1.3-1.2-.6-2.3.3-3.5 1.8-2.2 1.7-4.3.1-6.9-3.2-5.1-7.5-9.9-6.3-16.7.2-1-.5-2.4-1.1-3.4-1.2-1.9-1.3-3.5-.1-5.6 2-3.5.1-5.9-3.8-7.2-2.9-.9-6.4-.3-8.6-3.2 2.4-1 4.8-1.8 7-3 5.8-3.1 10.8-7.2 10.6-14.4-.2-7.2-4.9-11.6-11-14.2-11.4-4.8-23.2-5.4-34.7-.1-2.9 1.3-5.4 3.2-7.5 5.6-4.9 5.7-4.8 12.7.3 18.1 4.6 4.9 10.6 7.3 17.1 8.4 1.4.2 2.5.7 2.5 1.5v45c0 3-1.8 4.1-5.4 4.1-2.5 0-5.5.3-8.7.3h-34.5l35.4 21.8 47.2-.5 21.9-21.3zm-23.2-34.6c-1.5-1.2-3.8-4.1-3.8-7v-8.8c0-.1.9-.1 2.2-.2-2.7 5.8 2.4 10.6 1.6 16zm4.8 34.3c-.1 0-.2.3-.3.3h-5.2c-1.8-1-3.2-2.4-3.2-4.6v-17.2c2 .7 3.9 1.9 4 5.1.1 2.4 1.7 4.8 3 7.1s1.8 5.2 3.7 7.4c.7.6-.7 1.7-2 1.9z" fill="#204fc6"/><path d="M207.937 48.677c-44 0-79.6 35.7-79.6 79.6 0 43.9 35.7 79.6 79.6 79.6 43.9 0 79.6-35.7 79.6-79.6 0-43.9-35.6-79.6-79.6-79.6zm0 135.6c-31 0-56-25.1-56-56 0-31 25.1-56 56-56s56 25.1 56 56-25 56-56 56z" fill="#518efe"/><path d="M154.737 78.277l2.1 3.6h4.2l-2.1 3.7 2.1 3.6h-4.2l-2.1 3.7-2.1-3.7h-4.2l2.1-3.6-2.1-3.7h4.2zm105.9 0l2.1 3.6h4.2l-2.1 3.7 2.1 3.6h-4.2l-2.1 3.7-2.1-3.7h-4.2l2.1-3.6-2.1-3.7h4.2zM140.137 121.377l2.1 3.6h4.2l-2.1 3.7 2.1 3.6h-4.2l-2.1 3.7-2.1-3.7h-4.2l2.1-3.6-2.1-3.7h4.2zm136.6 0l2.1 3.6h4.2l-2.1 3.7 2.1 3.6h-4.2l-2.1 3.7-2.1-3.7h-4.2l2-3.6-2-3.7h4.2zM208.037 53.377l2.1 3.7h4.2l-2 3.6 2 3.7h-4.2l-2.1 3.6-2.1-3.6h-4.2l2.1-3.7-2.1-3.6h4.2zM160.137 169.577l2.1 3.6h4.2l-2.1 3.7 2.1 3.6h-4.2l-2.1 3.7-2.2-3.7h-4.2l2.1-3.6-2.1-3.7h4.2zm94.9 0l2.1 3.6h4.2l-2.1 3.7 2.1 3.6h-4.2l-2.1 3.7-2.1-3.7h-4.2l2.1-3.6-2.1-3.7h4.2z" fill="#fdfefe"/><g transform="translate(182.937 90.477)" fill="#518efe"><circle cx="3.5" cy="6.4" r="3.3"/><circle cx="11.1" cy="10.5" r="3.3"/><circle cx="15.9" cy="17.3" r="3.3"/><circle cx="19.4" cy="4.2" r="3.3"/><circle cx="22.8" cy="11.8" r="3.3"/><circle cx="30.9" cy="11.8" r="3.3"/><circle cx="26.2" cy="19.3" r="3.3"/><circle cx="37.1" cy="5.6" r="3.3"/><circle cx="46.7" cy="8.4" r="3.3"/><circle cx="39.1" cy="14.5" r="3.3"/></g></g></svg>