<svg xmlns="http://www.w3.org/2000/svg" height="193.56" width="500.253"><defs><clipPath id="a" clipPathUnits="userSpaceOnUse"><path d="M1298.88 972.855v231.455c.04.57.12 1.15.12 1.68 0 122.67-304.426 224.61-705.73 245.72l-59.028-277.34c339.43-34.08 616.118-107.45 764.638-201.515z"/></clipPath><linearGradient id="b" spreadMethod="pad" gradientTransform="matrix(764.761 0 0 -764.761 534.243 1212.29)" gradientUnits="userSpaceOnUse" y2="0" x2="1" y1="0" x1="0"><stop offset="0" stop-color="#df3b25"/><stop offset=".419" stop-color="#df3b25"/><stop offset=".917" stop-color="#8a2924"/><stop offset="1" stop-color="#8a2924"/></linearGradient><linearGradient id="c" spreadMethod="pad" gradientTransform="matrix(1165.45 0 0 -1165.45 252.007 820.392)" gradientUnits="userSpaceOnUse" y2="0" x2="1" y1="0" x1="0"><stop offset="0" stop-color="#df3b25"/><stop offset=".419" stop-color="#df3b25"/><stop offset=".917" stop-color="#8a2924"/><stop offset="1" stop-color="#8a2924"/></linearGradient><linearGradient id="d" spreadMethod="pad" gradientTransform="matrix(957.554 0 0 -957.554 341.45 928.341)" gradientUnits="userSpaceOnUse" y2="0" x2="1" y1="0" x1="0"><stop offset="0" stop-color="#f6852c"/><stop offset=".69" stop-color="#f6852c"/><stop offset="1" stop-color="#c03a30"/></linearGradient><clipPath id="e" clipPathUnits="userSpaceOnUse"><path d="M106.988 338.148c-5.574 0-29.586.032-35.133.032L0 .96C30.309.31 76.133 0 106.988 0 830.781 0 1417.46 170.391 1417.46 380.621V718.75c0-210.223-586.679-380.602-1310.472-380.602z"/></clipPath><linearGradient id="f" spreadMethod="pad" gradientTransform="matrix(1417.46 0 0 -1417.46 0 359.38)" gradientUnits="userSpaceOnUse" y2="0" x2="1" y1="0" x1="0"><stop offset="0" stop-color="#f6852c"/><stop offset=".69" stop-color="#f6852c"/><stop offset="1" stop-color="#c03a30"/></linearGradient></defs><g clip-path="url(#a)" transform="matrix(.13333 0 0 -.13333 0 193.56)"><path d="M1298.88 972.855v231.455c.04.57.12 1.15.12 1.68 0 122.67-304.426 224.61-705.73 245.72l-59.028-277.34c339.43-34.08 616.118-107.45 764.638-201.515" fill="url(#b)"/></g><path d="M323.395 1092.61l-71.387-335.212c452.965-14.296 835.142-95.66 1029.332-209.222 87.1 50.965 136.12 108.328 136.12 169.121 0 188.562-474.147 345.113-1094.065 375.313" fill="url(#c)" fill-rule="evenodd" transform="matrix(.13333 0 0 -.13333 0 193.56)"/><path d="M1298.88 1204.31c.04.57.12 1.15.12 1.68 0-137.94-385.105-249.838-860.156-249.838-10.41 0-22.274.207-32.629.383l-64.766-304.172c32.406-1.101 63.996-1.679 97.395-1.679 475.051 0 860.156 111.793 860.156 249.804 0 .528-.08 1.114-.12 1.703v302.119" fill="url(#d)" fill-rule="evenodd" transform="matrix(.13333 0 0 -.13333 0 193.56)"/><g clip-path="url(#e)" transform="matrix(.13333 0 0 -.13333 0 193.56)"><path d="M106.988 338.148c-5.574 0-29.586.032-35.133.032L0 .96C30.309.31 76.133 0 106.988 0 830.781 0 1417.46 170.391 1417.46 380.621V718.75c0-210.223-586.679-380.602-1310.472-380.602" fill="url(#f)"/></g><path d="M255.837 122.703c-3.91 3.417-12.061 3.584-19.229 4.89-7.17 1.465-13.693 3.91-13.693 12.377 0 8.651 6.682 10.76 14.178 10.76 18.094 0 18.744-14.345 18.744-19.385zM202.38 105.59c1.304-21.68 20.695-28.205 39.603-28.205 16.786 0 37 3.753 37 23.968v43.845c0 7.659.816 15.318 2.937 18.742h-23.472c-.817-2.608-1.473-5.379-1.63-8.15-7.335 7.656-18.095 10.43-28.363 10.43-15.974 0-28.687-7.98-28.687-25.257 0-19.073 14.348-23.639 28.687-25.6 14.185-2.115 27.382-1.625 27.382-11.078 0-9.947-6.84-11.411-14.993-11.411-8.801 0-14.508 3.58-15.324 12.716h-23.14M332.527 94.829c-13.69 0-19.72 12.878-19.72 27.06 0 14.016 6.03 26.885 19.72 26.885 13.693 0 19.717-12.869 19.717-26.885 0-14.182-6.024-27.06-19.717-27.06zm-42.06-47.269h23.154v42.38h.326c5.702-8.645 16.134-12.556 26.57-12.556 16.788 0 34.879 13.539 34.879 44.339 0 30.966-18.09 44.497-34.879 44.497-12.39 0-22.656-3.748-27.71-13.041h-.327v10.76h-22.013V47.56M442.4 112.747c-2.116-11.725-7.175-17.918-18.421-17.918-14.668 0-18.906 11.41-19.228 17.918zm-37.65 14.683c.646 14.669 7.818 21.344 20.7 21.344 9.289 0 16.786-5.695 18.255-10.914h20.375c-6.521 19.884-20.375 28.36-39.45 28.36-26.567 0-43.025-18.262-43.025-44.33 0-25.265 17.44-44.506 43.024-44.506 28.688 0 42.548 24.127 40.918 50.046H404.75M477.11 47.56h23.138v116.379h-23.139V47.56" fill="#f6852c"/></svg>