<svg xmlns="http://www.w3.org/2000/svg" height="29.039" width="200.772" version="1.1" data-name="Layer 1" id="Layer_1"><defs id="defs4"><style id="style2">.cls-1{fill:#2f4050}</style></defs><path id="path8" d="M200.772 17.737V7.327c0-.81-.69-1-1.46-1.24a15.37 15.37 0 0 0-4.45-.65 16.68 16.68 0 0 0-3 .27 7 7 0 0 0-5.83 5.29 14.12 14.12 0 0 0 .06 7.3 6.85 6.85 0 0 0 4.71 4.82 9.36 9.36 0 0 0 2.25.44h1.48a7.87 7.87 0 0 0 2-.21c.72-.18 1.06-.48 1.06 0 0 1.42-1.42 3.18-5 2.9-.73-.06-1 0-1 .47v1.65c0 .52.45.56 1 .62 4.69.52 8.18-2.9 8.18-6.65zm-3.15 2.1c0 .72-.06 1.05-.76 1.21a11 11 0 0 1-2.56.25 10.79 10.79 0 0 1-1.15-.06 4.87 4.87 0 0 1-3.61-2.94 9.68 9.68 0 0 1-.61-5.51 6.87 6.87 0 0 1 .4-1.42 4.66 4.66 0 0 1 4.37-3.27 9.92 9.92 0 0 1 2.87.21c.56.13 1 .27 1 .79v10.74z" class="cls-1" fill="#2f4050"/><path id="path10" d="M148.142 18.067a4.5 4.5 0 0 0-2.13-3.45 9.25 9.25 0 0 0-2-.9 22.14 22.14 0 0 1-4.28-1.29 1.77 1.77 0 0 1-.75-1.41 2.31 2.31 0 0 1 1.69-2.4 5 5 0 0 1 3 .22c1.21.37 1.88.75 2.4.92.33.11.61.12.73-.28.06-.21.48-1.35.55-1.56.12-.4 0-.55-.45-.74a12 12 0 0 0-5.09-1.24 8.62 8.62 0 0 0-1.34.09 5.77 5.77 0 0 0-3.14 1.61 5 5 0 0 0-.35 6.09 5.43 5.43 0 0 0 2.64 1.78c1.61.51 3.7.72 4.41 1.21a2 2 0 0 1 1.1 2.34 1.81 1.81 0 0 1-1.06 1.33 6.06 6.06 0 0 1-1.13.35 7.35 7.35 0 0 1-1.16.12 9.16 9.16 0 0 1-2.51-.4c-.42-.12-2.14-.73-2.28-.77-.42-.13-.5.11-.61.41l-.53 1.66c-.14.44 0 .55.69.81a14.28 14.28 0 0 0 5.08 1.09 11.64 11.64 0 0 0 3.05-.37 4.17 4.17 0 0 0 3-2.52 5.57 5.57 0 0 0 .47-2.7z" class="cls-1" fill="#2f4050"/><rect id="rect12" rx=".53" height="3.18" width="3.18" y="1.137" x="57.712" class="cls-1" fill="#2f4050"/><rect id="rect14" rx=".53" height="16.61" width="3.18" y="6.827" x="57.712" class="cls-1" fill="#2f4050"/><rect id="rect16" rx=".53" height="3.18" width="3.18" y="1.137" x="161.742" class="cls-1" fill="#2f4050"/><rect id="rect18" rx=".53" height="16.61" width="3.18" y="6.787" x="161.742" class="cls-1" fill="#2f4050"/><path id="path20" d="M125.562 6.257c-4.49 0-8.13 3-8.13 8.66s3.64 8.65 8.13 8.65 8.12-2.82 8.12-8.65c0-5.48-3.53-8.66-8.12-8.66zm0 15c-2.83 0-4.77-2.59-4.77-6.3 0-3.9 1.94-6.31 4.77-6.31 2.83 0 4.77 2.41 4.77 6.31 0 4.04-1.94 6.26-4.77 6.26z" class="cls-1" fill="#2f4050"/><path id="path22" d="M115.122 15.467a21 21 0 0 0-.16-2.59 6.9 6.9 0 0 0-6.16-6.37 15.25 15.25 0 0 0-2.64-.22 16.78 16.78 0 0 0-2.68.22.18.18 0 0 1-.2-.18v-4.63a.53.53 0 0 0-.53-.53h-2.13a.53.53 0 0 0-.53.53v21.2a.53.53 0 0 0 .53.53h2.12a.53.53 0 0 0 .53-.53v-13c0-.6.17-.7.64-.79a15.94 15.94 0 0 1 2.6-.23 10.39 10.39 0 0 1 1.74.13 4.71 4.71 0 0 1 3.23 3.25 9.1 9.1 0 0 1 .44 3.08v7.57a.53.53 0 0 0 .53.53h2.17a.53.53 0 0 0 .53-.53z" class="cls-1" fill="#2f4050"/><path id="path24" d="M154.522 9.777h4.24a.53.53 0 0 0 .53-.53v-1.93a.53.53 0 0 0-.53-.53h-4.24a.53.53 0 0 1-.53-.53v-4.59a.53.53 0 0 0-.53-.53h-2.12a.53.53 0 0 0-.53.53v11.17c0 3.79-.53 10.6 6.89 10.6h1.06a.53.53 0 0 0 .53-.53v-2a.53.53 0 0 0-.53-.53h-1.06c-3.91 0-3.72-2.91-3.72-6.8v-3.27a.53.53 0 0 1 .54-.53z" class="cls-1" fill="#2f4050"/><path id="path28" d="M79.892 15.127a21.33 21.33 0 0 0-.16-2.6c-.47-3.57-2.6-5.59-6.16-6.19a16.31 16.31 0 0 0-2.64-.21 21.22 21.22 0 0 0-5.22.71c-.74.2-.83.41-.84 1.13v14.87a.53.53 0 0 0 .53.53h2.12a.53.53 0 0 0 .53-.53V9.627c0-.61.11-.74.66-.8a14 14 0 0 1 2.46-.24 10.6 10.6 0 0 1 1.78.14 4.56 4.56 0 0 1 3.3 3.11 9.37 9.37 0 0 1 .45 3.14v7.95a.53.53 0 0 0 .53.53h2.12a.53.53 0 0 0 .53-.53v-7.8z" class="cls-1" fill="#2f4050"/><path id="path30" d="M53.092 1.137h-1.79a.69.69 0 0 0-.68.7v4.93a.19.19 0 0 1-.24.19 15.9 15.9 0 0 0-3.89-.43c-4.42 0-7.88 2.92-7.88 8.58s3.53 8.63 8.3 8.65a24.34 24.34 0 0 0 3.91-.25 9.63 9.63 0 0 0 2.29-.6c.35-.18.69-.41.69-.8V1.837a.69.69 0 0 0-.71-.7zm-6.08 20.14a4.38 4.38 0 0 1-3.79-1.61 6.73 6.73 0 0 1-1.49-4.57c0-2.22.58-3.75 1.73-4.77a4.62 4.62 0 0 1 3.43-1.42c3.1 0 3.71.78 3.71 1.42v9.51c.02 1.08-.5 1.44-3.59 1.44z" class="cls-1" fill="#2f4050"/><path id="path32" d="M96.812 12.987c0-3.53-1.71-5.54-4-6.25a11.29 11.29 0 0 0-2.16-.51 12.54 12.54 0 0 0-1.74-.06c-.62 0-1.33.07-1.93.14a12.3 12.3 0 0 0-2.14.5c-.4.12-.9.34-1.14.43a.25.25 0 0 0-.17.27c.1.33.46 1.55.6 2a.22.22 0 0 0 .29.09l.92-.28a12.05 12.05 0 0 1 3.77-.61h.81a5 5 0 0 1 2.14.59 3.18 3.18 0 0 1 1.65 3.25.33.33 0 0 1-.4.33 10.47 10.47 0 0 0-2.77-.33c-5.47 0-8.22 2.46-8.22 5.65 0 3.19 3 5.66 8.66 5.66a13.34 13.34 0 0 0 5.5-1 .53.53 0 0 0 .3-.48v-9.39zm-3.09 7.66a.51.51 0 0 1-.43.53 5.91 5.91 0 0 1-.93.19 16 16 0 0 1-2.2.17 9 9 0 0 1-2.21-.26 3.51 3.51 0 0 1-1.91-1.08 3.09 3.09 0 0 1-.7-2 2.8 2.8 0 0 1 .58-1.92 4 4 0 0 1 2.2-1.25 7.9 7.9 0 0 1 2.15-.25 10.26 10.26 0 0 1 2.86.46.88.88 0 0 1 .59.72v4.68z" class="cls-1" fill="#2f4050"/><path id="path36" d="M183.512 15.097a23.33 23.33 0 0 0-.15-2.6c-.48-3.57-2.61-5.6-6.17-6.19a15.17 15.17 0 0 0-2.64-.22 20.72 20.72 0 0 0-5.21.72c-.75.2-.83.4-.85 1.12v14.91a.53.53 0 0 0 .53.53h2.12a.53.53 0 0 0 .53-.53V9.597c0-.61.11-.74.66-.81a13.51 13.51 0 0 1 2.47-.23 9.71 9.71 0 0 1 1.77.13 4.59 4.59 0 0 1 3.31 3.15 9.74 9.74 0 0 1 .45 3.15v7.85a.53.53 0 0 0 .53.53h2.12a.53.53 0 0 0 .53-.53z" class="cls-1" fill="#2f4050"/><path id="path38" d="M28.792 20.737l-10.89-18.85a3.76 3.76 0 0 0-6.52 0L.502 20.737a3.77 3.77 0 0 0 3.26 5.65h21.76a3.77 3.77 0 0 0 3.27-5.65zm-6.23 2.52H6.732a2.36 2.36 0 0 1-2.05-3.55l7.94-13.72a2.37 2.37 0 0 1 4.1 0l7.9 13.72a2.37 2.37 0 0 1-2.06 3.55z" fill="#ff6c0c"/></svg>