<svg xmlns="http://www.w3.org/2000/svg" height="93.963" width="377.952"><defs><clipPath id="a" clipPathUnits="userSpaceOnUse"><path d="M0 211.448h389.185V0H0z"/></clipPath></defs><g clip-path="url(#a)" transform="matrix(1.33333 0 0 -1.33333 -70.458 232.546)"><path d="M311.244 105.277c1.324 0 2.466.374 3.795 1.138h2.272c4.695 0 8.337 1.334 11.77 4.754 4.566 4.367 7.226 11.596 7.226 18.54 0 8.279-3.417 16.649-9.519 22.643-2.64 2.665-5.537 3.944-7.828 6.567-1.139 1.134-2.013 2.275-2.774 3.796-.957.955-1.53 1.525-2.67 2.092l-1.52.197c-.194.354-.752.354-1.146.354-3.04.515-5.824-1.118-8.778-1.688v-.384c1.897-.571 2.25-2.856 3.302-3.993l.911-1.3c1.143-1.346 2.86-2.408 4.565-2.976 2.476-.384 4.573.758 6.971.19 8.588-4.193 14.685-13.987 14.685-23.783 0-13.983-7.995-19.501-12.969-19.501-.954 0-2.408.583-2.972 1.105.564 1.947.91 4.22.91 7.648 0 8.086-3.192 16.84-7.572 21.305-2.094 2.099-4.347 3.807-6.688 3.807-1.143 0-2.29 0-3.046-.95-.95-.758-1.529-2.283-1.333-3.234-1.523-1.143-3.99-1.711-5.894-1.711-2.097 0-4.754.76-7.097 2.662v2.853l-.358 1.517c-.193 1.24-.193 2.76-1.144 3.909l-.574 1.518c-.94 2.28-.57 3.233-2.279 6.567-.384 1.7-2.095 2.655-3.232 3.796-.57.38-1.082 2.092-1.082 2.092-1.128 2.587-1.892 5.42-4.36 6.945l-.58-.377-1.328.947c-.575.573-.948.765-2.078.765l-1.22.948c-1.109.194-2.062.194-3.396 0l-1.324-.38c-.77-.188-1.717-.76-2.098-.76-1.52.76-3.426 1.515-4.19 1.515l-1.32-.375c-1.148 0-1.913-.38-2.863-.948 0 0-1.904-.573-2.077-.573-.513-.192-1.035-.762-1.38-1.14-1.335-1.147-2.284-2.093-2.855-3.79l-.76-1.524v-2.774c-.57-.571-1.33-1.138-1.71-2.28-.953-3.012-1.146-6.373-1.146-10.172-.187-.768-.564-.957-.947-1.148v-2.944s.383-1.904.383-2.476c0-.76.19-1.52.19-2.285 0-.377 0-.377.187-.761 0 .384.187-1.708.187-1.901.764-3.898 1.904-7.321 3.43-11.05-1.526-2.451-3.237-7.212-4.377-11.772-.95.944-2.285 1.134-3.43 1.134-1.065-.19-2.2-.571-2.97-1.711-1.14.577-2.656.383-3.39-.384-1.577-1.361-1.577-2.112-1.577-3.22-.386-.393-1.152-1.338-1.152-2.665 0-1.715.191-2.856 1.152-4.374z" fill="#fff"/><path d="M52.844 105.276v2.094c4.57 0 7.807.379 7.807 6.996v34.75c0 6.85-2.476 7.02-7.807 7.02v2h26.793v-2c-5.49 0-7.77-.17-7.77-7.02v-34.75c0-6.617 2.859-6.996 7.77-6.996v-2.094zm92.089 40.13v-40.521h-3.135l-40.524 41.857c.19-1.145.19-2.096.19-3.236V118.01c0-7.79 0-10.64 7.133-10.64v-2.094H89.575v2.094c7.21 0 7.21 3.424 7.21 10.64v29.068c0 4.319 0 9.058-7.59 9.058v2h17.944l33.326-34.221c-.19.949-.19 1.517-.19 2.85v18.642c0 7.515.19 10.729-6.963 10.729v2h19.018v-2c-7.022 0-7.397-3.03-7.397-10.73m65.797-22.257v-13.496c-7.59-3.811-14.725-5.715-21.86-5.715-19.784 0-31.676 11.598-31.676 26.342 0 15.892 13.608 29.01 30.916 29.01 4.28 0 7.517-.764 10.909-1.883 2.43-.761 3.93-1.633 5.453-1.633 1.336 0 1.707 2.22 1.898 3.517h1.887l1.715-18.258h-2.287c-.934 3.613-2.647 6.577-4.93 8.655-3.551 3.615-8.461 5.519-14.073 5.519-11.892 0-18.831-9.42-18.831-23.597 0-13.98 8.468-23.484 19.777-23.484 3.33 0 6.377.76 10.104 2.476v13.885c0 4.463-.713 6.178-7.151 6.178v2.089h23.889v-2.09c-5.93 0-5.74-1.904-5.74-7.515" fill="#000068"/><path d="M256.794 148.925c-.373.763-1.332 0-2.285.38 0-.38 0-.762.578-1.141.564.569 1.516.76 1.707.76m1.52 9.994c0 .373-.387.754-.948 1.134h-4.562c0-.761.564-1.134 1.138-1.134 0-.781.567-.924.762-1.12.576-.391.758-.391 1.332 0 .567-.391.758.339.953 0 0-1.152 0-1.662-.195-2.591-.191-1.335-1.332-1.143-2.285-1.716 0-.57-.567-1.524 0-2.094.578.38.953.57 1.912.955 0 .57.568 1.139 1.326 1.52 0 1.712.567 3.343.567 5.046m8.566-10.931v.938h-1.904l-.18-.192zm-11.23 17.37c-.188 1.847-2.282 2.036-3.231 2.782h-.76c-1.484-.554-1.832-2.08-2.004-3.332.52-1.711 1.627-.57 2.38-1.711.769.573 2.669 1.907 3.616 2.26m4.188-2.071c-.375.384-1.525-.19-2.092-.381-.758-.188-1.326-.757-1.326-1.33h2.086c.195.573.957 1.33 1.332 1.71m9.355-3.993s.375 0 0 .189l-4.023.572c-.375-.572-1.332-.572-1.332-1.134h-.381c.38-1.511.38-3.144.38-4.854.759-.192 1.526-.573 1.526-1.712.75-.385 1.516-.575 2.246-1.14.35.185.52.755.698 1.326-.698.953-2.381.384-2.381 2.095l-1.131.384c0 1.119 0 2.198-.2 2.977l.2.143c0-.143.18-.338.568-.73.75 0 1.516-.192 2.246.392.35.195.35 1.119.698 1.119.343 0 .697 0 .886.373m-2.892 2.283c0 .573-.188.573-.375.573-.951 0-.951 1.522-1.713 1.138-.375 0-.756.384-1.322 0 0-.19 0-.19.373-.19.949 0 .574-1.327 1.332-1.521zm6.32 1.142c.375.953.375 2.64-.387 3.537-.378.759-1.328 1.14-2.275 1.886l-1.31-.746c-.69-.381-1.04-1.14-1.04-2.036 1.219-.55 2.538-2.072 3.104-3.21h.574c.569.569.947 0 1.334.569m-38.994-52.495c-.193 0-.766.573-1.334.573-.541-1.141 0-1.907 0-3.233 0-.576-.193-1.144-.193-1.144-.348 0-1.032.759-1.203 1.52v3.042l1.59 2.049c1.14-.713 1.513-1.857 1.14-2.807m4.863 2.094c0-.756-.185-1.521-.556-2.094-.196.758-.735 1.704-1.651 1.704-.752-1.512-.947-2.084-.19-4.364-.562-.576-.95-.765-1.704-1.144-.39.759-.39 2.09-.39 2.85 0 1.335.196 2.658.575 3.76.569.585.957 1.538 1.52 1.946h2.019c-.914 0-.914-.798-.914-1.361.539-.187 1.29-.385 1.29-1.297m6.667-1.144c0-1.518-2.472-3.61-2.472-3.61 0 .946.57 2.092.57 3.233 0 0-.764.765-1.527.765-.565-.388-.565-.765-.754-1.338-.575-1.142-1.715-2.283-1.903-3.425-.19 0-.19.189-.19.189 0 1.902.19 5.139 1.329 6.44.953 1.14 1.717 1.14 2.852 1.326l.955-.186-.762-1.14c.762-.397 1.902-1.11 1.902-2.254m5.184 1.857l-.514-1.857-1.24 3.394c-1.527 1.354-3.24 1.547-4.191 2.31-.76.186-.76-.38-1.141 0 0 .37 0 .95.576 1.516h1.135l1.142-.566c.57-.58 1.905-.58 1.905-1.713 0-.193-.198-.381.383-1.14l1.779-.407zm2.836 2.703l-1.328-1.166c-.385.408 0 1.354-.567 1.93 0 .38.377.566.182.75-.182.385-2.332 1.146-2.332 1.146-.736.573-1.69 1.153-2.453 1.903-.758.19-1.332-.19-2.283-.381v.38c.38.764.38 1.72 1.525 1.72.568 0 1.332 0 1.705-.571.77 0 1.15-.764 1.682-.957.867-.941 1.593-1.334 2.156-1.707 0-.572.195-.953.572-1.148 1.14 0 .768-1.135 1.14-1.9m.958 5.898c0-.571-.192-2.85-.192-2.85-.378 1.326-1.328 2.664-2.478 2.664-.563.572-1.123 1.139-1.29 1.707-.52.572-1.042 0-1.778.572-.77 0-1.717 0-2.475-.572v.572l1.332 1.526c1.334-.192 2.922 0 3.262-.953.949-.573 1.904-1.145 2.099-1.53v-.564c.373-.186 1.139-.381 1.52-.572m-.957 9.61l-.758-2.78c-.955-.74-2.244-.377-3.287-.377 1.383.377 2.527 2.008 3.287 3.157.195.188.385 0 .758 0m-2.662 2.275c0-.76-.34-1.708-1.207-2.66-.176-.188-.721-.573-.721-.573 0 1.146.545 2.096.545 3.05.523.183 1.043.568 1.383.183m-2.12 2.867c-.953-.958-1.906-1.335-2.287-2.482 0 .563-.187 1.147-.37 1.524.183.768.75 1.145.94 1.32.575-.175.948-.175 1.718-.362m13.724-14.366c-.76-.572-1.328-.572-2.281-.386l-1.137 1.52h2.856zm-3.806 8.65c-.567-1.14-1.131-2.206-2.278-2.583-.574 0-1.527-.362-2.668 0 .574.377 1.14.55 1.912 1.06l1.514 1.524zm17.349-19.87l-.572-.573c-.57.573-.192 2.094-1.141 2.287-.953 0-1.715.917-2.093 1.104l.765.377s.375.186.758 0c.379-.377.764-.564.764-.961.377-.52.947 0 1.336-.52.183-.583.376-1.337.183-1.714m-13.924 18.347c-.181-1.06-.756-1.422-1.71-2.752-.565-.388-1.715-.572-2.846-1.142.183.57.744.754 1.13 1.33.389.57 1.15 1.504 1.336 2.055.952.509 1.334.509 2.09.509m-9.125 6.659c-1.15.39-2.44 1.524-2.96 2.377-.346.758-.522 1.716-.522 2.284.695 0 1.209-.568 1.383-.95v-.192c.949-1.142 1.904-1.995 2.099-3.52m14.647-13.6h-.381c-.182 0-1.516.565-1.904.95-.18.572-.18 1.145-.18 1.145h1.506zm14.994-8.774c-.193-.397-.582-1.5-.766-2.254-.383 1.144-.761 2.818-2.093 2.818-.192.762-.381.984-1.14 1.547l-1.454.195c.189-.758 1.262-.758.53-1.742.732-.564 1.302-.564 1.683-1.481.38-.583 0-1.337.189-1.714l-1.14-.573c0 .95.193 2.807-1.073 3.204-1.135-.397-1.328 1.14-2.092 1.548-.378 0-.378.946-.95.563-.952-.563-2.092 0-3.042-.563l.95 1.522c.765.566 1.523.38 2.287.566l1.519.184c1.514 0 2.785-.75 4.307-1.326.758-.383 1.136-.946 1.136-1.744.383-.186 1.149-.186 1.149-.75m-27.168 25.318l-.578-2.363c-.567 1.136-1.141 2.178-1.332 3.513zm3.615-5.412c-1.142 1.13-2.1 2.09-2.1 3.236.58 0 1.145 0 1.712-.377 0-.953.388-1.73.388-2.86m21.645-16.085c-.756.58-1.9.58-2.283 1.533-.731.186-1.262.186-2.208.186-.765-.186-1.712-.186-2.476-.186-.197 0 0 .186-.383.373-1.14-.373-2.283-.373-3.428-1.521l.954 2.283c.765 0 1.334.38 1.712.38.762.192 1.334.192 1.909.192v-.191c2.093 0 4.49.19 6.02-1.516zm-11.342 10.836c-.354-.362-1.395-.742-2.125-.742-1.147.93-1.904 1.994-3.041 3.515l3.04-.574c.556-.376 1.606-1.648 2.126-2.2m-6.313 8.3c0-1.335-.19-3.05-1.52-3.626l-.38 1.9c.568.39 1.139.768 1.9 1.726m17.278-15.323c-.955 0-1.713 0-2.283.957-.188 0-.51.567-.696.186-.943-.758-1.9.564-3.041.38-.57-.566-1.135-.952-2.093-1.138v.186c0 .572.378 1.136 1.14 1.52 1.147-.384 2.094 2.099 3.24.767.565-.194 1.096-.194 1.45-.194 1.328-.572 1.709-1.707 2.283-2.664m4.373-7.068h-.19c-.384.576-.574.984-.955.984.57 2.088-.566 3.805-.943 5.512v.572c.572-.953 2.088-1.906 1.898-2.851.19-1.711.19-3.233.19-4.217M266.88 133.33c-.953.567-2.666.757-2.283 1.906.379.953.95 1.143 1.33 1.505.187-1.32.375-2.281.953-3.411m-19.438 24.468l-.953-1.153c.19-1.821-.568-3.155-.568-4.87l-.955 3.049c.19.759.38 1.47.955 2.39zm28.22-28.658h-.571c-2.094-.683-3.803.569-5.522 1.713.954.384 2.288.572 3.428.572l.572-1.146c.575-.191 1.522-.756 2.094-1.14m-9.736 15.314c-.194-1.138-.563-2.85-1.713-3.617 0 .767-.375 1.146-.756 1.718-.193 0 0-.572-.193-.572 0-.38-.373-1.146-.373-1.903-.39-.187-1.153-.57-1.91-.187v.568c-.19.376-.19 1.143-.19 1.522l-.191.188c-.571-.188-.571-.567-.571-.95-.191-.384-.566-.76-.566-1.328-.762 0-1.15.187-1.717.568v1.71c0 .384 0 .384-.187.384l-.957-.951c-.76.567-.952 2.094-.952 3.042 3.05 1.71 6.852 1.142 9.145.192.375-.192.752-.192 1.13-.384m5.362-10.366c-.765-.19-2.094-.575-2.46.373-1.044 1.729-.52 3.244 0 4.474.366-1.077.556-2.193.74-3.135.199-.755 1.339-1.145 1.72-1.712M247.06 160.43l-1.321-.38.182.955c.377.568.568 1.14 1.139 1.71zm31.767-29.193c-.763 0-2.025 0-2.78.567-1.148.57-1.526.949-2.097 1.526.76.567 1.713.567 2.098.757.754-.757 1.45-2.091 2.779-2.85m-5.258 5.329c-.947-.187-1.712.757-2.662 1.138-.384 1.038-.384 2.188-.76 2.756.76-.568 2.475-.568 2.088-2.284 0-.472.762-.853 1.334-1.61m15.56-13.418c0-1.135-.751-2.092-.94-3.236 0 1.144-.198 2.1-.942 2.85 0 .386.545.386.184.958 0 0-1.055.573-1.055 1.334 0 .762.695 1.334 1.055 1.899 0 .193.758-.377.758-1.522 0-.185 0-.761-.198-1.138-.2-.573 1.139-.573 1.139-1.145m4.373-2.092c0-.953-1.135-2.093-1.521-2.851.386.945.386 2.85 0 2.85-.383.19-1.137 0-1.137.386 0 .572.189 1.322.189 1.707 0 .766-.574 1.145-.574 1.522 0 1.146 1.338 1.33 1.717 2.095.19-.765.19-1.52.19-2.472 0-.38.575-1.53 0-2.475 0-.572 1.136-.191 1.136-.762m-15.44 17.686c-1.072 0-2.4-.566-2.972.576.389.192.765.76 1.146 1.142zm5.335-4.282l-.958-.373c-2.093 0-3.044.567-3.992 1.334.756 0 1.717.958 1.717.958.94-.958 2.275-1.725 3.233-1.92m-7.735 11.897c-2.283 1.253-4.756 2.186-7.533 2.376 0-.57 0-1.123-.17-1.32 2.188-1.056 4.275-2.006 6.184-3.715v-1.715c-1.91 1.9-3.996 3.805-6.36 4.374-.174-.381-.904-.76-1.086-1.52-1.334.95-2.86 1.905-4.386 2.086-.573 0-.952 2.002-.952 2.002.952.38 1.532.95 1.905 1.906h.758c.574 0 .574.38.574.946 0 1.145-2.477 1.145-3.614 1.145-1.334 0-2.281 0-3.056-.57-.367 0-.18-.575-.18-.955 0-.185.567-.566.567-.566.388 0 .767.38 1.15.38-.193-1.144.185-1.717 1.328-2.286l-.191-1.847c-2.287 0-3.807-.906-5.514-1.671-.578.38-.953.95-1.334 1.516-2.29-.751-6.127-3.8-6.127-3.8v1.33c1.682 1.523 3.838 2.289 5.55 3.157v1.315c-.757.38-1.517 0-2.275 0-1.593-.192-3.275-.938-4.412-1.847 0 .532-.191 1.275-.191 1.275 2.098 1.14 4.603 2.094 7.07 1.714v.764c-.191.38-.191.946-.564.946-1.145 1.145-2.29 2.856-2.29 3.997l.768.362c-.381 1.079-.767 3.916 0 4.87-1.107.568-2.15 1.522-2.506 2.279-.38.953-.763 1.522-.961 2.586.58 1.14.96 1.522 1.493 2.649.347 0 .867.186 1.033.569.94.19 1.508 1.137 2.646.565.766 0 1.522-.374 2.1-.565 0-.383 0-.57.375-.95 1.14 0 1.14-1.127 1.72-2.08.565-.188 1.132-.188 1.52-.188 1.137-.351 2.09-.351 2.47-.868 1.52.868 3.042 1.056 4.755.868.187.573.574 1.333.77 2.268.183-.554.183 0 .564 0 .699.567 1.568 1.515 2.887 1.14.759-.573 2.087-.19 2.849-1.14.572-.746.953-1.886 1.524-2.782-.571-1.12 0-2.641-1.141-3.21l-1.145-1.141c-.378 0-.378-.385-.947-.385.569-1.33.194-3.214-.381-4.485.38.159.95.159.95.7.195-.19 0-.541 0-.7v-.552c0-.951-.57-1.904-1.334-2.662-.375-1.145-1.33-2.667-2.563-2.855v-.38c2.754 0 5.037-.762 7.703-2.077zm14.61-18.276c0-.362-.573-.742-.762-.742 0 0-.955.93-1.133 1.802-.19.763.56 2.097.56 2.097.192 0 .385-.384.573-.384.189-.19 0-.765.189-1.33.573-.383.953-1.066.573-1.443m15.28-13.108c0-.072-.355-.408-.355-.408-.877.408-1.418.598-2.56.598 0 .756-.567 1.713-.948 1.713-1.142 0-.957-.764-1.902-.764l1.709 1.713c.193.38.193.38.574.38.567-.38.756-.575 1.327-.575 0-.385 0-.57-.184-1.135.566-.383.928.189 1.283-.383.529-.193 1.057-.381 1.057-1.14m-17.762 17.215c0-.576-.361-.761-.721-1.143 0 0-.695.953-.695 1.332 0 .768 0 1.137.176 1.712.519-.575 1.24-1.334 1.24-1.901m7.43-5.61c0-1.145-.192-2.48-.192-3.813-.57 0-.57.385-.57 1.15-.186 1.14-.574 2.087-.957 3.233-.377 1.485-1.326 2.757-2.08 4.464-.195.765-1.15 1.143-1.912 1.72.949 0 1.912 0 2.666-.765 0-.38.19-.57.765-1.14 1.332 0 .944-1.716 2.088-2.476-.57-.492-.756-.87-1.144-1.231.574-.38 1.144-.572 1.336-1.142m-9.735 10.747c-.57-.582-2.09-.757-3.232.192l1.514.66c.574-.471 1.337-.66 1.718-.852m-4.187 4.28c-.194-.767-.953 0-1.135 0h-1.717c-.191.379-.384.567-.384.95.763.189 1.332.57 1.906.189.377-.572.758-1.14 1.33-1.14m16.584-14.837c0-.765-.381-1.334-.188-2.095-.384 1.146-1.146 2.283-1.531 3.41 0 .189-.19.189.199.377.186 0 .948 0 .948-.188.19-.363.572-.931.572-1.504m9.543-7.802c0-.758-.186-.954-.38-1.903-1.312.184-1.312 1.717-1.493 1.903-.887 1.14-2.156.187-3.102.187-.381 1.143.186 1.143.186 1.906.576 0 1.142.385 1.683 0 .877.385 1.414-.572 2.342-.572.19-.381.578-1.334.764-1.521m3.816-5.352c-.392-.584-.392-.584-.58-1.104 0 .917-1.146 1.48-1.906 3.028l.76 1.34c.576-.381 1.334-.957 1.334-1.903 0 0-.188-.408 0-.798 0-.186.392-.186.392-.563m-31.273 32.176c-1.143 0-1.713.569-2.283 1.626 0 .573-.188 1.319 0 2.274.377-.763.377-1.145.76-1.524.757.379.757-.554.949-.75.195-.491.574-1.057.574-1.626m16.195-13.983c-1.705.949-2.662 2.656-4.183 4.385 1.52 0 1.904-1.535 3.048-1.73.377-.372.764-.562 1.135-1.13zm11.84-10.748c-1.342 0-.578 2.664-3.338 2.664-.525 0-.887-.957-1.646-1.14 0 .183.193 1.334.193 1.334 0 .379.184 1.14.928 1.517 1.412 0 1.056-.568 2.142-.945.569-.193.957-.572 1.72-.572zm4.562-2.474c0-1.141 0-1.522-.574-2.471l-1.142 1.713c.392.566.392 1.326.95 2.279.192 0 .766-1.326.766-1.521m-36.52 36.242c0-.192-.384-1.903-.384-1.903l-1.52-.384.948 4.108c.389-.68.957-1.44.957-1.821m32.904-29.578c-.572.185-1.904.377-1.904.947 0 .76-.385.953-1.313.953-.71 0-1.238-.193-2.337-.57 0 0-.571.762-.76 1.504.383.189 1.859.55 2.56.55 1.274 0 2.61 0 2.61-.55 0-.742 1.144-.934 1.144-2.834m1.71 4.086c-1.331 0-2.657.377-2.854.947-.381.385 0 1.146-.955 1.146-.381 0-.946-.572-.946-.572-.353-.19-1.41.572-1.41 0 0-.95-.717-1.33-1.67-1.33-.375 0-.756 0-1.137.186v1.9c2.452 0 2.278.766 3.336.766.709 0 1.258-.38 1.827-.38.955 0 .388.38 1.339.38.954 0 1.325-.765 1.9-.95 0-.572.57-1.337.57-2.093m-.57 4.18c-1.525.948-3.808 1.532-5.066 1.532-.705 0-2.955-.957-3.714-1.714l-.39 1.714c1.149.192 1.149 1.145 1.905 1.145.57 0 1.315.19 1.84.19.53 0 .887.362 1.068.362.928 0 .549-.942 1.118-.942.574 0 .955.39 1.339.39.954 0 1.71-1.535 1.9-2.677m-4.357 4.192c-1.068 0-1.238.153-1.955.153-.953 0-2.09-.342-2.664-1.291-.383.757-.193 1.138 0 1.61.574.566 1.522 1.334 2.282 1.334 1.269 0 2.337-.953 2.337-1.806m.172 2.756c-1.24.376-1.94.947-3.08.947-.375 0-2.094-.571-2.28-.947-.57.76.376 2.282 1.143 2.663.762.383 1.137.192 1.524 0 0-1.141 1.283-.57 1.984-.953.356-.567.537-.95.709-1.71m4.563 21.686h-2.09c-.375.569-.953 0-1.332 0-.385 0-.576 0-1.313.569 1.118 0 1.692.569 2.645.953.766-.573 1.523-.765 2.09-1.522m5.715-4.01c-.381.78-1.147 1.154-1.717 1.154-.567.76-1.328 1.715-2.094 1.715.574 0 1.336.568 2.279.568.385-.953 1.15-1.522 1.338-2.283zM266.5 110.413c-.2 0 .197-.385-1.705 1.512-.391 0-.957-1.131-.957-1.512 0-1.526.375-3.617.957-5.137h1.506c0 1.709.199 3.61.199 5.137m4.022-.192c0 .758-.563.95-1.33.95-.364 0-1.233-.57-1.233-.95 0-.761-.35-4.945-.35-4.945h1.219c.555 1.709 1.694 3.992 1.694 4.945m24.884 2.287l-1.904-.193c.77-.39.77-1.336.77-1.521 0-.573-.387-1.141-.77-1.526-.377.385-.377.953-.756 1.526-.38 0-.57-.953-.57-1.334 0-1.711.765-3.043 1.326-4.184h1.719c-.192 1.52-.578 2.85-.578 4.565 0 .953.578 2.084.763 2.667m40.9 17.202c0 8.279-3.42 16.647-9.52 22.642-2.641 2.665-5.538 3.943-7.827 6.566-1.14 1.134-2.014 2.276-2.775 3.798-.957.953-1.532 1.522-2.67 2.09.195-.568.386-1.137.58-1.71h-.194c-.953 0-1.908.573-2.658 1.142l.75.765c-.191.354-.75.354-1.142.354-3.043.514-5.825-1.12-8.78-1.688v-.384c1.897-.57 2.25-2.854 3.303-3.994h1.098c.38 0 .955-.373 1.336-.373 0 .373-.381 1.134-.381 1.134.38.379.765.379 1.14 0 .95-.572 2.284.379 3.235-1.134-1.14 0-2.285 0-3.235-.587 0-.194.579-.532.385-.924-.947.392-2.1 0-2.48.73l-.188-.143c1.143-1.348 2.862-2.41 4.567-2.977 2.474-.384 4.57.757 6.97.19 8.588-4.195 14.684-13.986 14.684-23.781 0-13.984-7.994-19.501-12.97-19.501-.952 0-2.407.583-2.97 1.103.563 1.945.909 4.217.909 7.65 0 8.082-3.192 16.838-7.571 21.305-2.095 2.094-4.35 3.805-6.69 3.805-1.142 0-2.29 0-3.044-.95-.951-.761-1.53-2.283-1.334-3.234-1.523-1.143-3.99-1.711-5.893-1.711-2.097 0-4.753.76-7.1 2.662v2.852c-.548.19-2.444 1.335-1.5 2.203.575-.196.952-.532 1.145-.687-.193 1.24-.193 2.765-1.144 3.908-.383 0-.945 0-1.516.38-.572.566-1.154 1.327-1.154 2.28.582-.953 1.525-.57 2.096-1.14-.942 2.282-.571 3.233-2.28 6.567-.383 1.703-2.093 2.656-3.232 3.798-.57.38-.758.953-1.455.953-.754.187-.754 1.138-.754 1.688.189 0 .754-.354 1.129-.55-1.13 2.586-1.893 5.419-4.362 6.945l-.58-.377h-3.041c.375.377 1.139.568 1.713.947-.574.573-.947.765-2.078.765-.521-.192-1.22-.765-1.95-.765h-.181c0 .573-.197 1.333.912 1.712-1.11.194-2.062.194-3.396 0-.191-.947-.756-1.52-.756-2.282-.566-.377-.766-.95-1.338-1.526 0 1.149.572 2.288.772 3.429-.772-.188-1.72-.76-2.1-.76-1.521.76-3.426 1.514-4.19 1.514 1.145-.754.58-2.087.764-3.034l-.763.377c-.182.762-1.141 1.335-1.323 2.282-1.146 0-1.912-.38-2.861-.947v-.192c.568 0 1.334-.573 1.715-1.143-1.33 0-2.285.57-3.62.57 0 0 0 .192-.173.192-.514-.192-1.033-.762-1.38-1.14-1.335-1.148-2.282-2.094-2.853-3.79.38 0 .952 0 1.145-.191-.764-.19-1.145-1.14-1.906-1.334v-2.774c-.571-.57-1.33-1.138-1.711-2.28-.951-3.011-1.145-6.372-1.145-10.174-.187-.764-.564-.955-.947-1.143v-2.946s1.14 1.062 1.71 1.422v-2.376c-.763 0-1.327-.95-1.327-1.522 0-.76.19-1.523.19-2.283 0-.38 0-.38.187-.762 0 .383.38.762.95.95 0 0 .382.384 1.142.384-.565-.572-.76-1.334-1.141-2.094l-.57-.568s-.194-.382-.194-.574c.764-3.897 1.905-7.322 3.43-11.05-1.525-2.452-3.236-7.212-4.377-11.774-.951.947-2.285 1.135-3.43 1.135-1.066-.188-2.201-.57-2.97-1.711-1.143.576-2.655.384-3.391-.383-1.576-1.361-1.576-2.111-1.576-3.221-.385-.39-1.153-1.336-1.153-2.662 0-1.715.192-2.857 1.153-4.377h28.525c-.195.566-.574 1.324-.955 1.709-.564 1.14-.187 2.668-.187 3.809.568 1.13 1.142 2.234 1.904 3.195.185.576 0 .576.185.762l1.334.222c.756 0 1.329.563 2.282.563.574-.785.574.576 1.53.959 2.085.38 4.034 0 5.165-1.522 0-.222.188-.222.188-.408h-.954c-1.064.408-2.314.97-3.646.408 0-.408-.184-.408-.184-.984v-.961c.75 0 1.334-.713 2.07-1.103.35.583 1.395 1.103 2.135 1.103.954 0 2.288-.52 2.288-2.05v-2.091c.765-.761 1.712-.95 2.664-1.326-.377-.765-.952-.765-1.524-.765h-1.515c-.194.189-.575.189-.575.765-.574-.765-.947-1.53-1.338-2.285h22.03c-.371.756-.754 1.324-.946 1.709-.38 1.14-.38 2.668-.38 3.809l2.095 2.818c1.135 0 2.092.377 4.182.563.387.576 0 .798 1.715.798 1.328 0 2.283-.222 2.658-.408.193-.39.193-.39 0-.764-.375-.376-1.135.374-1.705.188-.383-.377.193-.564.193-.961.377-.328-1.715.397-1.715.397s-.384-1.11-.57-1.5l1.139-1.131c.375-.573-.57-1.141-.57-1.715-.383.189-1.145.762-1.145.574-.385-1.527 0-2.857-.186-4.377h2.086l.19 3.23c.195 1.907 2.476 5.295 3.812 5.295.762 0 1.328-.376 1.869-.773.346-.713 1.233-1.103 1.233-1.47 0-.387-.528-.58-1.412-.58-.362 0-.362.58-.928.947l-1.143-1.131s1.327-1.141 1.327-1.907c0-.95-.184-1.326-.76-1.902l-1.141 2.283c-.574 0-1.52-1.142-1.52-1.707 0-.765-.384-1.144-.384-2.285h11.65c1.324 0 2.467.375 3.795 1.14h2.272c4.695 0 8.338 1.333 11.769 4.755 4.567 4.365 7.229 11.593 7.229 18.539m-73.043-24.434c-.953 1.709-1.145 4.377-1.145 4.945 0 .95 0 2.287.572 3.204l-2.091-.397c-.571-.713-.762-1.103-.762-1.47l.953.367c.19 0 .38-.366.568-.754-.187-.95-1.33-.95-1.711-1.33-.568-1.903 1.143-3.045 1.334-4.565z" fill="#ff6200"/></g></svg>