<svg xmlns="http://www.w3.org/2000/svg" height="433.213" width="1933.493"><path d="M1909.56 379.157c-11 0-19.693-8.86-19.693-20.4 0-11.62 8.693-20.52 19.693-20.52 10.973 0 19.667 8.9 19.667 20.52 0 11.54-8.694 20.4-19.667 20.4zm0-44.353c-13.2 0-23.947 10.232-23.947 23.954 0 13.563 10.747 23.914 23.947 23.914 13.04 0 23.933-10.35 23.933-23.914 0-13.722-10.893-23.954-23.933-23.954zm-.493 22.352h-4.334v-9.04h5.534c2.88 0 6.2.47 6.2 4.33 0 4.532-3.68 4.71-7.4 4.71zm11.693-4.486c0-5.35-3.147-7.998-9.747-7.998h-10.64v28.045h4.36v-12.08h4.44l7.68 12.08h4.547l-8.027-12.408c4.134-.449 7.387-2.534 7.387-7.64M679.765 356.168H582.18V71.103c0-4.483.53-9.286 1.563-14.258l1.309-6.308h-46.439l1.306 6.308c1.037 4.983 1.556 9.784 1.556 14.258v291.956c0 4.14-.519 8.59-1.532 13.237l-1.414 6.376h160.048v-29.904l-6.713 1.947c-3.301.97-7.384 1.453-12.099 1.453M776.083 362.348V70.863c0-5.884.484-10.436 1.432-13.562l2.086-6.764h-47.136l1.366 6.343c1.028 4.812 1.541 9.517 1.541 13.983v291.485c0 4.467-.513 9.168-1.541 13.988l-1.346 6.336h47.116l-2.086-6.781c-.948-3.094-1.432-7.662-1.432-13.543M845.37 56.88c1.04 4.812 1.563 9.439 1.563 13.757v291.711c0 4.467-.524 9.168-1.562 13.988l-1.344 6.336h46.522l-1.364-6.336c-1.038-4.815-1.552-9.516-1.552-13.988v-136.85h81.172c5.851 0 10.884.494 14.907 1.493l6.505 1.597v-29.733l-6.406 1.448c-5.131 1.164-10.024 1.756-14.552 1.756h-81.626V75.408h93.528c5.714 0 11.368.445 16.767 1.336l6.09 1.003v-27.21H844.028l1.344 6.343M1181.259 200.636H1085.1V75.408h99.728c4.301 0 8.541.69 12.593 2.07l6.922 2.36v-29.3H1040.96l1.976 6.725c.98 3.281 1.454 7.938 1.454 13.84v291.245c0 4.417-.386 9.234-1.127 14.299l-.9 6.025h162.225v-29.756l-6.05.948c-11.022 1.721-15.283 2.207-16.559 2.304h-96.88V224.095h96.624c7.137 0 12.743.356 16.667 1.077l6.198 1.147v-29.786l-6.712 1.958c-4.904 1.43-10.489 2.145-16.618 2.145M1298.039 75.408h22.609c22.445 0 39.859 4.193 51.752 12.484 8.28 5.75 14.813 13.415 19.48 22.776 4.68 9.436 7.067 19.824 7.067 30.893 0 24.743-10.04 42.534-30.654 54.335-12.786 7.21-27.2 10.864-42.878 10.864h-27.376zm350.801 174.479h-108.733l53.32-147.384zm86.493 113.458l-112.08-301.337c-.68-1.835-1.24-4.2-1.653-7.024l-.68-4.447h-36.693l-.614 4.52c-.706 5.162-1.386 7.588-1.88 8.842l-108 299.348c-.64 1.64-1.626 3.805-2.853 6.396-3.133-2.32-5.867-4.677-8.04-7.024l-120.107-134.046c29.694-3.214 53.04-11.66 69.534-25.117 18.8-15.339 28.333-36.797 28.333-63.781 0-18.316-5.213-34.896-15.493-49.228-9.24-12.992-21.774-22.874-37.187-29.348-16.307-7.004-35.147-10.562-56.09-10.562h-77.415l1.364 6.343c1.026 4.812 1.561 9.517 1.561 13.983v291.484c0 4.468-.535 9.169-1.561 13.99l-1.355 6.335h46.512l-1.353-6.336c-1.019-4.805-1.544-9.51-1.544-13.99V238.069l115.294 129.853c3.934 4.48 6.694 8.415 8.227 11.715l1.413 3.036h73.587l.147-5.09c.16-6.13.84-9.17 1.346-10.618l34.214-93.623h126.2l34.386 93.499c1.28 3.836 2.08 7.537 2.36 11.019l.387 4.813h51.08l-5.16-8.077c-3.133-4.852-5.213-8.644-6.187-11.25M1899.52 50.537l-1.147 3.691a67.058 67.058 0 0 1-4.613 11.104l-73.88 138.099-72.24-137.048c-3.947-7.778-5.027-10.823-5.333-11.946l-1.04-3.9h-51.094l6.507 8.443c1.867 2.444 4.12 6.141 6.667 11.043l87.2 164.264v128.06c0 4.478-.507 9.184-1.547 13.99l-1.36 6.335h46.533l-1.346-6.336c-1.04-4.805-1.56-9.51-1.56-13.99V234.298l88.346-165.616a95.865 95.865 0 0 1 6.307-9.797l6.147-8.347h-32.547" fill="#231f20"/><path d="M19.075 433.213C8.557 433.213 0 424.657 0 414.137V19.072C0 8.553 8.557-.003 19.075-.003H414.14c10.518 0 19.076 8.556 19.076 19.075v395.065c0 10.52-8.558 19.076-19.076 19.076H19.075" fill="#918f90"/><path d="M425.992 414.137c0 6.522-5.333 11.855-11.853 11.855H19.075c-6.52 0-11.853-5.333-11.853-11.855V19.072c0-6.52 5.333-11.853 11.853-11.853H414.14c6.52 0 11.853 5.333 11.853 11.853v395.065" fill="#fff"/><path d="M122.744 122.741H50.541V50.537h72.203v72.204" fill="#132036"/><path d="M209.388 122.741h-72.203V50.537h72.203v72.204" fill="#22376a"/><path d="M296.032 122.741h-72.203V50.537h72.203v72.204M122.742 223.823v72.205h-72.2v-72.205h72.2" fill="#81b5e5"/><path d="M122.742 137.179v72.206h-72.2V137.18h72.2" fill="#22376a"/><path d="M209.385 137.179v72.206h-72.2V137.18h72.2" fill="#81b5e5"/><path d="M223.827 310.466h72.202v72.206h-72.202v-72.206" fill="#22376a"/><path d="M310.47 310.466h72.203v72.206h-72.202v-72.206" fill="#132036"/><path d="M137.183 310.466h72.202v72.206h-72.202v-72.206M310.472 209.387V137.18h72.201v72.206h-72.201" fill="#81b5e5"/><path d="M310.472 296.033v-72.205h72.201v72.205h-72.201" fill="#22376a"/><path d="M223.83 296.033v-72.205h72.2v72.205h-72.2" fill="#81b5e5"/></svg>