<svg xmlns="http://www.w3.org/2000/svg" width="299.999" height="75.553"><defs><clipPath clipPathUnits="userSpaceOnUse" id="a"><path d="M0 283.464h595.275V0H0v283.464z"/></clipPath></defs><g clip-path="url(#a)" transform="matrix(.71465 0 0 -.71465 -62.76 138.926)"><path d="M249.57 143.835c-12.173 0-19.049 4.282-19.049 11.869 0 10.275 9.787 17.61 24.344 17.61h1.06c11.64 0 19.048-4.769 19.048-12.228 0-10.026-10.846-17.251-25.403-17.251m-20.9-23.108h1.058c3.176 0 8.994-.618 18-1.964 8.196-1.101 12.691-1.956 16.66-3.18 6.885-1.954 10.585-4.892 10.585-8.313 0-7.714-17.459-13.577-39.959-13.577-22.217 0-37.04 4.888-37.04 12.222 0 4.282 4.238 7.714 12.966 10.769 6.088 2.079 13.76 3.794 17.73 4.043M190.944 145.8c0-2.97-.468-4.917-1.76-6.13-2.136-2.037-4.27-2.314-7.61-2.314-4.73 0-6.956 2.222-6.956 5.563 0 3.433 2.41 5.47 6.772 5.47h9.554V145.8zm134.051 31.069c-4.459 0-8.904-1.669-12.063-5.006v4.448h-7.88c-.606.008-1.307.014-2.147.014h-22.928c-7.973 1.597-12.762 2.093-20.469 2.093-28.195 0-49.736-9.836-49.736-22.863 0-4.795 3.198-8.485 10.64-12.05l-3.99-1.728-5.579-2.33c-3.499-1.427-6.109-2.857-7.839-4.208v24.562c0 11.316-7.048 17.068-20.593 17.068-8.069 0-12.709-1.484-17.44-6.676l7.7-7.514c2.504 2.87 4.64 3.989 9.276 3.989 6.4 0 8.997-2.324 8.997-7.606v-2.419h-11.41c-11.222 0-16.51-6.304-16.51-13.999 0-4.268 1.393-8.165 3.988-10.859 2.877-2.875 6.864-4.261 12.337-4.261 5.564 0 8.627 1.386 11.875 4.635v-4.178h11.78v.323c2.497-1.52 6.92-2.99 13.683-4.594l-7.442-1.844c-11.435-2.828-15.69-4.177-20.478-6.268-6.645-2.83-10.106-6.398-10.106-10.449 0-9.84 21.27-16.472 53.183-16.472 36.435 0 63.291 9.34 63.291 21.755 0 4.31-3.72 8.116-10.897 10.697-6.117 2.21-11.972 3.445-33.244 6.273-16.757 2.209-21.807 3.192-26.064 5.039-1.864.977-3.194 2.332-3.194 3.684 0 1.969 1.861 3.2 6.915 5.167 6.92-1.351 13.572-1.845 21.02-1.845 26.32 0 46.797 9.837 46.797 22.249 0 3.695-1.063 5.782-5.053 8.977 0 0 4.966.036 9.736-.473v-42.219h12.058v29.224c0 6.591 4.265 8.811 8.073 8.811 3.804 0 7.977-2.22 7.977-8.811v-29.224h12.06v30.896c0 5.286-1.023 9.832-4.923 13.726-2.68 2.686-6.58 4.266-11.4 4.266M375.387 140.422c-1.391-1.4-3.25-2.14-5.66-2.14-2.413 0-4.174.74-5.565 2.14-2.504 2.497-2.778 6.763-2.778 11.773s.274 9.184 2.778 11.693c1.39 1.388 3.152 2.128 5.565 2.128 2.41 0 4.269-.74 5.66-2.128 2.508-2.51 2.785-6.683 2.785-11.693s-.277-9.276-2.785-11.773m-5.66 36.447c-7.14 0-11.97-2.782-14.934-5.938-4.363-4.545-5.47-10.017-5.47-18.736 0-8.808 1.107-14.282 5.47-18.832 2.965-3.151 7.795-5.927 14.934-5.927 7.142 0 12.059 2.776 15.029 5.927 4.36 4.55 5.473 10.024 5.473 18.832 0 8.719-1.113 14.19-5.473 18.736-2.97 3.156-7.887 5.938-15.03 5.938M411.471 142.544v51.487h-12.06v-52.228c0-6.863 4.174-13.822 14.1-13.822h6.87v10.205h-4.637c-3.07 0-4.273 1.484-4.273 4.358M428.166 127.981h12.06v48.329h-12.06v-48.329zM427.979 184.568h12.338v9.83h-12.338v-9.83zM476.306 145.8c0-2.97-.463-4.917-1.757-6.13-2.13-2.037-4.261-2.313-7.608-2.313-4.726 0-6.958 2.22-6.958 5.562 0 3.433 2.41 5.47 6.776 5.47h9.547v-2.59zm-8.528 31.069c-8.067 0-12.71-1.484-17.446-6.675l7.703-7.515c2.507 2.87 4.64 3.989 9.28 3.989 6.398 0 8.99-2.324 8.99-7.606v-2.42h-11.403c-11.225 0-16.518-6.303-16.518-13.998 0-4.268 1.394-8.165 3.997-10.86 2.874-2.874 6.865-4.26 12.334-4.26 5.573 0 8.626 1.386 11.873 4.635v-4.177h11.782V159.8c0 11.316-7.047 17.068-20.592 17.068M138.936 176.87c-6.032 0-10.394-1.855-14.474-6.12-3.064 4.174-7.422 6.12-12.802 6.12-4.45 0-8.905-1.766-12.058-5.007v4.447H87.82v-48.329h12.058v29.224c0 6.591 4.27 8.81 8.073 8.81 3.8 0 7.979-2.219 7.979-8.81v-29.224h12.056v29.5c0 6.315 4.36 8.534 8.069 8.534 3.802 0 7.978-2.219 7.978-8.81v-29.224h12.062v30.896c0 5.286-1.393 9.832-5.288 13.725-2.692 2.687-7.053 4.267-11.871 4.267M498.758 179.384h-1.439v1.89h1.44c.622 0 .998-.447.998-.943 0-.5-.376-.947-.999-.947m3.46.947c0 1.54-1.02 3.03-3.11 3.03h-4.202v-9.397h2.413v3.506h1.03l1.416-3.506h2.797l-1.765 3.929c.75.374 1.42 1.167 1.42 2.438" fill="#689600"/><path d="M498.366 171.692c-3.95 0-6.815 2.932-6.815 6.973 0 4.04 2.866 6.97 6.815 6.97 3.949 0 6.815-2.93 6.815-6.97 0-4.04-2.866-6.973-6.815-6.973m0 16.22c-5.096 0-9.244-4.152-9.244-9.247 0-5.102 4.148-9.25 9.244-9.25s9.242 4.148 9.242 9.25c0 5.095-4.146 9.246-9.242 9.246" fill="#689600"/></g></svg>