<?xml version="1.0" encoding="UTF-8" standalone="no"?>
<!-- Created with Inkscape (http://www.inkscape.org/) -->

<svg
   xmlns:dc="http://purl.org/dc/elements/1.1/"
   xmlns:cc="http://creativecommons.org/ns#"
   xmlns:rdf="http://www.w3.org/1999/02/22-rdf-syntax-ns#"
   xmlns:svg="http://www.w3.org/2000/svg"
   xmlns="http://www.w3.org/2000/svg"
   xmlns:sodipodi="http://sodipodi.sourceforge.net/DTD/sodipodi-0.dtd"
   xmlns:inkscape="http://www.inkscape.org/namespaces/inkscape"
   id="svg2"
   version="1.1"
   inkscape:version="0.91 r13725"
   xml:space="preserve"
   width="299.99924"
   height="75.553001"
   viewBox="0 0 299.99924 75.553004"
   sodipodi:docname="magnolia.svg"><metadata
     id="metadata8"><rdf:RDF><cc:Work
         rdf:about=""><dc:format>image/svg+xml</dc:format><dc:type
           rdf:resource="http://purl.org/dc/dcmitype/StillImage" /><dc:title></dc:title></cc:Work></rdf:RDF></metadata><defs
     id="defs6"><clipPath
       clipPathUnits="userSpaceOnUse"
       id="clipPath16"><path
         d="m 0,283.464 595.275,0 L 595.275,0 0,0 0,283.464 Z"
         id="path18"
         inkscape:connector-curvature="0" /></clipPath></defs><sodipodi:namedview
     pagecolor="#ffffff"
     bordercolor="#666666"
     borderopacity="1"
     objecttolerance="10"
     gridtolerance="10"
     guidetolerance="10"
     inkscape:pageopacity="0"
     inkscape:pageshadow="2"
     inkscape:window-width="1855"
     inkscape:window-height="1056"
     id="namedview4"
     showgrid="false"
     fit-margin-top="0"
     fit-margin-left="0"
     fit-margin-right="0"
     fit-margin-bottom="0"
     inkscape:zoom="0.50531267"
     inkscape:cx="-591.2211"
     inkscape:cy="38.019636"
     inkscape:window-x="1985"
     inkscape:window-y="24"
     inkscape:window-maximized="1"
     inkscape:current-layer="g10" /><g
     id="g10"
     inkscape:groupmode="layer"
     inkscape:label="Magnolia_RGB"
     transform="matrix(1.25,0,0,-1.25,-222.14269,214.69838)"><g
       id="g12"
       transform="matrix(0.57171612,0,0,0.57171612,127.50604,60.61823)"><g
         id="g14"
         clip-path="url(#clipPath16)"><g
           id="g20"
           transform="translate(249.5703,143.835)"><path
             d="m 0,0 c -12.173,0 -19.049,4.282 -19.049,11.869 0,10.275 9.787,17.61 24.344,17.61 l 1.059,0 c 11.641,0 19.049,-4.769 19.049,-12.228 C 25.403,7.225 14.557,0 0,0 m -20.901,-23.108 1.059,0 c 3.176,0 8.994,-0.618 17.999,-1.964 8.197,-1.101 12.692,-1.956 16.661,-3.18 6.885,-1.954 10.585,-4.892 10.585,-8.313 0,-7.714 -17.459,-13.577 -39.959,-13.577 -22.217,0 -37.04,4.888 -37.04,12.222 0,4.282 4.238,7.714 12.966,10.769 6.088,2.079 13.759,3.794 17.729,4.043 M -58.625,1.965 c 0,-2.97 -0.468,-4.917 -1.761,-6.13 -2.135,-2.037 -4.27,-2.314 -7.61,-2.314 -4.729,0 -6.955,2.222 -6.955,5.563 0,3.433 2.409,5.47 6.772,5.47 l 9.554,0 0,-2.589 z M 75.426,33.034 c -4.459,0 -8.904,-1.669 -12.063,-5.006 l 0,4.448 -7.88,0 c -0.606,0.008 -1.307,0.014 -2.147,0.014 l -22.928,0 c -7.973,1.597 -12.762,2.093 -20.469,2.093 -28.195,0 -49.736,-9.836 -49.736,-22.863 0,-4.795 3.198,-8.485 10.64,-12.05 l -3.991,-1.728 -5.578,-2.33 c -3.499,-1.427 -6.109,-2.857 -7.839,-4.208 l 0,24.562 c 0,11.316 -7.048,17.068 -20.593,17.068 -8.069,0 -12.709,-1.484 -17.44,-6.676 l 7.7,-7.514 c 2.504,2.87 4.639,3.989 9.276,3.989 6.4,0 8.997,-2.324 8.997,-7.606 l 0,-2.419 -11.41,0 c -11.222,0 -16.511,-6.304 -16.511,-13.999 0,-4.268 1.394,-8.165 3.989,-10.859 2.877,-2.875 6.864,-4.261 12.337,-4.261 5.564,0 8.627,1.386 11.875,4.635 l 0,-4.178 11.78,0 0,0.323 c 2.497,-1.52 6.919,-2.99 13.683,-4.594 l -7.442,-1.844 c -11.435,-2.828 -15.69,-4.177 -20.478,-6.268 -6.645,-2.83 -10.106,-6.398 -10.106,-10.449 0,-9.84 21.269,-16.472 53.183,-16.472 36.435,0 63.291,9.34 63.291,21.755 0,4.31 -3.72,8.116 -10.897,10.697 -6.117,2.21 -11.972,3.445 -33.244,6.273 -16.757,2.209 -21.807,3.192 -26.064,5.039 -1.864,0.977 -3.194,2.332 -3.194,3.684 0,1.969 1.861,3.2 6.915,5.167 6.919,-1.351 13.572,-1.845 21.019,-1.845 26.321,0 46.798,9.837 46.798,22.249 0,3.695 -1.063,5.782 -5.053,8.977 0,0 4.966,0.036 9.736,-0.473 l 0,-42.219 12.058,0 0,29.224 c 0,6.591 4.265,8.811 8.073,8.811 3.804,0 7.977,-2.22 7.977,-8.811 l 0,-29.224 12.06,0 0,30.896 c 0,5.286 -1.023,9.832 -4.923,13.726 -2.681,2.686 -6.58,4.266 -11.401,4.266"
             style="fill:#689600;fill-opacity:1;fill-rule:nonzero;stroke:none"
             id="path22"
             inkscape:connector-curvature="0" /></g><g
           id="g24"
           transform="translate(375.3867,140.4219)"><path
             d="m 0,0 c -1.391,-1.399 -3.25,-2.139 -5.66,-2.139 -2.413,0 -4.174,0.74 -5.565,2.139 -2.504,2.497 -2.778,6.763 -2.778,11.773 0,5.01 0.274,9.184 2.778,11.693 1.391,1.388 3.152,2.128 5.565,2.128 2.41,0 4.269,-0.74 5.66,-2.128 C 2.508,20.957 2.785,16.783 2.785,11.773 2.785,6.763 2.508,2.497 0,0 m -5.66,36.447 c -7.139,0 -11.969,-2.782 -14.934,-5.938 -4.363,-4.545 -5.469,-10.017 -5.469,-18.736 0,-8.808 1.106,-14.282 5.469,-18.832 2.965,-3.151 7.795,-5.927 14.934,-5.927 7.142,0 12.059,2.776 15.029,5.927 4.36,4.55 5.473,10.024 5.473,18.832 0,8.719 -1.113,14.191 -5.473,18.736 -2.97,3.156 -7.887,5.938 -15.029,5.938"
             style="fill:#689600;fill-opacity:1;fill-rule:nonzero;stroke:none"
             id="path26"
             inkscape:connector-curvature="0" /></g><g
           id="g28"
           transform="translate(411.4712,142.544)"><path
             d="m 0,0 0,51.487 -12.06,0 0,-52.228 c 0,-6.863 4.174,-13.822 14.099,-13.822 l 6.871,0 0,10.205 -4.637,0 C 1.202,-4.358 0,-2.874 0,0"
             style="fill:#689600;fill-opacity:1;fill-rule:nonzero;stroke:none"
             id="path30"
             inkscape:connector-curvature="0" /></g><path
           d="m 428.166,127.981 12.06,0 0,48.329 -12.06,0 0,-48.329 z"
           style="fill:#689600;fill-opacity:1;fill-rule:nonzero;stroke:none"
           id="path32"
           inkscape:connector-curvature="0" /><path
           d="m 427.979,184.568 12.338,0 0,9.83 -12.338,0 0,-9.83 z"
           style="fill:#689600;fill-opacity:1;fill-rule:nonzero;stroke:none"
           id="path34"
           inkscape:connector-curvature="0" /><g
           id="g36"
           transform="translate(476.3057,145.7999)"><path
             d="m 0,0 c 0,-2.97 -0.463,-4.917 -1.757,-6.13 -2.13,-2.037 -4.261,-2.313 -7.608,-2.313 -4.726,0 -6.958,2.221 -6.958,5.562 0,3.433 2.411,5.47 6.776,5.47 L 0,2.589 0,0 Z m -8.528,31.069 c -8.067,0 -12.71,-1.484 -17.446,-6.675 l 7.703,-7.515 c 2.507,2.87 4.641,3.989 9.28,3.989 6.398,0 8.991,-2.324 8.991,-7.606 l 0,-2.419 -11.404,0 c -11.225,0 -16.518,-6.304 -16.518,-13.999 0,-4.268 1.394,-8.165 3.997,-10.859 2.874,-2.875 6.865,-4.26 12.334,-4.26 5.573,0 8.626,1.385 11.873,4.634 l 0,-4.177 11.782,0 0,31.819 c 0,11.316 -7.047,17.068 -20.592,17.068"
             style="fill:#689600;fill-opacity:1;fill-rule:nonzero;stroke:none"
             id="path38"
             inkscape:connector-curvature="0" /></g><g
           id="g40"
           transform="translate(138.936,176.8692)"><path
             d="M 0,0 C -6.032,0 -10.394,-1.854 -14.474,-6.119 -17.538,-1.945 -21.896,0 -27.276,0 c -4.45,0 -8.905,-1.765 -12.058,-5.006 l 0,4.447 -11.782,0 0,-48.329 12.058,0 0,29.224 c 0,6.591 4.27,8.81 8.073,8.81 3.8,0 7.979,-2.219 7.979,-8.81 l 0,-29.224 12.056,0 0,29.5 c 0,6.315 4.36,8.534 8.069,8.534 3.802,0 7.978,-2.219 7.978,-8.81 l 0,-29.224 12.062,0 0,30.896 c 0,5.286 -1.393,9.832 -5.288,13.725 C 9.179,-1.58 4.818,0 0,0"
             style="fill:#689600;fill-opacity:1;fill-rule:nonzero;stroke:none"
             id="path42"
             inkscape:connector-curvature="0" /></g><g
           id="g44"
           transform="translate(498.7583,179.3838)"><path
             d="m 0,0 -1.439,0 0,1.89 1.439,0 C 0.623,1.89 0.999,1.443 0.999,0.947 0.999,0.448 0.623,0 0,0 m 3.459,0.947 c 0,1.54 -1.019,3.03 -3.11,3.03 l -4.201,0 0,-9.397 2.413,0 0,3.506 1.03,0 1.416,-3.506 2.797,0 -1.765,3.929 c 0.75,0.374 1.42,1.167 1.42,2.438"
             style="fill:#689600;fill-opacity:1;fill-rule:nonzero;stroke:none"
             id="path46"
             inkscape:connector-curvature="0" /></g><g
           id="g48"
           transform="translate(498.3657,171.6924)"><path
             d="m 0,0 c -3.949,0 -6.815,2.932 -6.815,6.973 0,4.039 2.866,6.97 6.815,6.97 3.949,0 6.815,-2.931 6.815,-6.97 C 6.815,2.932 3.949,0 0,0 m 0,16.219 c -5.096,0 -9.244,-4.151 -9.244,-9.246 0,-5.102 4.148,-9.25 9.244,-9.25 5.096,0 9.242,4.148 9.242,9.25 0,5.095 -4.146,9.246 -9.242,9.246"
             style="fill:#689600;fill-opacity:1;fill-rule:nonzero;stroke:none"
             id="path50"
             inkscape:connector-curvature="0" /></g></g></g></g></svg>