<svg xmlns="http://www.w3.org/2000/svg" viewBox="0 0 500 228.804" height="228.804" width="500.001"><g fill="#20303f"><path d="M356.183 39.277c0-4.833-1.39-8.596-4.148-11.225-2.741-2.598-6.731-3.921-11.835-3.948-5.094.027-9.074 1.35-11.801 3.948-2.774 2.621-4.169 6.39-4.169 11.225v20.909c0 1.641.223 3.41.693 5.392.39 1.687 1.155 3.262 2.368 4.822 1.149 1.41 2.777 2.611 4.799 3.52 2.007.929 4.73 1.399 8.11 1.399 3.454 0 6.106-.465 8.127-1.39 2.047-.925 3.657-2.12 4.799-3.543 1.188-1.5 1.957-3.075 2.367-4.799.457-1.905.69-3.704.69-5.401zm4.749-8.712c1.058 2.564 1.576 5.492 1.576 8.712v41.475h-3.874l-1.948-4.82-.033.11v-.284a.905.905 0 0 0-.14.145c-3.942 3.667-9.416 5.539-16.313 5.553-6.88-.014-12.373-1.886-16.275-5.553-3.983-3.712-5.997-8.996-5.997-15.717V39.277c0-3.208.52-6.124 1.578-8.707 1.075-2.64 2.592-4.9 4.516-6.732 1.86-1.786 4.152-3.187 7.037-4.261 5.607-1.987 12.76-1.976 18.29-.005 2.868 1.08 5.231 2.518 7.036 4.275 1.932 1.833 3.464 4.096 4.547 6.718M164.567 18.89h-22.693c-.28 0-.513.065-.762.123v5.359c.25.048.481.122.762.122h16.498v50.692h-17.26v5.566c.25.052 35.76 0 35.76 0v-5.566h-12.305zm252.272 61.862c.207 0 .356-.055.535-.079V75.27c-.179-.018-.328-.083-.535-.083h-12.411v-56.35h-22.744c-.026 0-.05.008-.06.008v5.552c.01 0 .034.005.06.005h16.558v50.785h-16.558c-.026 0-.05.016-.06.016v5.544c.01 0 .034.006.06.006zM100.317 18.146c-.017 0-.042.011-.067.011l-.237-.011c-6.931 0-12.423 1.9-16.373 5.634-1.146 1.105-2.143 2.397-2.99 3.861a17.052 17.052 0 0 0-2.964-3.861c-3.864-3.683-9.272-5.578-16.152-5.623l-.563-.011c-6.938 0-12.435 1.9-16.376 5.634-3.898 3.677-5.873 8.99-5.873 15.81v41.351h6.114v-41.35c0-1.897.22-3.677.676-5.426.453-1.814 1.266-3.422 2.445-4.92 1.155-1.435 2.782-2.64 4.863-3.582 2.076-.93 4.815-1.408 7.936-1.439.094.026.207.062.546.031 3.336 0 6.072.477 8.143 1.408 2.124.965 3.76 2.17 4.87 3.6 1.168 1.394 1.941 2.949 2.454 4.873.456 1.945.672 3.732.672 5.455v41.35h6.441v-41.35c0-1.712.207-3.507.652-5.418a13.126 13.126 0 0 1 2.446-4.915c1.18-1.444 2.828-2.653 4.898-3.595 2.079-.93 4.81-1.408 8-1.419.1.02.222.05.503.011 3.305 0 6.047.477 8.135 1.408 2.034.93 3.682 2.138 4.876 3.574 1.16 1.501 1.97 3.114 2.443 4.915.453 1.876.686 3.7.686 5.439v41.35h6.108v-41.35c0-6.808-1.981-12.126-5.876-15.811-3.95-3.734-9.444-5.634-16.436-5.634m348.442 63.31c5.345 0 9.548-1.343 12.518-3.99l-2.296-5.51c-2.163 2.078-5.423 3.62-10.222 3.62-3.642 0-6.37-1.03-8.119-3.062-1.784-2.095-2.66-5.598-2.66-10.736V24.515h19.45c.059 0 .098-.02.15-.026v-5.627c-.052 0-.091-.026-.15-.026h-19.45V0h-6.058v62.086c0 6.47 1.45 11.365 4.291 14.532 2.876 3.21 7.095 4.838 12.546 4.838m-230.802-63.31c-1.653 0-3.361.23-5.207.695-1.663.357-3.414.966-5.207 1.83-1.657.794-3.196 1.802-4.49 2.99-.482.406-.917.842-1.315 1.299l-.009.04-.016-.02c-.009.009-.016.012-.016.02v-.051l-3.202-6.105h-2.884v62.097h6.086V39.096c0-2.323.386-4.297 1.208-6.042.867-1.896 1.954-3.447 3.344-4.742 1.435-1.329 3.114-2.324 5.112-3.043 1.996-.73 4.22-1.095 6.596-1.095 3.232 0 5.938.478 8.023 1.404 2.055.968 3.691 2.154 4.837 3.545a12.862 12.862 0 0 1 2.402 4.812c.447 1.994.662 3.722.662 5.422v41.584h6.061V39.357c0-6.76-1.95-12.02-5.806-15.663-3.866-3.69-9.306-5.548-16.179-5.548m80.53 35.624c2.03 2.637 3.057 5.906 3.057 9.72 0 3.261-.604 6.127-1.8 8.493-1.232 2.302-2.843 4.145-4.957 5.634-2.14 1.412-4.515 2.365-7.277 2.924-2.706.542-5.623.826-8.662.826-6.564 0-11.917-1.48-15.998-4.37-4.118-2.922-6.275-7.417-6.397-13.39 0-.117.048-.207.063-.327h6.118c0 .11.052.201.052.316 0 2.222.396 3.985 1.213 5.372a10.194 10.194 0 0 0 3.28 3.459c1.46.92 3.13 1.574 5.08 1.993 3.543.705 7.314.804 12.528.268 1.804-.183 3.493-.674 5.302-1.54 1.493-.773 2.723-1.91 3.746-3.465.995-1.488 1.497-3.562 1.497-6.193 0-2.004-.613-3.99-1.826-5.857-1.273-1.79-3.104-3.04-5.566-3.756l-19.283-5.486c-3.51-.897-6.179-2.538-8.127-4.992-1.925-2.39-2.89-5.29-2.89-8.637 0-3.02.588-5.623 1.777-7.75 1.082-2.048 2.678-3.796 4.688-5.172 1.95-1.338 4.212-2.3 6.734-2.864 2.592-.568 5.218-.83 8.009-.83 6.515 0 11.85 1.438 15.85 4.27 4.047 2.952 6.173 7.443 6.346 13.357 0 .077-.028.127-.028.205h-6.004c0-.064-.025-.11-.025-.171-.141-4.064-1.647-7.037-4.496-8.812-2.947-1.878-6.952-2.837-11.906-2.837-1.776 0-3.57.136-5.304.424-1.749.226-3.318.734-4.781 1.5-1.394.712-2.559 1.766-3.443 3.155-.9 1.345-1.34 3.163-1.34 5.525 0 1.685.563 3.24 1.738 4.753 1.163 1.489 2.862 2.583 5.202 3.34l19.216 5.326c3.76 1.034 6.665 2.917 8.615 5.589M0 134.498h500v-3.966H0v3.966M92.31 193.41a44.194 44.194 0 0 1-1.289-5.637h-.414a113.204 113.204 0 0 1-.58 2.892c-.192.899-.43 1.813-.705 2.745l-3.01 10.002h8.966zm7.435 25.098l-3.284-11.22H85.147l-3.341 11.22h-3.967l10.341-34.291h5.397l10.337 34.291h-4.17M123.307 218.508v-16.2c0-1.153-.051-2.133-.155-2.925-.104-.798-.3-1.444-.593-1.94a2.487 2.487 0 0 0-1.203-1.07c-.512-.22-1.17-.329-1.971-.329-.914 0-1.981.192-3.2.561-1.217.38-2.6.94-4.151 1.695v20.208h-3.776v-25.366h3.776v1.98a31.459 31.459 0 0 1 3.935-1.895 10.557 10.557 0 0 1 3.852-.74c1.55 0 2.802.221 3.755.663.958.443 1.698 1.086 2.224 1.927.524.84.877 1.87 1.058 3.087.18 1.219.268 2.596.268 4.144v16.2h-3.819M167.923 218.508v-16.2c0-1.153-.051-2.133-.155-2.925-.104-.798-.299-1.444-.593-1.94a2.487 2.487 0 0 0-1.203-1.07c-.512-.22-1.17-.329-1.971-.329-.914 0-1.98.192-3.2.561-1.218.38-2.601.94-4.151 1.695v20.208h-3.778v-25.366h3.778v1.98a31.375 31.375 0 0 1 3.935-1.895 10.554 10.554 0 0 1 3.853-.74c1.548 0 2.801.221 3.755.663.957.443 1.696 1.086 2.222 1.927.524.84.879 1.87 1.059 3.087.18 1.219.267 2.596.267 4.144v16.2h-3.818M192.42 196.585c-.485-.09-.966-.17-1.453-.247a34.377 34.377 0 0 0-1.41-.183l-1.286-.114c-.402-.03-.763-.04-1.08-.04-.94 0-1.788.096-2.546.282a3.817 3.817 0 0 0-1.918 1.135c-.528.573-.927 1.374-1.204 2.413-.28 1.04-.416 2.405-.416 4.099v4.372c0 2.518.445 4.372 1.337 5.542.895 1.173 2.317 1.756 4.267 1.756 1.053 0 2.05-.143 2.993-.436a16.18 16.18 0 0 0 2.716-1.14zm.126 21.923v-1.283c-.787.512-1.735.963-2.833 1.353-1.102.393-2.342.588-3.728.588-1.37 0-2.595-.221-3.672-.647a6.703 6.703 0 0 1-2.732-1.981c-.74-.897-1.307-2.021-1.703-3.383-.392-1.357-.591-2.975-.591-4.853v-4.372c0-2.267.245-4.14.736-5.618.492-1.485 1.171-2.653 2.037-3.514a6.97 6.97 0 0 1 3.062-1.808c1.174-.338 2.447-.506 3.819-.506.943 0 1.855.058 2.742.168.885.114 1.798.277 2.737.49v-10.346h3.824v35.712h-3.698M202.804 218.508v-25.366h3.737v2.026a10.34 10.34 0 0 1 3.766-2.052c1.405-.422 2.926-.63 4.56-.63v3.692c-.76 0-1.536.058-2.327.169-.789.114-1.552.265-2.283.451-.733.192-1.418.419-2.056.675a8.252 8.252 0 0 0-1.617.871v20.164h-3.78M230.595 206.32h-3.474c-1.234 0-2.293.055-3.172.168-.882.114-1.604.335-2.165.664-.56.33-.97.81-1.227 1.433-.257.625-.385 1.435-.385 2.442v1.263c0 .705.097 1.293.29 1.758.196.463.468.836.811 1.116.35.276.76.471 1.238.584a6.836 6.836 0 0 0 1.572.17c.693 0 1.377-.07 2.048-.213.675-.146 1.301-.32 1.884-.53a11.912 11.912 0 0 0 1.538-.67 8.07 8.07 0 0 0 1.042-.616zm.186 12.188v-1.715c-.36.272-.787.55-1.28.827-.49.28-1.046.527-1.67.754-.62.225-1.309.41-2.063.564-.758.147-1.569.225-2.439.225-1.096 0-2.073-.14-2.94-.416-.864-.283-1.593-.713-2.188-1.296-.597-.587-1.054-1.336-1.372-2.244-.317-.905-.478-1.997-.478-3.254v-.926c0-1.668.253-3.015.76-4.044.502-1.027 1.227-1.822 2.167-2.387.943-.561 2.073-.94 3.394-1.129a32.607 32.607 0 0 1 4.455-.283h3.468v-1.845c0-1.094-.064-1.988-.198-2.68-.132-.69-.394-1.232-.789-1.622-.393-.39-.95-.661-1.66-.813-.715-.148-1.658-.223-2.834-.223-.652 0-1.275.014-1.871.04-.595.035-1.18.07-1.763.114a91.94 91.94 0 0 0-1.753.171c-.589.07-1.2.138-1.84.216v-2.95c.168-.06.485-.156.957-.284.47-.128 1.042-.25 1.713-.372a32.71 32.71 0 0 1 2.262-.315 23.584 23.584 0 0 1 2.607-.134c1.936 0 3.495.192 4.677.57 1.182.385 2.091.952 2.73 1.692.64.745 1.065 1.668 1.269 2.77.208 1.105.316 2.376.316 3.82v17.17h-3.637M263.896 218.284c-.208.073-.51.157-.911.256a21.46 21.46 0 0 1-1.456.289 30.88 30.88 0 0 1-1.948.23c-.737.066-1.525.104-2.37.104-1.591 0-2.977-.256-4.153-.769a7.35 7.35 0 0 1-2.918-2.237c-.765-.985-1.337-2.19-1.71-3.61-.375-1.416-.56-3.028-.56-4.833v-3.83c0-1.814.185-3.43.56-4.853.373-1.418.945-2.612 1.71-3.584a7.383 7.383 0 0 1 2.918-2.206c1.176-.506 2.562-.757 4.153-.757.845 0 1.633.038 2.37.099.732.07 1.382.148 1.948.239.57.092 1.054.19 1.456.294.401.108.703.192.911.25v3.132a69.487 69.487 0 0 0-3.663-.35 37.75 37.75 0 0 0-2.46-.107c-.94 0-1.786.114-2.534.341a4.135 4.135 0 0 0-1.911 1.22c-.525.585-.929 1.385-1.212 2.398-.284 1.012-.427 2.308-.427 3.884v3.83c0 1.58.143 2.88.427 3.898.283 1.022.687 1.822 1.212 2.413a4.204 4.204 0 0 0 1.91 1.228c.749.233 1.594.347 2.534.347.624 0 1.445-.035 2.46-.114a89.628 89.628 0 0 0 3.664-.358v3.156M284.263 203.976c0-1.365-.12-2.546-.363-3.536-.243-.993-.613-1.808-1.109-2.446a4.422 4.422 0 0 0-1.912-1.405c-.776-.304-1.705-.455-2.782-.455-2.106 0-3.65.623-4.64 1.86-.99 1.241-1.484 3.234-1.484 5.982v3.698c0 1.364.119 2.543.363 3.533.242.993.612 1.808 1.11 2.445a4.44 4.44 0 0 0 1.9 1.412c.765.3 1.683.452 2.751.452 2.142 0 3.707-.626 4.694-1.875.98-1.243 1.472-3.237 1.472-5.967zm3.82 3.698c0 1.845-.21 3.484-.632 4.908-.423 1.428-1.052 2.629-1.893 3.608a7.91 7.91 0 0 1-3.122 2.216c-1.246.506-2.694.757-4.339.757-1.65 0-3.092-.25-4.328-.757a7.843 7.843 0 0 1-3.105-2.216c-.83-.98-1.456-2.18-1.878-3.608-.425-1.424-.634-3.063-.634-4.908v-3.698c0-3.694.835-6.529 2.512-8.517 1.672-1.98 4.15-2.972 7.433-2.972 3.291 0 5.78.992 7.461 2.972 1.685 1.988 2.526 4.823 2.526 8.517v3.698M319.807 218.508V201.66c0-.89-.016-1.68-.052-2.37-.034-.692-.163-1.278-.385-1.758a2.325 2.325 0 0 0-1.04-1.1c-.47-.256-1.145-.387-2.018-.387-.819 0-1.751.192-2.798.561a15.207 15.207 0 0 0-3.109 1.559c.081.601.128 1.193.144 1.783.01.58.02 1.15.02 1.712v16.85h-3.82v-16.85c0-.89-.018-1.68-.05-2.37-.038-.692-.152-1.278-.347-1.758a2.161 2.161 0 0 0-.942-1.1c-.437-.256-1.052-.387-1.838-.387-.51 0-1.035.067-1.567.192-.533.127-1.068.297-1.599.507-.531.212-1.047.448-1.536.713-.49.262-.954.524-1.379.8v20.252h-3.779v-25.366h3.78v1.98a13.36 13.36 0 0 1 3.203-1.895 9.727 9.727 0 0 1 3.768-.74c1.36 0 2.442.248 3.26.74a5.146 5.146 0 0 1 1.892 1.985c1.369-.976 2.646-1.671 3.829-2.096 1.183-.422 2.316-.63 3.395-.63 1.136 0 2.089.135 2.864.403.777.27 1.41.643 1.911 1.106a5.163 5.163 0 0 1 1.164 1.612c.278.606.476 1.25.6 1.924.124.676.197 1.374.22 2.081.018.717.028 1.4.028 2.047v16.85h-3.819M345.242 204.291c0-1.546-.114-2.84-.335-3.886-.222-1.045-.553-1.88-.998-2.512-.442-.632-.992-1.08-1.646-1.35-.662-.272-1.424-.406-2.296-.406-.46 0-.901.03-1.33.087a9.86 9.86 0 0 0-1.357.306c-.48.143-.992.334-1.54.577-.545.238-1.165.547-1.856.926v16.915c.954.21 1.87.378 2.738.51.875.125 1.703.191 2.492.191.927 0 1.774-.11 2.534-.338a3.908 3.908 0 0 0 1.929-1.297c.525-.638.935-1.538 1.228-2.69.29-1.159.437-2.667.437-4.53zm-15.138 23.902v-35.05h3.652v1.687a11.48 11.48 0 0 1 3.335-1.758c1.183-.393 2.34-.588 3.48-.588 1.34 0 2.533.215 3.578.643 1.047.432 1.928 1.112 2.65 2.064.717.946 1.266 2.169 1.648 3.66.383 1.493.571 3.306.571 5.44v2.503c0 2.448-.25 4.468-.758 6.058-.506 1.595-1.203 2.858-2.084 3.796a7.03 7.03 0 0 1-3.148 1.959c-1.213.37-2.515.556-3.914.556-.399 0-.83-.023-1.29-.055a24.229 24.229 0 0 1-1.379-.163 21.84 21.84 0 0 1-1.358-.233c-.441-.093-.845-.19-1.203-.294v9.775h-3.78M367.722 206.32h-3.472c-1.23 0-2.29.055-3.17.168-.883.114-1.604.335-2.165.664-.563.33-.97.81-1.227 1.433-.257.625-.387 1.435-.387 2.442v1.263c0 .705.1 1.293.292 1.758.195.463.467.836.812 1.116.348.276.76.471 1.236.584.48.114 1.004.17 1.573.17.693 0 1.377-.07 2.047-.213.675-.146 1.3-.32 1.885-.53a12.18 12.18 0 0 0 1.54-.67c.445-.227.79-.436 1.036-.616zm.189 12.188v-1.715c-.36.272-.786.55-1.278.827a11.03 11.03 0 0 1-1.671.754c-.623.225-1.309.41-2.062.564a12.87 12.87 0 0 1-2.441.225c-1.095 0-2.073-.14-2.94-.416-.863-.283-1.594-.713-2.188-1.296-.596-.587-1.054-1.336-1.371-2.244-.318-.905-.48-1.997-.48-3.254v-.926c0-1.668.253-3.015.762-4.044a5.565 5.565 0 0 1 2.166-2.387c.944-.561 2.07-.94 3.394-1.129a32.588 32.588 0 0 1 4.454-.283h3.466v-1.845c0-1.094-.061-1.988-.195-2.68-.131-.69-.393-1.232-.788-1.622-.394-.39-.95-.661-1.66-.813-.715-.148-1.658-.223-2.834-.223-.653 0-1.276.014-1.87.04-.596.035-1.183.07-1.766.114-.58.052-1.165.108-1.753.171-.59.07-1.2.138-1.837.216v-2.95c.164-.06.481-.156.955-.284.472-.128 1.042-.25 1.714-.372.672-.12 1.426-.225 2.262-.315a23.564 23.564 0 0 1 2.606-.134c1.936 0 3.496.192 4.677.57 1.182.385 2.091.952 2.73 1.692.642.745 1.061 1.668 1.27 2.77.207 1.105.313 2.376.313 3.82v17.17h-3.635M392.866 218.508v-16.2c0-1.153-.053-2.133-.156-2.925-.103-.798-.3-1.444-.592-1.94a2.474 2.474 0 0 0-1.207-1.07c-.51-.22-1.165-.329-1.968-.329-.914 0-1.981.192-3.2.561-1.22.38-2.599.94-4.152 1.695v20.208h-3.78v-25.366h3.78v1.98a31.246 31.246 0 0 1 3.939-1.895 10.536 10.536 0 0 1 3.85-.74c1.548 0 2.8.221 3.756.663.956.443 1.694 1.086 2.22 1.927.528.84.879 1.87 1.059 3.087.18 1.219.273 2.596.273 4.144v16.2h-3.822M410.14 218.508l-9.075-25.366h4.217l4.754 14.234c.179.574.348 1.115.505 1.636.16.516.317 1.045.469 1.578.15.532.307 1.083.465 1.656.162.571.336 1.19.532 1.867.138-.676.275-1.296.416-1.867.138-.573.28-1.12.424-1.65l.446-1.584c.151-.532.32-1.09.5-1.679l4.298-14.19h4.07l-8.887 27.618a46.58 46.58 0 0 1-1.227 3.313c-.414.99-.91 1.837-1.493 2.536a6.007 6.007 0 0 1-2.109 1.618c-.822.381-1.839.576-3.037.576-1 0-1.906-.055-2.721-.169a23.187 23.187 0 0 1-1.83-.306v-3.173c.46.026.875.059 1.247.076.376.023.729.042 1.07.058.34.012.68.027 1.018.036.34.003.701.008 1.09.008.58 0 1.062-.087 1.45-.26.387-.17.736-.453 1.04-.843.307-.393.588-.903.854-1.531.259-.632.551-1.412.869-2.346l.644-1.846M142.055 184.217h3.903v34.291h-3.903v-34.291"/></g></svg>