<svg xmlns="http://www.w3.org/2000/svg" viewBox="0 0 488.59 170.358" height="170.358" width="488.589"><defs><clipPath id="a" clipPathUnits="userSpaceOnUse"><path d="M0 178.262h407.919V0H0z"/></clipPath></defs><path d="M96.643 102.827H0l64.428 63.686h96.643z" fill="#131112" fill-rule="evenodd"/><path d="M96.643 102.827H0l64.428 63.686h96.643z" fill="#131112"/><path d="M168.944 63.687v95.528l-64.43-63.686V0z" fill="#131112" fill-rule="evenodd"/><path d="M168.944 63.687v95.528l-64.43-63.686V0z" fill="#131112"/><g clip-path="url(#a)" transform="matrix(1.33333 0 0 -1.33333 -28.95 202.263)"><path d="M172.498 26.919v107.265h53.018c10.337 0 18.666-2.742 24.989-8.223 6.324-5.482 9.485-12.706 9.485-21.67 0-10.33-3.518-17.882-10.554-22.658-1.867-1.267-3.984-2.339-6.345-3.217a27.72 27.72 0 0 0 3.615-1.749c6.201-3.649 9.937-9.313 10.183-17.921l.003-18.047c.097-3.503.044-13.78.044-13.78h-22.454v28.936c-.098 4.812-1.796 8.24-4.573 10.281-2.778 2.04-7.389 3.061-13.828 3.061h-20.913V26.919h-11.297zm22.67 60.353h24.59c5.855 0 10.244 1.181 13.171 3.541 2.927 2.358 4.39 5.921 4.39 10.69 0 4.719-1.39 8.257-4.169 10.616-2.778 2.359-6.95 3.539-12.508 3.539h-25.474zM330.66 102.063c-.394 5.091-2.65 9.128-6.775 12.11-4.127 2.982-9.5 4.473-16.128 4.473-5.744 0-10.238-1.252-13.478-3.758-3.24-2.505-4.86-5.993-4.86-10.468 0-3.21 1.696-5.69 5.091-7.44 3.345-1.752 10.452-3.819 21.324-6.202 15.79-3.507 26.342-7.549 31.653-12.128 5.32-4.528 7.983-11.809 7.983-21.845 0-10.082-4.01-18.08-12.03-23.998-8.02-5.917-18.868-8.879-32.548-8.879-13.727 0-24.455 3.135-32.178 9.404-7.726 6.267-11.858 15.183-12.4 26.751h21.914c.246-5.656 2.331-10.012 6.258-13.057 3.924-3.048 9.393-4.572 16.411-4.572 7.215 0 12.846 1.156 16.894 3.465 4.048 2.31 6.07 5.51 6.07 9.595 0 4.035-1.464 7.002-4.389 8.9-2.848 1.895-8.933 3.864-18.26 5.908-17.179 3.798-28.668 7.912-34.459 12.345-5.762 4.385-8.64 11.228-8.64 20.53 0 10.424 3.808 18.692 11.424 24.805 7.616 6.112 17.91 9.168 30.883 9.168 12.135 0 22.011-3.161 29.627-9.487 7.616-6.328 11.842-14.868 12.678-25.62zM365.483 26.586v107.266h22.671V26.586h-11.3z" fill="#131112" fill-rule="evenodd"/></g></svg>