<svg xmlns="http://www.w3.org/2000/svg" height="412" width="808"><defs><clipPath id="a" clipPathUnits="userSpaceOnUse"><path d="M0 0h605.305v308.962H0z"/></clipPath></defs><path d="M548.487.05c5.936 0 10.773 4.84 10.773 10.835 0 5.996-4.837 10.835-10.773 10.835-5.967 0-10.772-4.839-10.772-10.835 0-5.994 4.805-10.834 10.772-10.834M546.57 219.024c5.966 0 10.777 4.836 10.777 10.833 0 5.995-4.811 10.834-10.778 10.834-5.93 0-10.772-4.839-10.772-10.834 0-5.997 4.842-10.833 10.772-10.833M563.615 191.723c5.932 0 10.773 4.837 10.773 10.834 0 5.966-4.841 10.832-10.773 10.832-5.936 0-10.772-4.866-10.772-10.832 0-5.997 4.836-10.834 10.772-10.834M549.765 109.612c5.966 0 10.772 4.84 10.772 10.835 0 5.996-4.806 10.834-10.772 10.834-5.932 0-10.772-4.838-10.772-10.834 0-5.995 4.84-10.835 10.772-10.835M566.197 136.91c5.971 0 10.778 4.87 10.778 10.835 0 5.995-4.807 10.835-10.778 10.835-5.93 0-10.766-4.84-10.766-10.835 0-5.965 4.836-10.836 10.766-10.836M526.304 54.832c5.935 0 10.741 4.839 10.741 10.835 0 5.994-4.806 10.834-10.741 10.834-5.968 0-10.773-4.84-10.773-10.834 0-5.996 4.805-10.835 10.773-10.835M533.15 27.413c5.965 0 10.771 4.838 10.771 10.832 0 5.998-4.806 10.835-10.772 10.835-5.93 0-10.772-4.837-10.772-10.835 0-5.994 4.842-10.832 10.772-10.832M530.347 82.312c5.972 0 10.777 4.84 10.777 10.836 0 5.965-4.805 10.833-10.777 10.833-5.93 0-10.736-4.868-10.736-10.833 0-5.996 4.806-10.836 10.736-10.836M571.1 164.393c5.965 0 10.772 4.868 10.772 10.835 0 5.995-4.807 10.833-10.772 10.833-5.932 0-10.772-4.838-10.772-10.833 0-5.967 4.84-10.835 10.772-10.835" fill="#104076"/><path d="M516.779.05c5.936 0 10.773 4.84 10.773 10.835 0 5.996-4.837 10.835-10.773 10.835S506 16.881 506 10.885c0-5.994 4.842-10.834 10.778-10.834M514.861 219.024c5.967 0 10.772 4.836 10.772 10.833 0 5.995-4.805 10.834-10.772 10.834-5.934 0-10.746-4.839-10.746-10.834 0-5.997 4.812-10.833 10.746-10.833M578.283 219.024c5.961 0 10.768 4.836 10.768 10.833 0 5.995-4.807 10.834-10.768 10.834-5.936 0-10.772-4.839-10.772-10.834 0-5.997 4.836-10.833 10.772-10.833M580.2.05c5.936 0 10.743 4.84 10.743 10.835 0 5.996-4.807 10.835-10.743 10.835-5.967 0-10.772-4.839-10.772-10.835 0-5.994 4.805-10.834 10.772-10.834M444.287 164.393c5.932 0 10.742 4.868 10.742 10.835 0 5.995-4.81 10.833-10.742 10.833-5.966 0-10.772-4.838-10.772-10.833 0-5.967 4.806-10.835 10.772-10.835M475.996 164.393c5.936 0 10.747 4.868 10.747 10.835 0 5.995-4.811 10.833-10.747 10.833-5.961 0-10.773-4.838-10.773-10.833 0-5.967 4.812-10.835 10.773-10.835M507.677 164.393c5.968 0 10.772 4.868 10.772 10.835 0 5.995-4.804 10.833-10.772 10.833-5.934 0-10.74-4.838-10.74-10.833 0-5.967 4.806-10.835 10.74-10.835M539.39 164.393c5.963 0 10.774 4.868 10.774 10.835 0 5.995-4.81 10.833-10.773 10.833-5.935 0-10.74-4.838-10.74-10.833 0-5.967 4.805-10.835 10.74-10.835M602.813 164.393c5.931 0 10.772 4.868 10.772 10.835 0 5.995-4.841 10.833-10.772 10.833-5.941 0-10.772-4.838-10.772-10.833 0-5.967 4.831-10.835 10.772-10.835M634.521 164.393c5.936 0 10.772 4.868 10.772 10.835 0 5.995-4.836 10.833-10.772 10.833-5.965 0-10.772-4.838-10.772-10.833 0-5.967 4.807-10.835 10.772-10.835M468.48 191.723c5.963 0 10.777 4.837 10.777 10.834 0 5.966-4.814 10.832-10.777 10.832-5.93 0-10.741-4.866-10.741-10.832 0-5.997 4.812-10.834 10.741-10.834M500.193 191.723c5.962 0 10.772 4.837 10.772 10.834 0 5.966-4.81 10.832-10.772 10.832-5.936 0-10.777-4.866-10.777-10.832 0-5.997 4.841-10.834 10.777-10.834M531.901 191.723c5.936 0 10.772 4.837 10.772 10.834 0 5.966-4.836 10.832-10.772 10.832-5.93 0-10.766-4.866-10.766-10.832 0-5.997 4.836-10.834 10.766-10.834M595.324 191.723c5.935 0 10.772 4.837 10.772 10.834 0 5.966-4.837 10.832-10.772 10.832-5.967 0-10.772-4.866-10.772-10.832 0-5.997 4.805-10.834 10.772-10.834M627.037 191.723c5.935 0 10.772 4.837 10.772 10.834 0 5.966-4.837 10.832-10.772 10.832-5.968 0-10.772-4.866-10.772-10.832 0-5.997 4.804-10.834 10.772-10.834M454.667 109.612c5.93 0 10.772 4.84 10.772 10.835 0 5.996-4.842 10.834-10.772 10.834-5.967 0-10.778-4.838-10.778-10.834 0-5.995 4.811-10.835 10.778-10.835M486.375 109.612c5.934 0 10.74 4.84 10.74 10.835 0 5.996-4.806 10.834-10.74 10.834-5.962 0-10.772-4.838-10.772-10.834 0-5.995 4.81-10.835 10.772-10.835M518.056 109.612c5.961 0 10.773 4.84 10.773 10.835 0 5.996-4.812 10.834-10.773 10.834-5.935 0-10.745-4.838-10.745-10.834 0-5.995 4.81-10.835 10.745-10.835M581.479 109.612c5.965 0 10.772 4.84 10.772 10.835 0 5.996-4.807 10.834-10.772 10.834-5.936 0-10.778-4.838-10.778-10.834 0-5.995 4.842-10.835 10.778-10.835M613.187 109.612c5.934 0 10.777 4.84 10.777 10.835 0 5.996-4.843 10.834-10.777 10.834-5.931 0-10.772-4.838-10.772-10.834 0-5.995 4.841-10.835 10.772-10.835M644.9 109.612c5.93 0 10.767 4.84 10.767 10.835 0 5.996-4.836 10.834-10.767 10.834-5.936 0-10.772-4.838-10.772-10.834 0-5.995 4.836-10.835 10.772-10.835M439.385 136.91c5.935 0 10.778 4.87 10.778 10.835 0 5.995-4.843 10.835-10.778 10.835-5.961 0-10.768-4.84-10.768-10.835 0-5.965 4.807-10.836 10.768-10.836M471.099 136.91c5.934 0 10.74 4.87 10.74 10.835 0 5.995-4.806 10.835-10.74 10.835-5.968 0-10.772-4.84-10.772-10.835 0-5.965 4.804-10.836 10.772-10.836M502.776 136.91c5.965 0 10.777 4.87 10.777 10.835 0 5.995-4.812 10.835-10.777 10.835-5.932 0-10.737-4.84-10.737-10.835 0-5.965 4.805-10.836 10.737-10.836M534.49 136.91c5.965 0 10.771 4.87 10.771 10.835 0 5.995-4.806 10.835-10.772 10.835-5.936 0-10.742-4.84-10.742-10.835 0-5.965 4.806-10.836 10.742-10.836M597.91 136.91c5.935 0 10.773 4.87 10.773 10.835 0 5.995-4.838 10.835-10.772 10.835-5.936 0-10.774-4.84-10.774-10.835 0-5.965 4.838-10.836 10.774-10.836M629.623 136.91c5.936 0 10.766 4.87 10.766 10.835 0 5.995-4.83 10.835-10.766 10.835-5.935 0-10.772-4.84-10.772-10.835 0-5.965 4.837-10.836 10.772-10.836M661.332 136.91c5.936 0 10.772 4.87 10.772 10.835 0 5.995-4.836 10.835-10.772 10.835-5.961 0-10.773-4.84-10.773-10.835 0-5.965 4.812-10.836 10.773-10.836M462.883 54.832c5.934 0 10.772 4.839 10.772 10.835 0 5.994-4.838 10.834-10.772 10.834-5.967 0-10.772-4.84-10.772-10.834 0-5.996 4.805-10.835 10.772-10.835M494.59 54.832c5.935 0 10.778 4.839 10.778 10.835 0 5.994-4.843 10.834-10.777 10.834-5.963 0-10.772-4.84-10.772-10.834 0-5.996 4.809-10.835 10.772-10.835M557.987 54.832c5.96 0 10.772 4.839 10.772 10.835 0 5.994-4.812 10.834-10.772 10.834-5.936 0-10.748-4.84-10.748-10.834 0-5.996 4.812-10.835 10.748-10.835M589.695 54.832c5.966 0 10.772 4.839 10.772 10.835 0 5.994-4.806 10.834-10.772 10.834-5.931 0-10.748-4.84-10.748-10.834 0-5.996 4.817-10.835 10.748-10.835M621.408 54.832c5.961 0 10.772 4.839 10.772 10.835 0 5.994-4.81 10.834-10.772 10.834-5.936 0-10.777-4.84-10.777-10.834 0-5.996 4.841-10.835 10.777-10.835M469.727 27.413c5.968 0 10.773 4.838 10.773 10.832 0 5.998-4.805 10.835-10.773 10.835-5.935 0-10.74-4.837-10.74-10.835 0-5.994 4.805-10.832 10.74-10.832M501.441 27.413c5.966 0 10.772 4.838 10.772 10.832 0 5.998-4.806 10.835-10.772 10.835-5.936 0-10.741-4.837-10.741-10.835 0-5.994 4.805-10.832 10.741-10.832M564.863 27.413c5.961 0 10.772 4.838 10.772 10.832 0 5.998-4.811 10.835-10.772 10.835-5.942 0-10.772-4.837-10.772-10.835 0-5.994 4.83-10.832 10.772-10.832M596.576 27.413c5.93 0 10.767 4.838 10.767 10.832 0 5.998-4.838 10.835-10.767 10.835-5.941 0-10.777-4.837-10.777-10.835 0-5.994 4.836-10.832 10.777-10.832M628.284 27.413c5.936 0 10.768 4.838 10.768 10.832 0 5.998-4.832 10.835-10.768 10.835-5.967 0-10.777-4.837-10.777-10.835 0-5.994 4.81-10.832 10.777-10.832M435.248 82.312c5.93 0 10.772 4.84 10.772 10.836 0 5.965-4.841 10.833-10.772 10.833-5.967 0-10.772-4.868-10.772-10.833 0-5.996 4.805-10.836 10.772-10.836M466.961 82.312c5.931 0 10.743 4.84 10.743 10.836 0 5.965-4.812 10.833-10.743 10.833-5.965 0-10.777-4.868-10.777-10.833 0-5.996 4.812-10.836 10.777-10.836M498.639 82.312c5.968 0 10.772 4.84 10.772 10.836 0 5.965-4.804 10.833-10.772 10.833-5.935 0-10.742-4.868-10.742-10.833 0-5.996 4.807-10.836 10.742-10.836M562.06 82.312c5.967 0 10.773 4.84 10.773 10.836 0 5.965-4.806 10.833-10.773 10.833-5.935 0-10.772-4.868-10.772-10.833 0-5.996 4.837-10.836 10.772-10.836M593.775 82.312c5.93 0 10.772 4.84 10.772 10.836 0 5.965-4.842 10.833-10.772 10.833-5.942 0-10.774-4.868-10.774-10.833 0-5.996 4.832-10.836 10.774-10.836M625.483 82.312c5.936 0 10.777 4.84 10.777 10.836 0 5.965-4.841 10.833-10.777 10.833-5.936 0-10.772-4.868-10.772-10.833 0-5.996 4.836-10.836 10.772-10.836" fill="#7fcc28"/><g clip-path="url(#a)" transform="matrix(1.33333 0 0 -1.33333 0 412)"><path d="M492.897 247.266c4.451 0 8.075-3.63 8.075-8.127 0-4.474-3.624-8.125-8.075-8.125-4.475 0-8.079 3.651-8.079 8.125 0 4.497 3.604 8.127 8.079 8.127" fill="#7fcc28"/><path d="M48.847 105.406c-9.359 0-18.9-4.954-18.9-15.361 0-12.897 11.504-14.378 21.958-16.434 18.146-4.608 44.643-9.747 44.643-33.712C96.548 10.295 71.031.023 45.467.023 18.33.023-.797 10.613.025 40.719H25.84c-.982-13.215 6.596-22.139 19.856-22.139 10.271 0 23.875 3.103 23.875 15.772 0 13.99-17.073 14.974-27.345 17.599C25.543 56.08 2.969 63.637 2.969 84.681c0 27.183 24.857 39.284 49.344 39.284 23.146 0 40.972-12.579 40.972-36.477l-24.719-.092c-.981 12.074-7.395 18.01-19.719 18.01" fill="#104076"/></g><path d="M203.657 389.965c20.056 0 23.312-18.868 23.312-36.426 0-17.53-3.256-36.399-23.312-36.399-20.024 0-23.312 18.87-23.312 36.399 0 17.558 3.288 36.426 23.312 36.426zm0 22.035c-35.788 0-57.244-23.799-57.244-58.461 0-34.636 21.456-58.435 57.244-58.435 35.818 0 57.272 23.799 57.272 58.435 0 34.662-21.454 58.461-57.272 58.461M312.39 298.237h19.935v22.067h-19.934v88.56h-32.868v-88.56h-16.431v-22.067h16.43c-.88-31.284 1.982-51.552 37.68-51.552 5.933 0 12.05.67 17.954 1.552v20.48c-23.217-2.648-23.647 7.886-22.765 29.52M362.73 276.423l32.865-11.906v33.72h24.74v22.067h-24.74v51.19c0 14.517 2.19 18.471 13.573 18.471 3.499 0 7-.457 10.497-.669v19.387c-3.712 1.762-21.242 3.317-25.833 3.317-25.625 0-31.103-13.45-31.103-37.432v-54.264h-22.126v-22.067h22.126v-21.814M452.32 276.423l32.868-11.906v33.72h24.74v22.067h-24.74v51.19c0 14.517 2.193 18.471 13.575 18.471 3.496 0 7.004-.457 10.53-.669v19.387c-3.746 1.762-21.273 3.317-25.869 3.317-25.624 0-31.104-13.45-31.104-37.432v-54.264h-22.123v-22.067h22.123v-21.814M588.596 340.361c0-12.053-3.315-23.221-19.413-23.221-15.246 0-18.564 11.168-18.988 23.221zm-38.401 22.035c0 14.21 1.973 27.57 18.988 27.57 11.473 0 17.193-4.167 20.302-14.211h29.575C616.197 402.96 594.96 412 569.183 412c-37.828 0-52.952-21.363-52.952-58.188 0-33.176 19.29-58.708 52.952-58.708 20.726 0 37.828 7.057 47.014 26.416 3.079 6.145 4.602 12.725 5.482 19.72.884 6.85.884 13.877.884 21.156h-72.368M669.487 343.495L701.9 297.05h36.581l-37.889 48.422 40.323 63.391h-38.346l-33.082-60.528-.426.452v60.076h-32.868V249.817h32.868v93.248l.426.43M761.879 273.315c0-11.327 9.161-20.546 20.421-20.546 11.244 0 20.392 9.219 20.392 20.546 0 11.326-9.148 20.544-20.392 20.544-11.26 0-20.421-9.218-20.421-20.544zm-4.382 0c0 13.744 11.127 24.925 24.803 24.925 13.661 0 24.773-11.181 24.773-24.925 0-13.746-11.112-24.928-24.773-24.928-13.676 0-24.803 11.182-24.803 24.928" fill="#104076"/><path d="M773.175 284.24v-22.823h9.648c2.401 0 4.166.21 5.296.608 1.089.427 1.968 1.156 2.612 2.19.669 1.064 1.002 2.253 1.002 3.593 0 1.733-.516 3.133-1.493 4.259-1.001 1.094-2.49 1.828-4.468 2.098.97.58 1.795 1.219 2.433 1.92.639.7 1.494 1.914 2.587 3.712l2.765 4.443h-5.474l-3.288-4.99c-1.155-1.766-1.972-2.863-2.398-3.349-.458-.458-.914-.761-1.405-.946-.487-.154-1.248-.239-2.312-.239h-.913v9.524zm4.592-13.147h3.378c2.188 0 3.559-.12 4.111-.305.547-.183.97-.485 1.277-.94.334-.488.486-1.037.486-1.739 0-.761-.215-1.397-.608-1.856-.424-.485-1.002-.761-1.739-.914-.363-.031-1.487-.06-3.343-.06h-3.562v5.814" fill="#104076"/></svg>