<svg xmlns="http://www.w3.org/2000/svg" width="1220.76" height="155.196"><g transform="matrix(5.10245 0 0 5.10245 -1.658 -.76)" fill="#1a1d1d"><path d="M167.24 9.833h-3.6V6.82h3.6V2.35h3.49v4.47h5.74v3.013h-5.74v9.074c0 2.27.632 3.46 3.54 3.46 1.113 0 2.362-.32 2.362-.32v3.14c-1.212.165-2.095.263-3.47.263-5.495 0-5.922-3.96-5.922-6.13V9.832zM213.587 6.8h3.572v18.694h-3.573zm9.885 9.21c0 5.092 4.193 6.36 6.184 6.36 3.794 0 6.472-2.145 6.472-6.433 0-4.29-3.045-6.256-6.51-6.256-1.965 0-6.146 1.158-6.146 6.33zm-3.633-.038c0-7.03 5.68-9.417 9.63-9.417 4.48 0 6.657 2.57 6.657 2.57l.185-2.323h3.264V25.53h-3.27l-.18-2.474s-2.236 2.48-6.697 2.48c-4.48 0-9.59-2.6-9.59-9.564z"/><circle cx="215.373" cy="2.486" r="2.337"/><path d="M210.978 10.014V6.85c-3.528-.324-6.004.52-7.933 2.538l-.188-2.58h-3.39v18.71h3.577v-9.695c0-2.702 2.178-6.132 7.934-5.81zm-33.648 6.03c0-5.848 4.318-9.603 10.093-9.603 5.734 0 9.674 4.19 9.674 9.28 0 0 0 .795-.074 1.516l-15.977.07c.152 2.887 3.485 5.06 6.926 5.06 3.706 0 5.902-2.29 5.902-2.29l2.557 2.247c-2.594 2.49-5.424 3.248-8.457 3.248-6.3 0-10.644-3.68-10.644-9.382v-.144zm15.843-1.606c0-2.542-2.56-4.66-5.702-4.66-3.363 0-6.146 2.076-6.37 4.66h12.073zm-37.18-.078c-3.597-.643-7.133-1.092-7.133-2.77 0-1.093 1.084-2.053 4.232-2.053 2.34 0 5.04.54 5.77 2.198l3.317-1.392c-1.27-2.55-5.023-3.775-9.337-3.775-3.77 0-7.818 1.428-7.818 5.245 0 3.305 3.01 4.334 7.97 5.268 3.316.625 6.373.94 6.373 2.727 0 1.13-1.504 2.575-5.263 2.575-2.673 0-5.368-.562-6.19-2.464l-3.218 1.35c1.318 2.938 4.818 4.46 8.872 4.46 8.094 0 9.658-3.853 9.658-6.038 0-3.642-3.622-4.684-7.235-5.33z"/></g><path d="M268.924 48.631c-17.69 0-33.217 10.032-33.217 31.926 0 21.89 13.655 32.82 33.029 32.82 10.133 0 31.543-4.118 31.543-32.452 0-28.344-21.349-32.299-31.36-32.299zm.95 80.9c-22.844 0-34.161-14.522-34.161-14.522v40.187h-17.604V33.952h16.67l.944 11.853S246.81 32.69 269.685 32.69c20.139 0 49.136 10.266 49.136 48.05s-26.104 48.79-48.942 48.79zM405.924 80.93c0 25.982 21.405 32.451 31.554 32.451 19.369 0 33.012-10.944 33.012-32.824 0-21.89-15.511-31.92-33.201-31.92-10.021 0-31.36 5.908-31.36 32.298zm-18.522-.194c0-35.87 28.982-48.05 49.137-48.05 22.859 0 33.951 13.114 33.951 13.114l.944-11.853H488.1v95.558h-16.624l-.985-12.623s-11.409 12.654-34.166 12.654c-22.848 0-48.932-13.267-48.932-48.8zm1.327-30.4V34.19c-18.002-1.653-30.645 2.654-40.498 12.95l-.934-13.164h-17.297v95.467h18.23V79.976c0-13.787 11.134-31.288 40.494-29.645zM57.632 72.51c-18.358-3.281-36.396-5.572-36.396-14.134 0-5.577 5.511-10.475 21.584-10.475 11.94 0 25.716 2.755 29.451 11.215l16.925-7.103c-6.48-13.01-25.635-19.261-47.637-19.261-19.236 0-39.9 7.286-39.9 26.762 0 16.864 15.358 22.114 40.686 26.88 16.9 3.189 32.513 4.796 32.513 13.914 0 5.766-7.68 13.139-26.854 13.139-13.644 0-27.4-2.868-31.6-12.573L0 107.764c6.715 14.99 24.578 22.757 45.259 22.757 41.304 0 49.29-19.66 49.29-30.809 0-18.583-18.482-23.9-36.922-27.196zm97.472-39.82c-24.39 0-53.27 12.185-53.27 48.05 0 35.523 25.992 49.325 53.27 49.325 27.298 0 53.26-13.797 53.26-49.325 0-35.87-28.855-48.05-53.255-48.05zm0 80.685c-14.99 0-34.727-6.48-34.727-32.451 0-26.39 21.89-31.758 34.727-31.758 12.843 0 34.727 5.368 34.727 31.758-.01 25.981-19.746 32.451-34.732 32.451z" fill="#1a1d1d"/><path d="M663.818 126.393a66.608 66.608 0 0 1-3.337 2.061l-.347.204.342.036c21.787 5.99 43.35 5.766 47.504-7.837 5.357-17.553-29.304-36.38-45.667-45.361-3.506-1.919-5.026-.725-2.791 1.852 10.327 11.899 25.037 35.299 4.286 49.055z" fill="#ef7d00"/><path d="M660.16 128.638s-27.436 17.246-75.864 17.246c-18.761 0-34.553-2.868-41.227-9.44-7.042-6.913-10.848-18.583-10.848-29.288 0-9.184 3.811-16.904 11.761-16.904 20.41 0 84.017 32.35 116.183 38.39z" fill="#cf022b"/><path d="M568.719 28.645a66.421 66.421 0 0 1 3.332-2.061l.336-.204-.336-.041c-21.788-5.98-43.371-5.756-47.514 7.842-5.358 17.553 29.313 36.38 45.666 45.361 3.521 1.908 5.031.714 2.807-1.852-10.333-11.91-25.053-35.31-4.286-49.055z" fill="#ef7d00"/><path d="M572.367 26.395S599.818 9.149 648.24 9.149c18.757 0 34.544 2.872 41.228 9.44 7.041 6.928 10.848 18.572 10.848 29.297 0 9.185-3.812 16.905-11.761 16.905-20.41 0-84.007-32.35-116.183-38.396z" fill="#cf022b"/></svg>