<?xml version="1.0" encoding="UTF-8" standalone="no"?>
<svg
  xmlns="http://www.w3.org/2000/svg"
  viewBox="0 0 93.603 112.5"
>
  <g>
    <path
      d="M36.902 86.28H56.7c2.144 0 3.882-1.74 3.882-3.882 0-2.144-1.738-3.884-3.883-3.884H36.9c-2.143 0-3.882 1.74-3.882 3.884 0 2.143 1.737 3.882 3.882 3.882"
    />
    <path
      d="M14.507 100.178l2.743-3.802h59.1l2.744 3.802H14.507zM59.39 61.49c0-3.087 2.502-5.59 5.59-5.59 3.086 0 5.59 2.503 5.59 5.59 0 3.088-2.504 5.59-5.59 5.59-3.088 0-5.59-2.502-5.59-5.59zm-36.346 0c0-3.087 2.502-5.59 5.59-5.59 3.087 0 5.59 2.503 5.59 5.59 0 3.088-2.503 5.59-5.59 5.59-3.088 0-5.59-2.502-5.59-5.59zm1.505 24.79h.864c2.315 0 4.192-1.877 4.192-4.192v-2.795c0-2.316 1.876-4.193 4.193-4.193h26.004c2.315 0 4.192 1.878 4.192 4.193v2.794c0 2.316 1.878 4.193 4.193 4.193h.863l2.36 3.27H22.19l2.36-3.27zm-6.793-47.896v-10.14c0-6.423 5.207-11.628 11.628-11.628h34.83c6.424 0 11.63 5.205 11.63 11.628v10.14c0 3.28-2.66 5.938-5.94 5.938h-46.21c-3.28 0-5.938-2.658-5.938-5.938zM31.214 4.94H62.39c2.144 0 3.88 1.737 3.88 3.88 0 2.146-1.736 3.885-3.88 3.885H31.214c-2.145 0-3.884-1.74-3.884-3.883 0-2.145 1.74-3.883 3.884-3.883zM89.63 107.004l-4.926-6.827-2.743-3.802-4.925-6.826-2.36-3.27h.258c3.154 0 5.712-2.558 5.712-5.71V17.134C80.645 7.67 72.975 0 63.51 0H30.093C20.63 0 12.958 7.67 12.958 17.135V80.57c0 3.153 2.557 5.71 5.71 5.71h.26l-2.36 3.27-4.928 6.826-2.74 3.8-4.93 6.83L0 112.5h5.61l3.97-5.495h74.44l3.973 5.495h5.61l-3.972-5.495"
    />
  </g>
</svg>